<?xml version="1.0" encoding="UTF-8"?><svg id="Layer_1" xmlns="http://www.w3.org/2000/svg" viewBox="0 0 273.67 273.35"><defs><style>.cls-1,.cls-2{fill:#9bc2be;}.cls-3{fill:#f37979;}.cls-4{letter-spacing:-.02em;}.cls-2{font-family:Roboto-Bold, Roboto;font-size:24.03px;font-weight:700;}</style></defs><rect class="cls-3" width="273.67" height="273.35" rx="24.45" ry="24.45"/><g><text class="cls-2" transform="translate(62.77 238.1)"><tspan x="0" y="0">Ch14. He</tspan><tspan class="cls-4" x="99.68" y="0">r</tspan><tspan x="108.03" y="0">oku</tspan></text><g><path class="cls-1" d="M175.2,105.66c0,21.27-17.29,38.48-38.62,38.46-21.15-.02-38.37-17.32-38.37-38.54,0-21.26,17.3-38.48,38.62-38.46,21.16,.02,38.37,17.31,38.37,38.53Zm-42.57,1.43c-1.82-1.87-3.47-3.61-5.18-5.3-2.29-2.27-5.25-2.33-7.47-.2-2.16,2.07-2.11,5.1,.2,7.46,2.8,2.86,5.63,5.7,8.5,8.5,2.66,2.6,5.43,2.54,8.11-.13,4.58-4.56,9.15-9.15,13.72-13.72,.97-.97,1.96-1.93,2.91-2.92,1.52-1.58,1.98-3.48,1.33-5.55-1.17-3.68-5.58-4.65-8.45-1.83-4.53,4.46-8.98,8.98-13.67,13.69Z"/><path class="cls-1" d="M192.42,58.61c-4.73,4.73-9.22,9.23-13.71,13.73-1.82,1.82-2.45,1.82-4.25,.03-1.66-1.66-3.33-3.31-4.98-4.99-1.41-1.43-1.42-2.19,0-3.61,4.61-4.62,9.24-9.23,14.1-14.08-1.13-1.06-2.34-1.96-3.22-3.1-.54-.72-.97-1.94-.73-2.71,.21-.67,1.4-1.32,2.23-1.44,5.66-.81,11.34-1.47,17.01-2.2,2.3-.3,3.36,.66,3.08,2.98-.48,3.92-1.02,7.83-1.54,11.74-.25,1.87-.41,3.76-.76,5.61-.45,2.38-2.38,2.95-4.14,1.27-1.03-.98-1.98-2.05-3.1-3.22Z"/><path class="cls-1" d="M81.02,152.65c4.75-4.77,9.24-9.27,13.73-13.77,1.8-1.8,2.42-1.8,4.25,.02,1.58,1.58,3.16,3.15,4.74,4.74,1.69,1.71,1.69,2.37-.05,4.11-4.13,4.14-8.26,8.27-12.4,12.39-.4,.4-.92,.69-1.62,1.22,1.27,1.19,2.41,2.01,3.21,3.07,.59,.78,1.21,2.05,.96,2.81-.25,.74-1.55,1.44-2.47,1.57-5.6,.82-11.23,1.47-16.84,2.2-2.33,.3-3.34-.73-3.03-3.2,.33-2.61,.66-5.22,1-7.83,.39-3.01,.7-6.03,1.25-9,.16-.87,.88-2.05,1.6-2.28,.74-.23,1.94,.33,2.68,.89,1.08,.81,1.92,1.93,2.99,3.05Z"/><path class="cls-1" d="M209.03,111.8c-.8,0-1.41,0-2.03,0-5.9,0-11.79,0-17.69,0-1.87,0-2.55-.6-2.59-2.4-.06-2.52-.05-5.04,0-7.56,.04-1.8,.71-2.39,2.6-2.39,5.9-.01,11.79,0,17.69,0,.62,0,1.23,0,2.02,0,0-1.6-.18-3.05,.06-4.42,.17-.96,.71-2.14,1.46-2.61,.54-.34,1.89,.11,2.57,.62,4.63,3.46,9.18,7.02,13.74,10.57,1.8,1.4,1.82,2.78,0,4.2-4.59,3.6-9.2,7.19-13.87,10.68-.61,.46-1.86,.68-2.47,.36-.7-.38-1.31-1.43-1.44-2.28-.23-1.5-.06-3.05-.06-4.77Z"/><path class="cls-1" d="M130.54,33.31c-1.56,0-2.96,.19-4.28-.06-1.02-.2-2.27-.75-2.77-1.55-.34-.55,.23-1.96,.78-2.69,3.39-4.54,6.89-8.99,10.36-13.47,1.44-1.86,2.67-1.88,4.14-.03,3.59,4.53,7.18,9.06,10.67,13.67,.5,.65,.79,1.92,.49,2.59-.32,.71-1.43,1.33-2.27,1.46-1.5,.23-3.05,.07-4.77,.07,0,.8,0,1.42,0,2.03,0,5.84,0,11.68,0,17.52,0,2.15-.58,2.74-2.75,2.77-2.35,.03-4.7,.04-7.04,0-1.94-.03-2.55-.67-2.55-2.61-.01-6.46,0-12.93,0-19.68Z"/><path class="cls-1" d="M192,152.82c1.36-1.48,2.23-2.65,3.33-3.53,.68-.54,1.89-1.1,2.54-.84,.86,.34,1.87,1.4,2,2.28,.91,5.93,1.64,11.89,2.37,17.84,.19,1.54-1.13,2.53-3.05,2.3-3.86-.46-7.71-.98-11.56-1.49-1.98-.26-3.98-.45-5.94-.83-2.29-.44-2.85-2.34-1.24-4.06,1.01-1.07,2.12-2.05,3.28-3.17-3.62-3.61-7.05-7.04-10.48-10.48-1.21-1.21-2.44-2.41-3.64-3.64-1.26-1.29-1.28-2.1-.09-3.39,1.63-1.77,3.27-3.52,4.93-5.26,1.53-1.61,2.29-1.63,3.84-.08,4.18,4.16,8.35,8.33,12.49,12.51,.44,.44,.71,1.05,1.22,1.83Z"/><path class="cls-1" d="M130.54,177.93c0-6.57,0-12.86,0-19.14,0-2.69,.47-3.16,3.21-3.16,2,0,4.01,0,6.01,0,2.63,.01,3.13,.5,3.13,3.08,0,5.72,0,11.45,0,17.17v2.06c1.51,0,2.88-.15,4.21,.05,.86,.13,2.06,.58,2.35,1.22,.34,.75,.17,2.11-.34,2.79-3.47,4.69-7.07,9.28-10.67,13.88-1.32,1.69-2.54,1.67-3.89-.06-3.59-4.6-7.16-9.21-10.71-13.84-1.38-1.8-.43-3.8,1.88-4.01,.79-.07,1.6-.02,2.4-.03,.73,0,1.47,0,2.41,0Z"/><path class="cls-1" d="M89.82,50.04c2.1,2.08,4,3.97,5.9,5.87,2.72,2.71,5.44,5.42,8.14,8.14,1.5,1.51,1.51,2.26,.05,3.75-1.65,1.67-3.31,3.33-4.98,4.98-1.51,1.48-2.25,1.49-3.74,.01-4.18-4.16-8.35-8.33-12.51-12.52-.44-.44-.72-1.04-1.27-1.86-1.29,1.43-2.1,2.57-3.16,3.41-.73,.58-2.01,1.24-2.65,.96-.86-.37-1.76-1.54-1.92-2.5-.67-3.89-1.06-7.82-1.55-11.73-.19-1.53-.4-3.06-.61-4.59-.37-2.64,.42-3.6,3.06-3.31,5.11,.56,10.21,1.25,15.32,1.89,.74,.09,1.49,.13,2.21,.31,2.06,.51,2.66,2.34,1.24,3.91-1.03,1.14-2.25,2.12-3.5,3.28Z"/><path class="cls-1" d="M64.39,99.44c6.58,0,12.88,0,19.17,0,2.68,0,3.15,.48,3.16,3.23,0,2,0,4.01,0,6.01-.01,2.47-.47,2.92-2.89,2.92-5.78,0-11.57,0-17.35,0-.62,0-1.24,0-2.07,0,0,1.6,.18,3.05-.06,4.42-.17,.96-.71,2.18-1.47,2.6-.63,.35-2.02-.03-2.72-.56-4.6-3.41-9.1-6.94-13.63-10.45-1.7-1.32-1.74-2.6-.07-3.93,4.62-3.67,9.24-7.33,13.94-10.9,.61-.47,1.85-.73,2.46-.42,.71,.37,1.35,1.42,1.48,2.25,.23,1.5,.07,3.06,.07,4.81Z"/></g></g></svg>