<?xml version="1.0" encoding="UTF-8"?><svg id="Layer_1" xmlns="http://www.w3.org/2000/svg" viewBox="0 0 273.67 273.35"><defs><style>.cls-1,.cls-2{fill:#9bc2be;}.cls-3{letter-spacing:-.03em;}.cls-4{fill:#f37979;}.cls-2{font-family:Roboto-Bold, Roboto;font-size:24.03px;font-weight:700;}</style></defs><rect class="cls-4" width="273.67" height="273.35" rx="24.45" ry="24.45"/><g><text class="cls-2" transform="translate(58.28 236.05)"><tspan x="0" y="0">Ch2. Structure </tspan><tspan x="-1.6" y="28.84">and</tspan><tspan class="cls-3" x="38.29" y="28.84"> </tspan><tspan x="43.57" y="28.84">Templates</tspan></text><g><path class="cls-1" d="M46.72,206.13V26.13h2.62c44.06,0,88.12,0,132.18,.04,1.2,0,2.69,.44,3.54,1.06,13.43,9.77,26.8,19.58,40.11,29.44,.8,.59,1.48,1.6,1.48,2.41,.07,48.61,.06,97.22,.06,145.84v1.21H46.72Zm13.75-9.95H212.88V65.77h-37.6v-29.5H60.47V196.18ZM203.88,55.68c-5.01-3.94-9.62-7.58-14.53-11.44v11.44h14.53Z"/><path class="cls-1" d="M197.95,166.1v9.9H75.51v-9.9h122.44Z"/><path class="cls-1" d="M75.53,78.04h122.36v9.79H75.53v-9.79Z"/><path class="cls-1" d="M75.51,122h122.3v9.87H75.51v-9.87Z"/><path class="cls-1" d="M75.46,109.93v-9.86h81.47v9.86H75.46Z"/><path class="cls-1" d="M157.01,144.17v9.81H75.55v-9.81h81.46Z"/></g></g></svg>