<?xml version="1.0" encoding="UTF-8"?><svg id="Layer_1" xmlns="http://www.w3.org/2000/svg" viewBox="0 0 273.67 273.35"><defs><style>.cls-1,.cls-2{fill:#9bc2be;}.cls-3{fill:#f37979;}.cls-4{letter-spacing:-.02em;}.cls-2{font-family:Roboto-Bold, Roboto;font-size:24.03px;font-weight:700;}</style></defs><rect class="cls-3" width="273.67" height="273.35" rx="24.45" ry="24.45"/><g><text class="cls-2" transform="translate(75.8 224.39)"><tspan x="0" y="0">Ch12. </tspan><tspan class="cls-4" x="69.71" y="0">A</tspan><tspan x="85.43" y="0">WS </tspan><tspan x="9.97" y="28.84">Database </tspan></text><g><path class="cls-1" d="M50.62,82.96c0,6.77-.14,13.16,.06,19.55,.09,3.08,2.01,5.43,4.16,7.45,3.76,3.55,8.23,5.85,12.96,7.64,14.61,5.54,29.76,6.97,45.19,6.13,10.04-.54,19.89-2.19,29.38-5.74,5.33-2,10.34-4.57,14.54-8.63,.56-.54,1.98-1.09,2.22-.84,1.85,1.93,4.77-.55,6.36,1.72,.43,.61,.63,1.52,.63,2.29,.03,17.34,.04,34.68,0,52.02,0,4.56-2.11,8.23-5.11,11.36-4.83,5.05-10.85,8.07-17.21,10.44-8.83,3.29-17.98,4.96-27.32,5.69-13.48,1.06-26.85,.38-40.02-2.9-8.51-2.12-16.7-5.1-23.69-10.78-3.46-2.81-6.32-6.13-7.37-10.71-.32-1.41-.46-2.9-.46-4.36-.03-30.45,0-60.89-.04-91.34-.01-7.32,3.87-12.17,9.2-16.14,6.71-5,14.38-7.76,22.32-9.73,10.01-2.48,20.18-3.51,30.47-3.27,2.16,.05,3.52,1.26,3.42,3.02-.1,1.75-1.38,2.69-3.54,2.68-13.98-.01-27.72,1.5-40.79,7.01-4.39,1.85-8.54,4.18-11.9,7.75-4.68,4.97-4.73,10.08-.03,14.99,4.68,4.9,10.65,7.54,16.83,9.68,10.18,3.52,20.71,4.83,31.38,5.2,.51,.02,1.03,.02,1.54,.08,1.57,.19,2.58,1.42,2.5,3-.08,1.49-1.15,2.66-2.67,2.63-3.24-.06-6.5-.12-9.73-.41-8.29-.75-16.46-2.17-24.39-4.87-6.81-2.31-13.21-5.39-18.91-10.64Zm109.83,62.36c-.31,.15-.48,.2-.6,.3-6.22,5.63-13.64,8.84-21.48,11.08-18.3,5.24-36.84,5.59-55.48,2.41-8.56-1.46-16.87-3.9-24.47-8.37-2.68-1.58-5.17-3.5-7.83-5.33,0,5.83,.12,11.64-.04,17.44-.1,3.69,1.13,6.67,3.64,9.13,1.4,1.37,2.89,2.68,4.5,3.76,6.74,4.51,14.28,6.9,22.06,8.52,10.71,2.23,21.53,2.88,32.45,2.23,9.7-.58,19.22-2.08,28.42-5.39,5.02-1.81,9.82-4.09,13.9-7.69,2.46-2.17,4.79-4.63,4.89-8.15,.19-6.57,.05-13.14,.05-19.93Zm-109.87-31.05c0,.46,0,.97,0,1.47,0,5.58-.14,11.17,.08,16.74,.08,1.95,.71,4.09,1.72,5.73,1.15,1.88,2.84,3.54,4.59,4.89,7.04,5.41,15.25,7.97,23.7,9.77,10.82,2.3,21.75,2.9,32.78,2.23,9.64-.59,19.1-2.08,28.23-5.4,5.29-1.92,10.32-4.35,14.53-8.29,2.92-2.74,4.54-6,4.39-10.24-.18-5.16-.04-10.34-.04-15.51v-1.48c-3.11,2.06-5.9,4.23-8.96,5.86-12.16,6.49-25.36,8.72-38.85,9.49-9.29,.53-18.55,.11-27.75-1.38-9.02-1.47-17.84-3.71-25.94-8.22-2.91-1.62-5.59-3.71-8.49-5.66Z"/><path class="cls-1" d="M130.18,43.81c2.31-22.03,19.52-33.82,34.89-34.28,18.48-.55,35.48,14.06,37.1,34.3,5.81,.74,11.13,2.85,15.55,6.9,8.86,8.11,12.13,18.31,9.09,30.05-3.07,11.9-11,19.01-22.69,21.51-1.71,.37-3.51,.44-5.27,.44-21.76,.03-43.53,.03-65.29,.01-14.37-.01-25.84-9.69-28.7-24.16-3.09-15.63,7.63-31.72,22.87-34.33,.78-.13,1.56-.28,2.44-.44Zm35.96,53.09h0c11.16,0,22.33,0,33.49,0,.34,0,.68-.02,1.02-.04,13.85-.61,24.21-14.66,21.08-28.6-2.46-10.98-11.12-18.33-22.11-18.75-2.04-.08-2.96-1-3.11-3.14-.1-1.35-.13-2.7-.3-4.04-2.82-22.28-27.68-34.31-46.1-22.22-9.16,6.01-13.84,14.8-14.35,25.97-.11,2.47-.97,3.35-3.33,3.45-1.08,.05-2.15,.18-3.22,.33-12.15,1.74-21.12,14.55-18.91,26.98,2.16,12.19,11.18,20.02,23.21,20.06,10.88,.04,21.76,0,32.64,0Z"/><path class="cls-1" d="M164.88,93.79c-1.48,0-2.96,.05-4.44-.02-1.53-.07-2.71-.83-2.84-2.49-.25-3.28-2.06-4.82-4.81-6.34-2.91-1.62-5.33-3.13-8.64-1.31-1.18,.64-2.44-.14-3.16-1.41-1.49-2.64-2.97-5.28-4.43-7.93-.79-1.44-.58-2.88,.68-3.77,2.59-1.83,3.64-4.13,2.8-7.29-.01-.05-.01-.12,0-.18,.65-3.39,.12-6.24-2.99-8.27-1.15-.75-1.21-2.22-.5-3.5,1.46-2.65,2.94-5.3,4.43-7.93,.84-1.48,2.19-2.08,3.64-1.35,2.76,1.39,5.12,1.14,7.35-1.08,.55-.55,1.33-.98,2.08-1.18,2.21-.57,2.94-2.11,3.28-4.26,.54-3.33,1.15-3.73,4.45-3.73,2.39,0,4.79-.03,7.18,.01,2.05,.04,3.06,.74,3.27,2.82,.29,2.84,1.39,4.72,4.18,5.55,1.05,.31,2.1,1.03,2.88,1.84,1.27,1.3,2.51,1.28,3.99,.57,.66-.32,1.39-.52,2.11-.69,1.36-.31,2.5,.06,3.23,1.34,1.53,2.68,3.04,5.37,4.52,8.08,.73,1.35,.6,2.77-.62,3.63-2.64,1.86-3.07,4.2-2.99,7.45,.08,3.44,.05,6.35,3.18,8.44,1.09,.73,1.1,2.16,.45,3.36-1.47,2.71-2.97,5.41-4.52,8.08-.8,1.4-2.13,1.96-3.52,1.26-2.76-1.38-5.14-1.14-7.34,1.11-.47,.48-1.14,.87-1.78,1.01-2.54,.55-3.26,2.41-3.66,4.75-.49,2.87-1.25,3.4-4.02,3.43-1.14,0-2.28,0-3.42,0,0,0,0-.01,0-.02Zm22.4-20.48c-.88-.84-1.7-1.65-2.55-2.41-1.06-.94-1.41-2.1-1.11-3.48,.7-3.14,.68-6.28,0-9.42-.3-1.39,.09-2.53,1.15-3.46,.85-.75,1.65-1.57,2.51-2.39-.82-1.43-1.56-2.73-2.32-4.05-1.26,.39-2.38,.95-3.53,1.02-1.03,.07-2.35-.07-3.08-.7-2.44-2.1-5.08-3.68-8.06-4.82-.94-.36-1.69-1.56-2.27-2.54-.42-.71-.35-1.7-.58-2.55-.1-.35-.38-.91-.6-.93-1.3-.08-2.68-.26-3.89,.1-.49,.15-.69,1.56-.89,2.42-.36,1.59-.77,3.07-2.55,3.6-3,.9-5.63,2.48-7.9,4.7-.99,.98-2.14,1.24-3.46,.74-1.06-.4-2.15-.7-3.3-1.08-.78,1.38-1.51,2.69-2.3,4.1,.73,.71,1.39,1.43,2.13,2.05,1.43,1.2,1.9,2.56,1.44,4.5-.4,1.68-.74,3.6-.36,5.23,.93,3.95,.63,7.21-3.32,9.19,.9,1.61,1.66,2.95,2.41,4.29,.89-.28,1.63-.43,2.29-.75,2.02-.99,3.59-.53,5.23,1.04,1.35,1.29,2.99,2.61,4.72,3.05,3.62,.94,5.11,3.28,5.41,6.82,0,.09,.13,.18,.24,.32h4.38c.23-.97,.51-1.87,.63-2.79,.25-2,1.3-3,3.17-3.63,1.81-.61,3.65-1.49,5.12-2.72,4.44-3.73,3.39-2.93,8.53-1.48,.1,.03,.21-.02,.42-.04,.73-1.25,1.49-2.55,2.31-3.95Z"/><path class="cls-1" d="M164.88,77.77c-8.11,.01-14.71-6.75-14.71-15.06,0-8.28,6.69-15.13,14.73-15.08,8.05,.05,14.55,6.75,14.58,15.02,.02,8.41-6.45,15.12-14.6,15.13Zm8.96-15.11c-.04-5.22-4.15-9.35-9.21-9.28-4.93,.07-8.84,4.3-8.79,9.49,.05,5.12,4.16,9.29,9.1,9.21,4.96-.08,8.95-4.3,8.91-9.43Z"/></g></g></svg>