<?xml version="1.0" encoding="UTF-8"?><svg id="Layer_1" xmlns="http://www.w3.org/2000/svg" viewBox="0 0 273.67 273.35"><defs><style>.cls-1,.cls-2{fill:#9bc2be;}.cls-3{fill:#f37979;}.cls-2{font-family:Roboto-Bold, Roboto;font-size:24.03px;font-weight:700;}</style></defs><rect class="cls-3" width="273.67" height="273.35" rx="24.45" ry="24.45"/><g><text class="cls-2" transform="translate(46.18 223.76)"><tspan x="0" y="0">Ch10. Log in and </tspan><tspan x="-13.81" y="28.84">user authentication </tspan></text><g><path class="cls-1" d="M136.85,198.53c-23.71,0-47.43,0-71.14,0-10.43,0-18.28-6.64-20.01-16.92-.15-.91-.14-1.86-.14-2.79,0-15.06,0-30.13,0-45.19,0-4.1,2.81-7.09,6.58-7.04,3.74,.05,6.47,2.97,6.47,6.98,0,14.69,0,29.38,0,44.07,0,5.37,2.49,7.84,7.9,7.84,47.06,0,94.11,0,141.17,0,5.26,0,7.8-2.52,7.81-7.75,0-47.12,0-94.24,0-141.35,0-5.24-2.53-7.77-7.79-7.77-47.12,0-94.23,0-141.35,0-5.24,0-7.73,2.53-7.73,7.82,0,14.81,0,29.63,0,44.44,0,3.5-2.4,6.12-5.89,6.57-3.01,.39-6.06-1.68-6.93-4.77-.2-.7-.23-1.47-.23-2.21-.01-15.06-.03-30.13,0-45.19,.02-11.13,8.61-19.72,19.77-19.72,47.8-.02,95.6-.02,143.41,0,11.26,0,19.8,8.58,19.8,19.87,.01,47.74,.01,95.48,0,143.22,0,11.38-8.55,19.88-19.98,19.89-23.9,.02-47.8,0-71.7,0Z"/><path class="cls-1" d="M127.31,100c-2.64-2.62-5.32-5.19-7.89-7.86-3.62-3.75-2.11-9.64,2.8-11.02,2.4-.67,4.6-.1,6.36,1.65,6.58,6.53,13.16,13.07,19.66,19.68,2.65,2.69,2.62,6.51-.05,9.22-6.51,6.6-13.06,13.17-19.67,19.67-2.65,2.6-6.71,2.46-9.23-.1-2.52-2.56-2.55-6.55,.05-9.23,2.6-2.68,5.3-5.25,7.87-8.34h-2.07c-23.77,0-47.54,0-71.31-.01-1.11,0-2.25-.06-3.33-.29-2.97-.65-4.97-3.28-4.95-6.38,.02-3.08,2.05-5.66,5.07-6.29,.96-.2,1.97-.24,2.96-.24,23.77-.01,47.54,0,71.31,0h2.22c.07-.15,.14-.29,.21-.44Z"/></g></g></svg>