<?xml version="1.0" encoding="UTF-8"?><svg id="Layer_1" xmlns="http://www.w3.org/2000/svg" viewBox="0 0 274.5 274.5"><defs><style>.cls-1{letter-spacing:0em;}.cls-2{font-family:Roboto-Bold, Roboto;font-size:20px;font-weight:700;}.cls-2,.cls-3{fill:#9bc2be;}.cls-4{fill:#fee6a7;stroke:#c5c8d9;stroke-miterlimit:10;stroke-width:2.72px;}.cls-3{stroke-width:0px;}</style></defs><rect class="cls-4" x="1.36" y="1.36" width="271.79" height="271.79" rx="33.97" ry="33.97"/><text class="cls-2" transform="translate(59.03 238.97)"><tspan x="0" y="0">App D</tspan><tspan class="cls-1" x="53.96" y="0">e</tspan><tspan x="64.64" y="0">velopment </tspan><tspan x="46.05" y="24">Module</tspan></text><path class="cls-3" d="m155.76,65.93h-10.53V25.39H47.18v155.1h97.98v-26.17h10.74v2.04c0,17.46-.08,34.91.04,52.37.04,5.74-3.8,8.93-8.69,8.91-34.12-.14-68.24-.07-102.36-.07-5.54,0-8.47-2.98-8.47-8.61,0-62.43,0-124.87,0-187.3,0-5.75,2.92-8.72,8.56-8.72,34.24,0,68.48,0,102.73,0,5.01,0,8.15,3.09,8.17,8.21.04,14.41.01,28.82,0,43.24,0,.48-.08.96-.13,1.54Zm-70.24,132.23c0,6.08,4.72,10.88,10.67,10.86,5.82-.02,10.62-4.87,10.67-10.76.04-6-4.73-10.9-10.66-10.91-6-.02-10.68,4.72-10.68,10.81Z"/><path class="cls-3" d="m206.6,126.37c-1.93,0-3.63-.02-5.32,0-4.28.05-8.57-.12-12.82.23-4.9.4-8.56,4.71-8.63,9.72-.06,4.27-.01,8.54-.01,13.03-.85,0-1.51,0-2.16,0-12.78,0-25.55,0-38.33,0-6.05,0-10-3.97-10-10.12-.02-19.38-.02-38.76,0-58.14,0-6.17,3.88-10.16,9.96-10.17,19.14-.03,38.27-.03,57.41,0,6.07.01,9.91,4.02,9.92,10.21.01,14.41,0,28.82,0,43.23,0,.55,0,1.1,0,2Z"/><path class="cls-3" d="m183.56,66.04c0-6.3-.14-12.32.05-18.33.11-3.46,3.42-6.04,7.19-6.04,10.33-.02,20.67,0,31,0,3.97,0,7.95-.01,11.92,0,4.45.02,7.39,2.96,7.4,7.42.01,14.6.01,29.2,0,43.79,0,3.95-2.57,7.19-6.15,7.26-7.76.14-15.52.04-23.55.04v-2.01c0-5.71.02-11.43,0-17.14-.03-8.73-6.01-14.88-14.62-14.98-4.34-.05-8.67,0-13.23,0Z"/><path class="cls-3" d="m96.03,97.56c5.44,0,10.87,0,16.31,0,3.53,0,5.78,2.15,5.79,5.74.05,11.05.05,22.09,0,33.14-.02,3.54-2.3,5.75-5.83,5.76-10.75.03-21.5.03-32.25,0-3.73,0-5.83-2.25-5.83-6.08,0-10.86,0-21.72,0-32.58,0-3.86,2.08-5.97,5.87-5.98,5.31,0,10.63,0,15.94,0Z"/><path class="cls-3" d="m206.46,175.87c-5.38,0-10.76.02-16.14,0-3.65-.02-5.7-2.08-5.7-5.75-.02-11.05-.02-22.11,0-33.16,0-3.42,2.05-5.66,5.44-5.68,10.94-.07,21.88-.06,32.82,0,3.41.02,5.52,2.16,5.54,5.61.06,11.12.06,22.23,0,33.35-.02,3.58-2.14,5.62-5.66,5.63-5.44.03-10.88,0-16.32,0Z"/></svg>