<?xml version="1.0" encoding="UTF-8"?><svg id="Layer_1" xmlns="http://www.w3.org/2000/svg" viewBox="0 0 274.5 274.5"><defs><style>.cls-1{fill:#fee6a7;stroke:#c5c8d9;stroke-miterlimit:10;stroke-width:2.72px;}.cls-2{fill:#9bc2be;stroke-width:0px;}</style></defs><rect class="cls-1" x="1.36" y="1.36" width="271.79" height="271.79" rx="33.97" ry="33.97"/><path class="cls-2" d="m157.19,80.52h-11.42v-43.95H39.46v168.18h106.24v-28.37h11.65v2.22c0,18.93-.08,37.86.05,56.79.04,6.22-4.12,9.68-9.43,9.66-37-.15-73.99-.08-110.99-.08-6,0-9.18-3.23-9.18-9.34,0-67.7,0-135.4,0-203.09,0-6.23,3.17-9.46,9.29-9.46,37.13,0,74.26,0,111.39,0,5.44,0,8.84,3.35,8.86,8.9.04,15.63.02,31.26,0,46.88,0,.52-.09,1.04-.15,1.67Zm-76.17,143.38c0,6.59,5.11,11.79,11.57,11.77,6.31-.02,11.52-5.28,11.57-11.66.05-6.51-5.13-11.82-11.55-11.83-6.51-.02-11.58,5.11-11.58,11.72Z"/><path class="cls-2" d="m212.32,146.06c-2.09,0-3.93-.02-5.77,0-4.64.05-9.29-.13-13.9.25-5.31.44-9.28,5.11-9.36,10.54-.07,4.63-.01,9.26-.01,14.13-.93,0-1.63,0-2.34,0-13.85,0-27.71,0-41.56,0-6.56,0-10.84-4.3-10.85-10.97-.02-21.01-.02-42.03,0-63.04,0-6.69,4.21-11.02,10.8-11.03,20.75-.03,41.5-.04,62.25,0,6.58.01,10.75,4.36,10.75,11.07.01,15.63,0,31.25,0,46.88,0,.6,0,1.2,0,2.17Z"/><path class="cls-2" d="m187.34,80.64c0-6.83-.15-13.36.06-19.87.12-3.76,3.7-6.55,7.79-6.55,11.2-.02,22.41,0,33.61,0,4.31,0,8.62-.01,12.93,0,4.83.02,8.02,3.2,8.02,8.05.01,15.83.01,31.66,0,47.49,0,4.29-2.79,7.8-6.67,7.87-8.41.15-16.83.05-25.54.05v-2.18c0-6.2.02-12.39,0-18.59-.03-9.47-6.52-16.13-15.85-16.24-4.7-.06-9.4,0-14.34,0Z"/><path class="cls-2" d="m92.42,114.82c5.89,0,11.79,0,17.68,0,3.83,0,6.27,2.33,6.28,6.22.05,11.98.05,23.96,0,35.93-.02,3.83-2.5,6.24-6.32,6.25-11.66.03-23.31.03-34.97,0-4.04-.01-6.32-2.44-6.33-6.6,0-11.78,0-23.55,0-35.33,0-4.19,2.26-6.48,6.37-6.48,5.76,0,11.52,0,17.29,0Z"/><path class="cls-2" d="m212.16,199.74c-5.83,0-11.66.02-17.5,0-3.95-.02-6.18-2.26-6.18-6.23-.02-11.99-.02-23.97,0-35.96,0-3.71,2.22-6.13,5.9-6.16,11.86-.08,23.73-.07,35.59,0,3.69.02,5.99,2.34,6.01,6.08.07,12.05.06,24.11,0,36.16-.02,3.88-2.32,6.09-6.13,6.11-5.9.03-11.8,0-17.7,0Z"/></svg>