<?xml version="1.0" encoding="UTF-8"?><svg id="Layer_1" xmlns="http://www.w3.org/2000/svg" viewBox="0 0 277.67 277.35"><defs><style>.cls-1,.cls-2{fill:#9bc2be;}.cls-3{letter-spacing:.02em;}.cls-4{fill:#f2e3b6;stroke:#c5c8d9;stroke-miterlimit:10;stroke-width:4px;}.cls-2{font-family:Roboto-Bold, Roboto;font-size:24.03px;font-weight:700;}</style></defs><rect class="cls-4" x="2" y="2" width="273.67" height="273.35" rx="24.45" ry="24.45"/><g><text class="cls-2" transform="translate(67.92 240.1)"><tspan x="0" y="0">Ch10. Cha</tspan><tspan class="cls-3" x="111.77" y="0">r</tspan><tspan x="121.12" y="0">ts</tspan></text><g><path class="cls-1" d="M132.48,116.69h2.83c24.17,0,48.33,0,72.5,0,4.75,0,5.87,1.24,5.71,5.95-.69,20.43-7.6,38.45-21.06,53.81-13.05,14.89-29.38,24.21-48.92,27.71-45.07,8.07-86.83-20.92-97.44-63.29-9.82-39.23,10.49-81.26,47.42-97.73,10.73-4.79,21.94-7.31,33.66-7.62,3.87-.1,5.29,1.26,5.29,5.19,0,24.38,0,48.77,0,73.15v2.83Zm73.02,7.72c-.58-.04-1.18-.1-1.77-.1-23.96,0-47.93-.02-71.89,.05-1.01,0-2.24,.55-2.99,1.25-12.82,12.03-25.59,24.13-38.37,36.21-5.06,4.79-10.12,9.59-15.19,14.39,20.7,20.54,54.17,28.27,84.01,15.27,32.6-14.2,46.19-45.48,46.19-67.07Zm-135.5,46.18c.34-.29,.61-.49,.85-.72,17.62-16.65,35.24-33.29,52.81-50,.67-.63,1.08-1.87,1.08-2.82,.06-23.77,.05-47.55,.05-71.32,0-.72,0-1.43,0-2.15-22.79,.22-52.32,14.33-66.31,44.52-13.34,28.8-7.06,61.58,11.52,82.48Z"/><path class="cls-1" d="M189.44,104.1c-12.9,0-25.79,0-38.69,0-4.6,0-5.72-1.14-5.72-5.81,0-25.47,0-50.93,0-76.4,0-5.98,.76-6.72,6.68-6.53,36.25,1.14,67.96,25.46,78.45,60.15,2.33,7.71,3.56,15.58,3.64,23.64,.04,3.51-1.28,4.94-4.86,4.95-13.17,.02-26.33,0-39.5,0ZM152.72,23.25v2.18c0,22.88,.02,45.77-.04,68.65,0,1.87,.49,2.38,2.37,2.38,22.87-.06,45.75-.04,68.62-.04,.73,0,1.45,0,2.18,0-.8-38.54-34.4-72.35-73.13-73.17Z"/></g></g></svg>