<?xml version="1.0" encoding="UTF-8"?><svg id="Layer_1" xmlns="http://www.w3.org/2000/svg" viewBox="0 0 277.67 277.35"><defs><style>.cls-1,.cls-2{fill:#9bc2be;}.cls-3{letter-spacing:0em;}.cls-4{fill:#f2e3b6;stroke:#c5c8d9;stroke-miterlimit:10;stroke-width:4px;}.cls-5{letter-spacing:-.01em;}.cls-2{font-family:Roboto-Bold, Roboto;font-size:24.03px;font-weight:700;}</style></defs><rect class="cls-4" x="2" y="2" width="273.67" height="273.35" rx="24.45" ry="24.45"/><g><text class="cls-2" transform="translate(76.54 240.1)"><tspan x="0" y="0">Ch8. </tspan><tspan class="cls-5" x="55.93" y="0">F</tspan><tspan class="cls-3" x="68.85" y="0">orms</tspan></text><path class="cls-1" d="M183.81,88.31c4.52-4.75,8.65-9.09,12.78-13.42,7.46-7.82,16.67-7.84,24.1-.06,1.51,1.58,3.02,3.15,4.52,4.74,6.66,7.06,6.7,17.07,.03,24.1-13.3,13.99-26.62,27.96-39.98,41.88-1.09,1.14-1.48,2.27-1.47,3.83,.05,11.8,.04,23.59,.02,35.39-.01,13.24-9.08,23.36-21.68,24.23-.73,.05-1.46,.07-2.19,.07-29.62,0-59.23-.01-88.85,.01-8.96,0-15.96-3.71-20.69-11.78-2.13-3.63-3.15-7.63-3.15-11.93,.02-33.23,.02-66.45-.02-99.68,0-2.28,.71-4.01,2.31-5.51,18.5-17.36,36.96-34.76,55.51-52.06,1.14-1.07,2.94-1.93,4.43-1.93,17.9-.09,35.81-.28,53.7,.16,11.19,.27,20.54,11.08,20.61,22.84,.08,12.15,.02,24.29,.02,36.44,0,.69,0,1.39,0,2.67Zm-126,2.04c-.04,.87-.08,1.42-.08,1.97,0,30.71-.02,61.42,0,92.13,0,8.19,5.23,13.57,13.08,13.57,29.68,0,59.36,0,89.03,0,8.39,0,13.43-5.24,13.44-14.02,.02-7.75,0-15.49,0-23.24,0-.67-.06-1.33-.11-2.36-.75,.73-1.24,1.18-1.7,1.66-4.05,4.24-8.05,8.54-12.18,12.69-1,1.01-2.37,1.84-3.71,2.22-8.72,2.44-17.46,4.76-26.22,7.04-4.88,1.27-8.13-2.24-6.88-7.37,2.15-8.9,4.27-17.82,6.57-26.67,.46-1.78,1.43-3.64,2.66-4.95,13.34-14.14,26.78-28.17,40.15-42.28,.71-.75,1.35-1.99,1.36-3,.08-15.7,.1-31.41,.04-47.11-.03-8.14-5.22-13.47-12.95-13.47-14.57,0-29.15,0-43.72,0-.7,0-1.41,0-2.25,0,0,1.04,0,1.8,0,2.56,0,9.07,.07,18.15-.03,27.22-.13,13.03-10.19,23.4-22.63,23.42-10.51,.02-21.03,0-31.54,0-.72,0-1.44,0-2.36,0Zm135.76,2.91c-.43,.6-.81,1.28-1.32,1.82-16.93,17.78-33.85,35.57-50.83,53.29-1.52,1.58-2.51,3.26-3,5.45-1.11,5.04-2.39,10.05-3.67,15.36,5.45-1.46,10.59-2.78,15.69-4.25,1.15-.33,2.36-.99,3.2-1.86,17.31-18.07,34.57-36.2,51.84-54.31,.51-.53,.98-1.09,1.38-1.53-4.37-4.6-8.64-9.09-13.28-13.97ZM103.88,44c-12.66,11.89-24.92,23.41-37.5,35.23,9.16,0,17.79,.31,26.39-.1,6.46-.3,10.93-5.66,11.07-12.5,.15-7.31,.03-14.63,.03-22.63Zm110.72,55c1.27-1.32,2.75-2.62,3.96-4.16,1.56-1.99,1.47-4.79-.21-6.7-2.02-2.31-4.13-4.53-6.33-6.64-1.92-1.84-4.78-1.79-6.73-.02-1.35,1.23-2.61,2.56-3.82,3.75,4.49,4.71,8.79,9.22,13.14,13.78Z"/></g></svg>