<?xml version="1.0" encoding="UTF-8"?>
<svg id="Layer_1" data-name="Layer 1" xmlns="http://www.w3.org/2000/svg" viewBox="0 0 274.5 274.5">
  <defs>
    <style>
      .cls-1 {
        letter-spacing: 0em;
      }

      .cls-1, .cls-2, .cls-3, .cls-4 {
        font-family: RobotoSlab-Regular, 'Roboto Slab';
      }

      .cls-2 {
        letter-spacing: -.03em;
      }

      .cls-3 {
        letter-spacing: 0em;
      }

      .cls-5 {
        font-size: 24.03px;
      }

      .cls-5, .cls-6 {
        fill: #9bc2be;
      }

      .cls-7 {
        font-family: SegoeMDL2Assets, 'Segoe MDL2 Assets';
      }

      .cls-8 {
        fill: #7c9194;
        stroke: #173158;
        stroke-miterlimit: 10;
        stroke-width: 2.72px;
      }

      .cls-6 {
        stroke-width: 0px;
      }
    </style>
  </defs>
  <g>
    <text class="cls-5" transform="translate(62.79 235.72)"><tspan class="cls-2" x="0" y="0">A</tspan><tspan class="cls-4" x="16.77" y="0">uditi</tspan><tspan class="cls-1" x="70.38" y="0">n</tspan><tspan class="cls-4" x="85.73" y="0">g</tspan><tspan class="cls-7" x="99.33" y="0"> </tspan><tspan class="cls-4" x="105.92" y="0">a</tspan><tspan class="cls-3" x="119.15" y="0">n</tspan><tspan class="cls-4" x="134.5" y="0">d</tspan><tspan class="cls-7" x="148.92" y="0"> </tspan><tspan class="cls-4" x="-3.12" y="28.84">Digitalization</tspan><tspan class="cls-7" x="152.04" y="28.84"> </tspan></text>
    <g>
      <path class="cls-6" d="m148.83,176.57c-.63,0-.95,0-1.26,0-20.68,0-41.36.03-62.04-.02-7.76-.02-14.12-4.92-16.05-12.31-.43-1.67-.54-3.46-.54-5.2-.03-30.56-.02-61.13-.02-91.69,0-11.96-.01-23.92,0-35.88.01-9.07,5.48-15.57,14.37-17.1.88-.15,1.8-.14,2.7-.14,33.7,0,67.41-.01,101.11,0,9.39,0,16.54,6.99,16.81,16.39.02.64.01,1.28.01,1.91,0,40.45,0,80.9,0,121.35v2.34c-1.4-1.63-2.52-2.92-3.63-4.23-1.44-1.7-2.83-3.46-4.33-5.11-.77-.85-1.05-1.71-1.05-2.85.03-37.31.02-74.63.02-111.94,0-5.98-2.91-8.88-8.91-8.88-33.12,0-66.24,0-99.36,0-2.36,0-4.54.39-6.33,2.06-1.56,1.46-2.3,3.28-2.44,5.37-.04.53-.02,1.06-.02,1.59,0,42.15,0,84.3,0,126.45,0,5.97,2.95,8.94,8.88,8.94,19.19,0,38.38.01,57.57-.03,1.23,0,1.77.37,2.1,1.52.7,2.43,1.54,4.82,2.4,7.47Z"/>
      <path class="cls-6" d="m170.78,128.48c4.33,5.13,8.57,10.17,12.82,15.2,5.41,6.42,10.89,12.78,16.23,19.26,5.95,7.21,7.37,15.37,3.92,24.01-3.46,8.67-10.2,13.53-19.44,14.68-10.58,1.32-21.17-5.51-24.52-15.62-4.54-13.73-9.07-27.47-13.6-41.2q-.71-2.17-3.01-1.83c-20.65,3.07-40.99-7.82-49.79-26.66-13.13-28.12,3.74-60.97,34.22-66.62,25.64-4.76,50.62,12.48,55.07,38.23,2.48,14.34-1.06,27.25-10.26,38.58-.5.62-1.02,1.21-1.65,1.97Zm3.63-32.18c.17-20.94-16.94-38.08-38.17-38.24-20.7-.15-38.13,16.91-38.29,37.48-.17,21.41,16.59,38.78,37.59,38.96,21.48.18,38.7-16.74,38.87-38.2Zm-10.28,38.31c-3.4,1.91-6.62,3.71-9.9,5.55.04.14.09.39.17.64,4.68,14.24,9.32,28.49,14.08,42.7,2.18,6.51,9.81,10.47,16.62,8.86,10.83-2.57,14.97-15.19,7.77-23.72-4.59-5.44-9.18-10.88-13.77-16.32-5-5.92-10-11.84-14.96-17.71Z"/>
      <path class="cls-6" d="m136.25,111.23c6.17,0,12.33,0,18.5,0,1.81,0,3.36.53,4.39,2.1,1.96,3-.09,6.78-3.81,6.99-1.38.08-2.76.02-4.14.02-11.16,0-22.32,0-33.48,0-3.26,0-5.4-2.05-5.17-4.9.2-2.5,2.12-4.19,4.91-4.2,6.27-.03,12.54,0,18.82,0Z"/>
      <path class="cls-6" d="m136.23,72.26c6.22,0,12.43,0,18.65,0,2.97,0,4.92,1.75,4.95,4.41.03,2.76-1.89,4.54-4.98,4.54-12.49.01-24.97.01-37.46,0-2.95,0-4.9-1.83-4.89-4.49,0-2.66,1.98-4.46,4.92-4.46,6.27,0,12.54,0,18.81,0Z"/>
      <path class="cls-6" d="m136.07,100.77c-6.16,0-12.33.01-18.49,0-2.59,0-4.36-1.21-4.91-3.24-.8-2.97,1.26-5.77,4.41-5.78,12.75-.03,25.51-.03,38.26,0,2.5,0,4.4,1.9,4.49,4.26.1,2.56-1.56,4.47-4.15,4.71-.95.09-1.91.05-2.87.05-5.58,0-11.16,0-16.74,0Z"/>
    </g>
  </g>
  <g>
    <text class="cls-5" transform="translate(62.79 235.72)"><tspan class="cls-2" x="0" y="0">A</tspan><tspan class="cls-4" x="16.77" y="0">uditi</tspan><tspan class="cls-1" x="70.38" y="0">n</tspan><tspan class="cls-4" x="85.73" y="0">g</tspan><tspan class="cls-7" x="99.33" y="0"> </tspan><tspan class="cls-4" x="105.92" y="0">a</tspan><tspan class="cls-3" x="119.15" y="0">n</tspan><tspan class="cls-4" x="134.5" y="0">d</tspan><tspan class="cls-7" x="148.92" y="0"> </tspan><tspan class="cls-4" x="-3.12" y="28.84">Digitalization</tspan><tspan class="cls-7" x="152.04" y="28.84"> </tspan></text>
    <g>
      <path class="cls-6" d="m148.83,176.57c-.63,0-.95,0-1.26,0-20.68,0-41.36.03-62.04-.02-7.76-.02-14.12-4.92-16.05-12.31-.43-1.67-.54-3.46-.54-5.2-.03-30.56-.02-61.13-.02-91.69,0-11.96-.01-23.92,0-35.88.01-9.07,5.48-15.57,14.37-17.1.88-.15,1.8-.14,2.7-.14,33.7,0,67.41-.01,101.11,0,9.39,0,16.54,6.99,16.81,16.39.02.64.01,1.28.01,1.91,0,40.45,0,80.9,0,121.35v2.34c-1.4-1.63-2.52-2.92-3.63-4.23-1.44-1.7-2.83-3.46-4.33-5.11-.77-.85-1.05-1.71-1.05-2.85.03-37.31.02-74.63.02-111.94,0-5.98-2.91-8.88-8.91-8.88-33.12,0-66.24,0-99.36,0-2.36,0-4.54.39-6.33,2.06-1.56,1.46-2.3,3.28-2.44,5.37-.04.53-.02,1.06-.02,1.59,0,42.15,0,84.3,0,126.45,0,5.97,2.95,8.94,8.88,8.94,19.19,0,38.38.01,57.57-.03,1.23,0,1.77.37,2.1,1.52.7,2.43,1.54,4.82,2.4,7.47Z"/>
      <path class="cls-6" d="m170.78,128.48c4.33,5.13,8.57,10.17,12.82,15.2,5.41,6.42,10.89,12.78,16.23,19.26,5.95,7.21,7.37,15.37,3.92,24.01-3.46,8.67-10.2,13.53-19.44,14.68-10.58,1.32-21.17-5.51-24.52-15.62-4.54-13.73-9.07-27.47-13.6-41.2q-.71-2.17-3.01-1.83c-20.65,3.07-40.99-7.82-49.79-26.66-13.13-28.12,3.74-60.97,34.22-66.62,25.64-4.76,50.62,12.48,55.07,38.23,2.48,14.34-1.06,27.25-10.26,38.58-.5.62-1.02,1.21-1.65,1.97Zm3.63-32.18c.17-20.94-16.94-38.08-38.17-38.24-20.7-.15-38.13,16.91-38.29,37.48-.17,21.41,16.59,38.78,37.59,38.96,21.48.18,38.7-16.74,38.87-38.2Zm-10.28,38.31c-3.4,1.91-6.62,3.71-9.9,5.55.04.14.09.39.17.64,4.68,14.24,9.32,28.49,14.08,42.7,2.18,6.51,9.81,10.47,16.62,8.86,10.83-2.57,14.97-15.19,7.77-23.72-4.59-5.44-9.18-10.88-13.77-16.32-5-5.92-10-11.84-14.96-17.71Z"/>
      <path class="cls-6" d="m136.25,111.23c6.17,0,12.33,0,18.5,0,1.81,0,3.36.53,4.39,2.1,1.96,3-.09,6.78-3.81,6.99-1.38.08-2.76.02-4.14.02-11.16,0-22.32,0-33.48,0-3.26,0-5.4-2.05-5.17-4.9.2-2.5,2.12-4.19,4.91-4.2,6.27-.03,12.54,0,18.82,0Z"/>
      <path class="cls-6" d="m136.23,72.26c6.22,0,12.43,0,18.65,0,2.97,0,4.92,1.75,4.95,4.41.03,2.76-1.89,4.54-4.98,4.54-12.49.01-24.97.01-37.46,0-2.95,0-4.9-1.83-4.89-4.49,0-2.66,1.98-4.46,4.92-4.46,6.27,0,12.54,0,18.81,0Z"/>
      <path class="cls-6" d="m136.07,100.77c-6.16,0-12.33.01-18.49,0-2.59,0-4.36-1.21-4.91-3.24-.8-2.97,1.26-5.77,4.41-5.78,12.75-.03,25.51-.03,38.26,0,2.5,0,4.4,1.9,4.49,4.26.1,2.56-1.56,4.47-4.15,4.71-.95.09-1.91.05-2.87.05-5.58,0-11.16,0-16.74,0Z"/>
    </g>
  </g>
  <rect class="cls-8" x="1.36" y="1.36" width="271.79" height="271.79" rx="33.97" ry="33.97"/>
  <g>
    <text class="cls-5" transform="translate(62.79 235.72)"><tspan class="cls-2" x="0" y="0">A</tspan><tspan class="cls-4" x="16.77" y="0">uditi</tspan><tspan class="cls-1" x="70.38" y="0">n</tspan><tspan class="cls-4" x="85.73" y="0">g</tspan><tspan class="cls-7" x="99.33" y="0"> </tspan><tspan class="cls-4" x="105.92" y="0">a</tspan><tspan class="cls-3" x="119.15" y="0">n</tspan><tspan class="cls-4" x="134.5" y="0">d</tspan><tspan class="cls-7" x="148.92" y="0"> </tspan><tspan class="cls-4" x="-3.12" y="28.84">Digitalization</tspan><tspan class="cls-7" x="152.04" y="28.84"> </tspan></text>
    <g>
      <path class="cls-6" d="m148.83,176.57c-.63,0-.95,0-1.26,0-20.68,0-41.36.03-62.04-.02-7.76-.02-14.12-4.92-16.05-12.31-.43-1.67-.54-3.46-.54-5.2-.03-30.56-.02-61.13-.02-91.69,0-11.96-.01-23.92,0-35.88.01-9.07,5.48-15.57,14.37-17.1.88-.15,1.8-.14,2.7-.14,33.7,0,67.41-.01,101.11,0,9.39,0,16.54,6.99,16.81,16.39.02.64.01,1.28.01,1.91,0,40.45,0,80.9,0,121.35v2.34c-1.4-1.63-2.52-2.92-3.63-4.23-1.44-1.7-2.83-3.46-4.33-5.11-.77-.85-1.05-1.71-1.05-2.85.03-37.31.02-74.63.02-111.94,0-5.98-2.91-8.88-8.91-8.88-33.12,0-66.24,0-99.36,0-2.36,0-4.54.39-6.33,2.06-1.56,1.46-2.3,3.28-2.44,5.37-.04.53-.02,1.06-.02,1.59,0,42.15,0,84.3,0,126.45,0,5.97,2.95,8.94,8.88,8.94,19.19,0,38.38.01,57.57-.03,1.23,0,1.77.37,2.1,1.52.7,2.43,1.54,4.82,2.4,7.47Z"/>
      <path class="cls-6" d="m170.78,128.48c4.33,5.13,8.57,10.17,12.82,15.2,5.41,6.42,10.89,12.78,16.23,19.26,5.95,7.21,7.37,15.37,3.92,24.01-3.46,8.67-10.2,13.53-19.44,14.68-10.58,1.32-21.17-5.51-24.52-15.62-4.54-13.73-9.07-27.47-13.6-41.2q-.71-2.17-3.01-1.83c-20.65,3.07-40.99-7.82-49.79-26.66-13.13-28.12,3.74-60.97,34.22-66.62,25.64-4.76,50.62,12.48,55.07,38.23,2.48,14.34-1.06,27.25-10.26,38.58-.5.62-1.02,1.21-1.65,1.97Zm3.63-32.18c.17-20.94-16.94-38.08-38.17-38.24-20.7-.15-38.13,16.91-38.29,37.48-.17,21.41,16.59,38.78,37.59,38.96,21.48.18,38.7-16.74,38.87-38.2Zm-10.28,38.31c-3.4,1.91-6.62,3.71-9.9,5.55.04.14.09.39.17.64,4.68,14.24,9.32,28.49,14.08,42.7,2.18,6.51,9.81,10.47,16.62,8.86,10.83-2.57,14.97-15.19,7.77-23.72-4.59-5.44-9.18-10.88-13.77-16.32-5-5.92-10-11.84-14.96-17.71Z"/>
      <path class="cls-6" d="m136.25,111.23c6.17,0,12.33,0,18.5,0,1.81,0,3.36.53,4.39,2.1,1.96,3-.09,6.78-3.81,6.99-1.38.08-2.76.02-4.14.02-11.16,0-22.32,0-33.48,0-3.26,0-5.4-2.05-5.17-4.9.2-2.5,2.12-4.19,4.91-4.2,6.27-.03,12.54,0,18.82,0Z"/>
      <path class="cls-6" d="m136.23,72.26c6.22,0,12.43,0,18.65,0,2.97,0,4.92,1.75,4.95,4.41.03,2.76-1.89,4.54-4.98,4.54-12.49.01-24.97.01-37.46,0-2.95,0-4.9-1.83-4.89-4.49,0-2.66,1.98-4.46,4.92-4.46,6.27,0,12.54,0,18.81,0Z"/>
      <path class="cls-6" d="m136.07,100.77c-6.16,0-12.33.01-18.49,0-2.59,0-4.36-1.21-4.91-3.24-.8-2.97,1.26-5.77,4.41-5.78,12.75-.03,25.51-.03,38.26,0,2.5,0,4.4,1.9,4.49,4.26.1,2.56-1.56,4.47-4.15,4.71-.95.09-1.91.05-2.87.05-5.58,0-11.16,0-16.74,0Z"/>
    </g>
  </g>
</svg>