<?xml version="1.0" encoding="UTF-8"?><svg id="Layer_1" xmlns="http://www.w3.org/2000/svg" viewBox="0 0 273.67 273.35"><defs><style>.cls-1{fill:#f37979;}.cls-2{stroke:#9bc2be;stroke-miterlimit:10;stroke-width:3.16px;}.cls-2,.cls-3{fill:#9bc2be;}.cls-3{font-family:Roboto-Bold, Roboto;font-size:24.03px;font-weight:700;}</style></defs><rect class="cls-1" width="273.67" height="273.35" rx="24.45" ry="24.45"/><g><text class="cls-3" transform="translate(61.52 231.46)"><tspan x="0" y="0">Ch6.Structure</tspan><tspan x="20.08" y="28.84">Blueprints</tspan></text><g><path class="cls-2" d="M185.6,137.58c0-4.43,.07-8.63-.03-12.82-.06-2.4-1.82-4.18-4.15-4.49-.55-.07-1.11-.04-1.66-.04-28.54,0-57.07,0-85.61,0-4.23,0-5.84,1.68-5.84,6.11,0,3.56,.01,7.12,.02,10.68,0,.11,.06,.22,.16,.56,.53,0,1.12,0,1.72,0,5.88,0,11.77-.02,17.65,0,8.16,.03,13.83,5.93,13.87,14.5,.05,8.87,.05,17.75,0,26.62-.05,8.49-5.71,14.38-13.78,14.39-16.21,.03-32.42,.03-48.63,0-8.12-.01-13.78-5.98-13.82-14.56-.04-8.81-.05-17.63,0-26.44,.05-8.53,5.77-14.52,13.87-14.56,5.88-.03,11.77,0,17.65,0,.6,0,1.19,0,1.98,0,0-4.3-.04-8.43,.01-12.56,.07-5.22,2.22-9.31,6.35-12.2,2.32-1.62,4.92-2.35,7.71-2.34,12.32,0,24.65,0,36.97,0,.66,0,1.33,0,2.12,0v-20.16c-.53-.03-1.11-.08-1.69-.08-6,0-11.99,.06-17.99-.03-6.75-.1-11.81-4.29-13.28-10.93-.27-1.23-.33-2.54-.33-3.82-.02-16.81,.1-33.63-.06-50.44-.08-9.08,6.87-14.96,14.14-14.85,16.04,.25,32.09,.23,48.13,0,7.04-.1,14.05,5.63,13.99,14.64-.11,16.93,0,33.86-.04,50.79-.02,8.84-5.73,14.76-14.17,14.78-5.77,.01-11.55,0-17.32,0-.59,0-1.19,0-1.86,0v20.09h2.01c12.27,0,24.54,0,36.81,0,8.37,0,14.38,6.31,14.39,15.09,0,3.95,0,7.91,0,12.05,.77,0,1.37,0,1.97,0,5.88,0,11.77-.02,17.65,0,8.05,.03,13.79,5.9,13.87,14.35,.09,8.93,.09,17.86,0,26.79-.08,8.48-5.77,14.36-13.83,14.37-16.21,.03-32.42,.03-48.63,0-8.07-.01-13.72-5.92-13.77-14.41-.05-8.93-.05-17.86,0-26.8,.05-8.36,5.75-14.27,13.71-14.32,5.88-.03,11.77,0,17.65,0,.6,0,1.21,0,2.05,0Zm-48.74-57.25c8.05,0,16.09,0,24.14,0,3.23,0,4.67-1.5,4.67-4.89,0-16.8,0-33.61,0-50.41,0-3.49-1.45-5.02-4.73-5.02-15.98,0-31.96,0-47.94,0-3.3,0-4.75,1.52-4.75,5,0,16.8,0,33.61,0,50.41,0,3.41,1.43,4.91,4.64,4.91,7.99,0,15.98,0,23.97,0Zm53.23,102.97c7.99,0,15.99,0,23.98,0,3.45,0,4.89-1.48,4.9-5.03,0-8.64,0-17.28,0-25.92,0-3.43-1.4-4.91-4.65-4.91-16.04-.01-32.09-.01-48.13,0-3.26,0-4.64,1.48-4.64,4.92,0,8.64,0,17.28,0,25.92,0,3.49,1.45,5.02,4.73,5.03,7.94,0,15.88,0,23.82,0Zm-106.41-35.87c-7.99,0-15.98,0-23.97,0-3.4,0-4.77,1.43-4.77,4.95,0,8.63,0,17.27,0,25.9,0,3.41,1.52,4.97,4.81,4.97,15.92,0,31.84,0,47.77,0,3.39,0,4.86-1.54,4.86-5.1,0-8.52,0-17.03,0-25.55,0-3.79-1.31-5.17-4.9-5.18-7.93,0-15.87,0-23.8,0Z"/><path class="cls-2" d="M136.86,43.78c-3.88,0-7.77,.01-11.65,0-3.08-.01-5.18-1.97-5.22-4.85-.05-2.94,1.91-5.04,5.01-5.06,7.99-.06,15.98-.07,23.97,0,3.09,.03,5.04,2.15,4.98,5.09-.06,2.86-2.16,4.8-5.26,4.82-3.94,.02-7.88,0-11.82,0Z"/><path class="cls-2" d="M136.97,56.8c3.99,0,7.99-.01,11.98,0,2.95,.01,4.97,2.01,4.99,4.86,.01,2.85-2.04,4.94-4.93,4.94-8.04,.02-16.09,.02-24.13,0-2.89,0-4.92-2.11-4.9-4.97,.02-2.8,2.01-4.81,4.84-4.83,4.05-.03,8.1,0,12.15,0Z"/><path class="cls-2" d="M190.26,160.51c4,0,8,0,11.99,0,2.94,0,4.98,2.02,4.99,4.87,0,2.86-2.03,4.91-4.94,4.92-8,.01-15.99,.01-23.99,0-2.9,0-5-2.07-5.01-4.87-.01-2.81,2.08-4.9,4.97-4.91,4-.01,8,0,11.99,0Z"/><path class="cls-2" d="M83.5,170.3c-3.99,0-7.98,.01-11.97,0-2.87-.01-4.89-2.12-4.86-4.99,.04-2.77,2.06-4.79,4.87-4.8,8.03-.01,16.07-.01,24.1,0,2.87,0,4.97,2.1,4.97,4.9,0,2.79-2.11,4.88-4.98,4.89-4.04,.01-8.09,0-12.13,0Z"/></g></g></svg>