<?xml version="1.0" encoding="UTF-8"?><svg id="Layer_1" xmlns="http://www.w3.org/2000/svg" viewBox="0 0 274.5 274.5"><defs><style>.cls-1{fill:#fee6a7;stroke:#c5c8d9;stroke-miterlimit:10;stroke-width:2.72px;}.cls-2{fill:#9bc1bd;stroke-width:0px;}</style></defs><rect class="cls-1" x="1.36" y="1.36" width="271.79" height="271.79" rx="33.97" ry="33.97"/><path class="cls-2" d="m60,63.62c13.42,14.61,23.79,30.7,30.89,48.33,1.75,4.34,3.38,8.75,4.47,13.23,1.34,5.48-1.33,13.63-11.12,15.77-17.23,3.77-41.02-1.63-48.49-22.32-5.21-14.43-8.06-29.08-8.31-44.16-.11-7.06-.2-14.13-.54-21.19-.29-6.02-2.02-11.8-4.93-17.29-.23-.44-.4-.9-.8-1.83,6.29,1.6,12.19,2.97,17.99,4.6,19.48,5.47,37.84,12.91,54.14,23.8,13.89,9.28,25.59,20.23,32.43,34.45,2.27,4.72,3.72,9.85,4.62,14.92,1.41,7.93-2.86,13.92-10.93,17.26-4.57,1.89-5.66,3.79-4.99,8.16,1.87,12.28,2.87,24.66,4.22,37,.02.2.12.4.25.81,5.86,0,11.74,0,17.63,0,8.31,0,12.43,3.55,12.43,10.74,0,19.05,0,38.09,0,57.14,0,7.23-4.09,10.8-12.35,10.8-6.07,0-12.14.01-18.21,0-6.91-.02-11.27-3.71-11.28-9.68-.03-19.77.01-39.54-.03-59.3,0-3.54,1.56-6.23,4.87-8.28.66-.41,1.26-1.34,1.28-2.04.96-36.26-11.13-68.73-37.78-96.88-4.73-4.99-9.9-9.67-14.87-14.49-.2.15-.4.31-.59.46Z"/><path class="cls-2" d="m253.33,205.5c0,12.63,0,25.25,0,37.88,0,6.77-4.23,10.46-11.98,10.46-6.15,0-12.31.01-18.46,0-7.08-.02-11.39-3.72-11.39-9.79,0-25.69,0-51.37,0-77.06,0-6.22,4.26-9.9,11.49-9.93,6.24-.02,12.47-.02,18.71,0,7.27.03,11.62,3.82,11.63,10.13.01,12.77,0,25.54,0,38.31Z"/><path class="cls-2" d="m152.79,44.16c-4.87,5.87-10.15,11.52-14.5,17.67-4.36,6.16-7.79,12.82-11.46,18.98-4.99-5.16-10.34-10.69-15.86-16.41,2.74-4.78,6.52-9.31,10.9-13.47,12.79-12.13,28.72-20.1,46.15-26.02,4.36-1.48,8.82-2.72,13.88-4.28-4.89,9.82-3.56,19.48-3,29.09.68,11.61-.74,23-4.43,34.19-5.16,15.67-23.48,19.51-35.27,16.56-1.04-.26-2.09-1.29-2.59-2.19-1.55-2.78-2.9-5.65-4.17-8.53-.38-.86-.53-1.94-.3-2.83,3.71-14.42,10.41-27.73,19.83-40.02.55-.71,1.09-1.43,1.63-2.15-.27-.2-.54-.4-.81-.6Z"/><path class="cls-2" d="m127.21,166.02c-1.04-9.4-2.02-18.51-3.08-27.61-.15-1.29.4-1.93,1.5-2.83,3.9-3.17,7.73-2.14,11.58-.23,5.11,2.53,8.22,6.36,9.46,11.38.18.72,1.05,1.63,1.85,1.88,5.43,1.76,10.91,3.43,16.43,4.98.88.25,2.31.01,3.05-.49,5.23-3.52,10.96-4.55,17.37-3.18.82.18,2.14-.08,2.73-.58,8.31-6.97,16.56-13.99,24.74-21.08.65-.56.96-1.76.83-2.59-1.04-6.62,1.07-12.22,7.3-16.25,6.28-4.08,13.23-4.55,20.17-1.41,6.87,3.11,10.29,8.32,10.16,15-.19,10.45-11.93,18.08-23.54,15.42-1.65-.38-2.67-.15-3.87.89-7.95,6.87-16.02,13.65-23.96,20.53-.72.62-1.26,1.88-1.08,2.71,1.85,8.8-4.6,17.4-14.62,19.3-9.94,1.88-19.86-3.4-22.38-12.07-.41-1.4-1.08-2.05-2.56-2.48-5.5-1.6-10.99-3.23-16.44-4.96-1.42-.45-2.37-.31-3.58.49-3.46,2.29-7.39,3.44-12.05,3.17Z"/><path class="cls-2" d="m201.03,223.59c0,6.92.02,13.84,0,20.76-.02,5.63-4.45,9.45-10.99,9.48-6.56.03-13.13.03-19.7,0-6.61-.03-11.13-3.91-11.14-9.64-.04-13.77-.04-27.54,0-41.31.02-5.64,4.53-9.54,10.96-9.56,6.65-.03,13.3-.02,19.94,0,6.52.02,10.9,3.83,10.92,9.51.03,6.92,0,13.84,0,20.76Z"/><path class="cls-2" d="m96.71,228.21c0,5.41.02,10.82,0,16.23-.03,5.37-4.48,9.33-10.64,9.38-6.82.06-13.63.06-20.45,0-6.3-.06-10.74-4.01-10.75-9.52-.03-10.82-.03-21.64,0-32.46.02-5.62,4.51-9.44,11.03-9.46,6.65-.02,13.3-.02,19.95,0,6.35.02,10.82,3.88,10.85,9.38.03,5.48,0,10.96,0,16.44Z"/><path class="cls-2" d="m102.85,152.63c.34,5.18.7,9.85.9,14.52.02.58-.76,1.23-1.27,1.78-.24.25-.71.36-1.1.48-4.09,1.26-6.58,3.12-7.77,7.35-2.64,9.37-14.78,14-25.02,10.32-10.16-3.65-14.65-13.98-9.78-22.51,4.92-8.62,17.29-11.79,26.74-6.72,1.64.88,2.81.94,4.48.19,4.03-1.82,8.16-3.45,12.82-5.4Z"/></svg>