<?xml version="1.0" encoding="UTF-8"?>
<svg id="Layer_1" data-name="Layer 1" xmlns="http://www.w3.org/2000/svg" viewBox="0 0 274.97 274.5">
  <defs>
    <style>
      .cls-1 {
        font-family: Roboto-Bold, Roboto;
        font-size: 22.77px;
        font-weight: 700;
      }

      .cls-1, .cls-2 {
        fill: #9bc2be;
      }

      .cls-3 {
        fill: #7c9194;
        stroke: #173158;
        stroke-miterlimit: 10;
        stroke-width: 2.72px;
      }

      .cls-2 {
        stroke-width: 0px;
      }
    </style>
  </defs>
  <rect class="cls-3" x="1.82" y="1.36" width="271.79" height="271.79" rx="33.97" ry="33.97"/>
  <g>
    <text class="cls-1" transform="translate(84.57 221.07)"><tspan x="0" y="0">Cities and </tspan><tspan x="-16.42" y="27.32">Digitalization</tspan></text>
    <g>
      <path class="cls-2" d="m135.63,108.52c0,28.05,0,56.1,0,84.15,0,2.17-.02,2.2-1.67,2.2-11.89,0-23.79,0-35.68,0-1.38,0-1.58-.25-1.58-2.06,0-56.25,0-112.51,0-168.76,0-1.83.19-2.08,1.57-2.08,11.98,0,23.96,0,35.93,0,1.35,0,1.43.11,1.43,1.95,0,28.2,0,56.4,0,84.61Zm-22.86,2.14c0-1.92-.03-3.85.01-5.77.02-1.07-.3-1.52-1.08-1.52-2.54.02-5.07.01-7.61,0-.73,0-1.1.42-1.1,1.42,0,3.89,0,7.77,0,11.66,0,.93.3,1.37,1.03,1.37,2.59-.02,5.18-.02,7.78,0,.74,0,.99-.45.98-1.39-.03-1.92,0-3.85,0-5.77Zm0-29.31c0-1.96-.02-3.92,0-5.89.01-.98-.31-1.36-1.01-1.35-2.56.02-5.13.02-7.69,0-.76,0-1.08.44-1.08,1.42,0,3.85,0,7.7,0,11.55,0,.97.3,1.48,1.05,1.48,2.59,0,5.18,0,7.77,0,.66,0,.97-.4.96-1.32-.02-1.96,0-3.92,0-5.89Zm16.74.02c0-1.96-.02-3.92,0-5.88.01-.96-.26-1.38-.99-1.37-2.56.02-5.13.03-7.69,0-.75,0-1.1.42-1.1,1.4,0,3.89,0,7.77,0,11.66,0,.91.33,1.4,1.03,1.4,2.59,0,5.18,0,7.77,0,.72,0,.99-.47.97-1.42-.03-1.92,0-3.85,0-5.77Zm0,29.28c0-1.92-.03-3.85.01-5.77.02-1.08-.3-1.52-1.08-1.51-2.53.01-5.07.01-7.6,0-.74,0-1.1.47-1.1,1.44,0,3.89,0,7.77,0,11.66,0,.92.32,1.36,1.04,1.36,2.59-.03,5.18-.02,7.77,0,.67,0,.98-.35.96-1.28-.03-1.96,0-3.92,0-5.89Zm-16.74,58.49c0-1.92-.02-3.85,0-5.77.01-.96-.27-1.37-1-1.37-2.59.02-5.18.02-7.77,0-.73,0-1.01.48-1.01,1.39,0,3.89,0,7.77,0,11.66,0,.94.36,1.4,1.04,1.4,2.59,0,5.18,0,7.77,0,.7,0,.99-.47.97-1.43-.03-1.96-.01-3.92-.01-5.89Zm16.74.13c0-1.96-.02-3.92,0-5.88.01-.94-.23-1.39-.97-1.38-2.59.02-5.18.02-7.77,0-.67,0-1.02.37-1.03,1.25,0,3.96,0,7.92,0,11.88,0,.8.33,1.3.94,1.3,2.65.02,5.29.02,7.94,0,.6,0,.91-.42.89-1.29-.03-1.96,0-3.92,0-5.88Zm-16.74-29.31c0-1.96-.02-3.92,0-5.89.01-.89-.21-1.31-.92-1.3-2.62.03-5.24.03-7.86,0-.69,0-.99.37-.99,1.26,0,3.92,0,7.85,0,11.77,0,.89.33,1.26,1,1.26,2.62-.03,5.24-.02,7.86,0,.65,0,.92-.35.91-1.21-.02-1.96,0-3.92,0-5.89Zm16.74-87.82c0-1.96-.03-3.92.01-5.89.02-1.05-.3-1.39-1.05-1.38-2.56.04-5.13.04-7.69,0-.74-.01-1.03.42-1.04,1.34,0,3.89,0,7.77,0,11.66,0,.85.26,1.3.97,1.29,2.62-.03,5.24-.03,7.86,0,.69,0,.96-.33.95-1.26-.03-1.92,0-3.85,0-5.77Zm-16.74-.04c0-2-.01-4,0-6,0-.87-.26-1.22-.91-1.22-2.62.02-5.24.03-7.86,0-.68,0-1,.37-1,1.26,0,3.92,0,7.85,0,11.77,0,.88.3,1.27.99,1.26,2.62-.03,5.24-.03,7.86,0,.72,0,.94-.4.93-1.29-.03-1.92,0-3.85,0-5.77Zm16.74,87.93c0-2-.02-4,0-6,.01-.93-.26-1.27-.95-1.26-2.59.03-5.18.04-7.78,0-.79-.01-1.06.46-1.06,1.42,0,3.81,0,7.62,0,11.44,0,.95.26,1.45,1.05,1.44,2.59-.04,5.18-.03,7.78,0,.68,0,.97-.32.96-1.26-.03-1.92,0-3.85,0-5.77Z"/>
      <path class="cls-2" d="m179.92,124.41c0,22.87,0,45.75,0,68.62,0,1.91-.11,2.06-1.54,2.06-11.95,0-23.9,0-35.84,0-1.4,0-1.52-.17-1.52-2.09,0-24.8,0-49.6-.01-74.4,0-1,.2-1.79.67-2.58,10.09-17.11,20.17-34.25,30.24-51.38,1.97-3.35,3.93-6.71,5.91-10.04.36-.61.64-1.61,1.43-1.26.8.36.66,1.36.66,2.22,0,22.95,0,45.9,0,68.85Zm-21-11.45h0c0-3.28,0-6.57,0-9.85,0-.84-.2-1.59-.84-1.92-.64-.33-1.08.14-1.45.76-3.38,5.66-6.74,11.33-10.14,16.96-.68,1.13-.94,2.34-.88,3.77.07,1.68.39,2.16,1.62,2.16,3.27,0,6.54,0,9.8,0,1.56,0,1.88-.41,1.89-2.49,0-3.13,0-6.26,0-9.4Zm10.29-5.34c1.75,0,3.49.01,5.24,0,.98-.01,1.39-.55,1.4-1.86.02-2.79.01-5.58,0-8.38,0-1.29-.42-1.9-1.38-1.91-3.49-.03-6.99-.03-10.48,0-.97,0-1.3.55-1.31,1.83,0,2.83,0,5.66,0,8.49,0,1.35.36,1.82,1.38,1.83,1.72.01,3.44,0,5.15,0Zm.04,5.23c-1.8,0-3.6,0-5.4,0-.89,0-1.17.36-1.17,1.55-.01,2.9,0,5.81,0,8.71,0,1.23.35,1.72,1.27,1.73,3.52.02,7.03.01,10.55,0,.93,0,1.34-.55,1.35-1.8.02-2.83.02-5.65,0-8.48,0-1.26-.35-1.7-1.27-1.7-1.77,0-3.55,0-5.32,0Zm-.01,17.22c-1.74,0-3.49,0-5.23,0-1.07,0-1.33.35-1.33,1.82,0,2.79,0,5.58,0,8.37,0,1.31.34,1.8,1.29,1.81,3.52.01,7.03.01,10.55,0,.93,0,1.32-.55,1.32-1.82.01-2.83.02-5.65,0-8.48,0-1.23-.37-1.69-1.29-1.69-1.77,0-3.55,0-5.32,0Zm0,17.22c-1.74,0-3.49,0-5.23,0-1.04,0-1.32.36-1.32,1.72,0,2.83,0,5.65,0,8.48,0,1.32.33,1.79,1.3,1.79,3.52.01,7.04.01,10.55,0,.91,0,1.31-.5,1.31-1.7.02-2.86.02-5.73,0-8.59,0-1.23-.37-1.69-1.29-1.69-1.77-.01-3.55,0-5.32,0Zm-16.94,0c-1.77,0-3.55,0-5.32,0-.98,0-1.34.44-1.35,1.73-.02,2.83-.02,5.65,0,8.48,0,1.29.39,1.78,1.34,1.78,3.52.01,7.03.01,10.55,0,.93,0,1.25-.45,1.25-1.72,0-2.86,0-5.73,0-8.59,0-1.33-.26-1.67-1.25-1.68-1.74,0-3.49,0-5.23,0Zm16.97,29.21c1.74,0,3.49,0,5.23,0,.96,0,1.34-.49,1.35-1.77.02-2.83.02-5.65,0-8.48,0-1.27-.38-1.74-1.35-1.74-3.52,0-7.03,0-10.55,0-.96,0-1.26.41-1.27,1.68,0,2.83,0,5.65,0,8.48,0,1.39.32,1.82,1.36,1.83,1.74,0,3.49,0,5.23,0Zm-17.03-34.43c1.72,0,3.44,0,5.16,0,1.08,0,1.39-.44,1.39-1.91,0-2.79,0-5.59,0-8.38,0-1.36-.25-1.7-1.23-1.71-3.55,0-7.1,0-10.65,0-.88,0-1.26.44-1.27,1.61-.02,2.87-.02,5.74,0,8.61.01,1.27.41,1.77,1.36,1.78,1.75.01,3.49,0,5.24,0Zm-.05,22.44c-1.75,0-3.49,0-5.24,0-.93,0-1.3.44-1.31,1.68-.03,2.87-.03,5.74,0,8.61.01,1.21.41,1.7,1.32,1.7,3.52,0,7.04.01,10.57,0,.95,0,1.26-.44,1.26-1.7,0-2.87,0-5.74,0-8.61,0-1.29-.29-1.67-1.27-1.68-1.78-.01-3.55,0-5.33,0Zm23.65-83.55h0c0-2.49,0-4.98,0-7.46,0-.83-.25-1.61-.86-1.71-.41-.07-1.03.24-1.29.67-3.05,4.98-6.06,10.01-9.04,15.06-.26.45-.37,1.27-.28,1.83.14.82.75.86,1.31.86,2.84-.02,5.68,0,8.53,0,1.27,0,1.63-.48,1.64-2.23,0-2.34,0-4.67,0-7.01Z"/>
      <path class="cls-2" d="m184.62,168.43c0-8.3,0-16.61,0-24.91,0-1.71.14-1.91,1.39-1.91,12.28,0,24.57,0,36.85,0,1.26,0,1.53.36,1.53,2.06,0,16.53,0,33.06,0,49.59,0,1.72-.25,2.05-1.53,2.05-12.28,0-24.57,0-36.85,0-1.3,0-1.4-.13-1.4-1.87,0-8.34,0-16.68,0-25.02Zm28.79-8.96h0c1.75,0,3.5.02,5.24-.01,1.15-.02,1.51-.55,1.51-2.07,0-2.68,0-5.36,0-8.04,0-1.55-.34-2.02-1.52-2.02-3.47-.01-6.93-.01-10.4,0-1.21,0-1.59.55-1.6,2.21,0,2.53,0,5.06,0,7.59,0,1.81.39,2.33,1.77,2.35,1.66.02,3.33,0,4.99,0Zm-17.34-12.15c-1.8,0-3.61-.02-5.41,0-.99.02-1.39.57-1.4,1.87-.02,2.76-.02,5.51,0,8.27,0,1.38.39,1.97,1.43,1.98,3.55.04,7.1.04,10.65,0,1.05-.01,1.41-.58,1.41-1.96,0-2.72,0-5.44,0-8.15,0-1.54-.34-2-1.52-2.01-1.72-.02-3.44,0-5.16,0Zm-.05,29.17c1.83,0,3.66.01,5.49,0,.87,0,1.23-.49,1.23-1.65.01-2.87.01-5.73,0-8.6,0-1.21-.37-1.73-1.28-1.73-3.63-.01-7.26-.01-10.9,0-.89,0-1.29.52-1.3,1.73-.03,2.83-.02,5.66,0,8.49,0,1.28.4,1.76,1.35,1.77,1.8.01,3.6,0,5.41,0Zm17.39,0c1.8,0,3.61,0,5.41,0,.99,0,1.34-.45,1.34-1.74,0-2.83.01-5.66,0-8.49,0-1.26-.38-1.75-1.35-1.76-3.58-.01-7.15-.01-10.73,0-1.02,0-1.42.54-1.43,1.94-.01,2.72-.02,5.43,0,8.15,0,1.42.38,1.9,1.43,1.9,1.77,0,3.55,0,5.32,0Z"/>
      <path class="cls-2" d="m71.08,152.26c6.23,0,12.45,0,18.68,0,1.26,0,1.39.17,1.39,1.9,0,12.91,0,25.82,0,38.72,0,1.72-.2,1.98-1.46,1.98-3.66,0-7.33-.02-10.99.02-.74,0-.97-.28-.96-1.28.03-7.74.02-15.47.01-23.21,0-1.85-.3-2.25-1.68-2.25-3.41,0-6.82,0-10.23,0-1.43,0-1.76.46-1.77,2.43,0,7.62-.02,15.25.02,22.87,0,1.17-.25,1.47-1.1,1.45-3.52-.06-7.04-.02-10.57-.03-1.17,0-1.39-.3-1.39-1.84,0-12.98,0-25.97,0-38.95,0-1.62.15-1.81,1.36-1.81,6.23,0,12.45,0,18.68,0Z"/>
      <path class="cls-2" d="m71.16,147.29c-6.06,0-12.11,0-18.17,0-.2,0-.41.07-.59-.02-.37-.18-.9-.33-1.04-.71-.13-.35.04-1.09.25-1.48,1.42-2.58,2.88-5.12,4.33-7.67,4.69-8.25,9.39-16.49,14.09-24.74.89-1.56,1.26-1.56,2.17.01,6.22,10.77,12.44,21.53,18.64,32.32.23.4.46,1.26.33,1.45-.3.43-.82.78-1.26.79-6.25.05-12.51.03-18.76.03Z"/>
      <path class="cls-2" d="m204.34,137.13c-6.14,0-12.28,0-18.43,0-1.23,0-1.28-.07-1.28-1.74,0-2.83,0-5.66,0-8.49,0-1.67.11-1.82,1.34-1.82,11.52,0,23.05,0,34.57,0,.85,0,1.69,0,2.54,0,.96.01,1.16.26,1.16,1.51,0,3.02,0,6.04,0,9.06,0,1.32-.12,1.48-1.14,1.48-6.25,0-12.51,0-18.76,0Z"/>
    </g>
  </g>
</svg>