<?xml version="1.0" encoding="UTF-8"?>
<svg id="Layer_1" data-name="Layer 1" xmlns="http://www.w3.org/2000/svg" viewBox="0 0 274.5 274.5">
  <defs>
    <style>
      .cls-1 {
        fill: #7c9194;
        stroke: #173158;
        stroke-miterlimit: 10;
        stroke-width: 2.72px;
      }

      .cls-2 {
        fill: #9bc2be;
        stroke-width: 0px;
      }
    </style>
  </defs>
  <rect class="cls-1" x="1.36" y="1.36" width="271.79" height="271.79" rx="33.97" ry="33.97"/>
  <g>
    <path class="cls-2" d="m243.19,112.31c-1.54.07-3.08.22-4.62.2-2.31-.04-4.11-1.81-4.22-4-.1-2.16,1.62-4.14,3.9-4.31,4.48-.34,8.96-.67,13.45-.88,3.32-.16,4.85,1.39,5.05,4.69.23,3.9.57,7.78.81,11.68.22,3.63-1.12,5.65-3.81,5.86-2.7.21-4.28-1.62-4.53-5.24-.01-.22-.08-.43-.16-.85-.4.31-.77.51-1.01.81-31.85,40.26-71.92,69.89-118.34,91.26-28.62,13.17-58.47,22.68-89.15,29.63-5.95,1.35-11.93,2.52-17.9,3.76-2.69.56-4.95-.74-5.46-3.12-.52-2.39.99-4.43,3.73-5.03,1.43-.32,2.87-.62,4.42-.95,0-60.49,0-120.95,0-181.41-8.8-2.79-9.55-10.68-7.37-18.31,1.2-4.2,4.76-6.18,9.08-6.59.66-.06,1.33-.02,1.99-.02,41.85,0,83.71,0,125.56,0,7.71,0,11.91,4.17,11.86,11.87-.01,1.97-.09,4-.59,5.89-.88,3.39-3.15,5.32-7.65,7.12v4.22c.88,0,1.74,0,2.59,0,19.53,0,39.06.29,58.58-.12,10.09-.21,14.26,5.62,13.37,13.7-.24,2.14-.62,4.46-1.67,6.27-.97,1.67-2.73,3.2-4.5,3.98-1.88.83-2.18,1.82-2.18,3.62.06,15.25.04,30.5.04,45.75,0,.79,0,1.58,0,2.36.19.11.38.22.57.33,6.18-7.22,12.37-14.43,18.55-21.65-.12-.17-.25-.34-.37-.5Zm-101.62,84.11c2.35-1.25,4.17-2.35,6.1-3.2,1.63-.72,2.14-1.72,2.14-3.52-.06-44.2-.04-88.4-.04-132.61,0-.79,0-1.58,0-2.43H33.95v179.4c2.72-.62,5.28-1.2,7.98-1.81,0-.99,0-1.87,0-2.74,0-17.9,0-35.8,0-53.71,0-8.46,5.2-13.69,13.59-13.69,11.86,0,23.73,0,35.59,0s24.61,0,36.92,0c8.22,0,13.47,5.13,13.54,13.28.05,5.67,0,11.35.01,17.02,0,1.17,0,2.34,0,4.01Zm28.02-16.24c-1.16-3.16-2.85-5.88-3.04-8.7-.44-6.23-.4-12.52-.04-18.76.37-6.49,5.68-11.21,12.2-11.33,5.6-.1,11.2-.16,16.79.02,5.41.17,9.3,2.87,11.49,7.89.23.52.46,1.03.77,1.73,2.36-2.19,4.51-4.3,6.78-6.27,1.15-1,1.58-2.07,1.58-3.61-.05-18.41-.03-36.82-.03-55.24v-2.31h-57.84v103.64c4.17-2.59,8.06-5.01,11.35-7.05Zm-119.29,50.42c12.01-3.62,23.58-7.15,35.18-10.58,1.64-.48,2.09-1.27,2.09-2.94-.07-14.8-.04-29.59-.05-44.39,0-.7-.08-1.4-.13-2.24h-2.38c-9.65,0-19.29,0-28.94,0-4.45,0-5.77,1.32-5.77,5.79,0,17.15,0,34.3,0,51.46v2.89Zm45.74-14.56c.53-.05.77-.02.96-.1,11.64-4.89,23.29-9.76,34.89-14.75.65-.28,1.21-1.58,1.22-2.41.09-7.73.07-15.46.05-23.19-.01-3.74-1.46-5.13-5.28-5.13-9.94,0-19.88,0-29.82,0-.64,0-1.28.08-2.02.12v45.45Zm91.13-66.3c-2.5,0-5-.02-7.5,0-3.38.04-4.87,1.48-4.91,4.83-.05,3.75-.02,7.5,0,11.25,0,1.76-.09,3.55.12,5.29.36,2.93,2.58,3.89,4.9,2.16,5.65-4.22,11.19-8.61,16.92-12.72,2.33-1.67,3.09-3.59,2.82-6.31-.29-2.92-1.65-4.42-4.62-4.49-2.57-.06-5.15-.01-7.72-.01Z"/>
    <path class="cls-2" d="m137.36,83.38c0,2.87.02,5.74,0,8.61-.07,6.62-5.48,12.08-12.07,12.14-5.67.05-11.33.03-17,0-6.78-.03-12.27-5.32-12.41-12.07-.11-5.74-.1-11.48,0-17.22.11-6.64,5.5-12.06,12.12-12.18,5.74-.11,11.48-.1,17.22,0,6.77.12,12.09,5.59,12.15,12.34.02,2.8,0,5.59,0,8.39Zm-8.35.18c0-2.72.03-5.45,0-8.17-.04-2.65-1.58-4.34-4.21-4.38-5.45-.08-10.9-.08-16.34,0-2.51.04-4.18,1.69-4.22,4.2-.08,5.45-.08,10.89,0,16.34.04,2.63,1.72,4.21,4.36,4.23,5.37.04,10.75.04,16.12,0,2.69-.02,4.24-1.58,4.28-4.26.05-2.65.01-5.3.01-7.95Z"/>
    <path class="cls-2" d="m46.17,133.01c0-2.65-.05-5.3.01-7.95.18-7.41,5.15-12.45,12.54-12.59,5.45-.1,10.9-.1,16.35,0,6.77.12,11.87,4.36,12.38,11.06.49,6.37.47,12.82.04,19.19-.42,6.21-4.8,10.62-10.99,11.03-6.59.43-13.26.39-19.85-.12-5.96-.46-10.18-5.53-10.43-11.55-.13-3.01-.02-6.04-.02-9.06,0,0-.02,0-.03,0Zm20.89-12.18c-2.72,0-5.44-.04-8.16.01-2.88.05-4.3,1.47-4.32,4.38-.04,5.29-.04,10.59,0,15.88.02,2.77,1.41,4.38,4.11,4.43,5.51.11,11.03.11,16.55-.01,2.46-.05,4-1.62,4.05-4.1.11-5.51.12-11.03,0-16.54-.06-2.61-1.64-3.99-4.26-4.05-2.65-.06-5.3-.01-7.94-.01Z"/>
    <path class="cls-2" d="m137.36,133.33c0,2.58,0,5.16,0,7.74-.02,7.35-5.17,12.72-12.54,12.89-5.45.12-10.91.12-16.36,0-7.35-.17-12.57-5.57-12.61-12.89-.03-5.3-.03-10.61,0-15.91.04-7.14,5.16-12.51,12.27-12.68,5.67-.13,11.35-.13,17.02,0,7.14.16,12.19,5.5,12.21,12.68,0,2.73,0,5.45,0,8.18Zm-20.55-12.5c-2.72,0-5.45-.04-8.17.01-2.8.05-4.39,1.58-4.43,4.37-.06,5.3-.06,10.59,0,15.89.03,2.67,1.56,4.38,4.19,4.43,5.52.11,11.04.11,16.55-.01,2.58-.06,4.02-1.72,4.04-4.3.04-5.37.04-10.74,0-16.11-.02-2.71-1.52-4.21-4.24-4.27-2.65-.06-5.3-.01-7.95-.02Z"/>
    <path class="cls-2" d="m46.2,83.35c0-2.95-.11-5.9.02-8.84.3-6.55,5.44-11.69,11.96-11.84,5.82-.13,11.64-.13,17.46,0,6,.14,11.29,4.58,11.71,10.57.47,6.8.46,13.69-.02,20.49-.43,5.98-5.85,10.34-11.83,10.39-5.75.05-11.49.05-17.24,0-6.37-.06-11.68-5.12-12.01-11.5-.16-3.08-.03-6.18-.03-9.28,0,0-.01,0-.02,0Zm20.59,12.44c2.72,0,5.44.03,8.17,0,2.5-.04,4.2-1.37,4.26-3.82.15-5.66.14-11.32.02-16.98-.05-2.41-1.75-3.93-4.18-3.96-5.44-.07-10.89-.08-16.33,0-2.54.04-4.12,1.66-4.14,4.19-.06,5.44-.06,10.89,0,16.33.03,2.72,1.56,4.2,4.27,4.24,2.65.04,5.3,0,7.94,0Z"/>
    <path class="cls-2" d="m187.14,91.73c2.73,0,5.45-.03,8.18,0,6.84.09,12.05,4.67,12.42,11.52.34,6.17.32,12.38-.03,18.55-.37,6.52-5.6,11.27-12.13,11.42-5.67.13-11.35.14-17.02,0-6.53-.17-11.72-4.94-12.08-11.48-.34-6.17-.35-12.38,0-18.55.38-6.82,5.6-11.37,12.48-11.45,2.73-.03,5.45,0,8.18,0Zm.1,8.37c-2.72,0-5.44-.03-8.16,0-2.74.04-4.26,1.44-4.3,4.2-.08,5.44-.08,10.88,0,16.32.04,2.56,1.59,4.16,4.15,4.21,5.44.1,10.89.1,16.33,0,2.57-.04,4.15-1.63,4.19-4.18.08-5.51.09-11.03,0-16.54-.05-2.6-1.61-3.98-4.25-4.02-2.65-.04-5.3,0-7.94,0Z"/>
  </g>
</svg>