<svg xmlns="http://www.w3.org/2000/svg" xmlns:xlink="http://www.w3.org/1999/xlink" width="1366" zoomAndPan="magnify" viewBox="0 0 1024.5 399.74999" height="768" preserveAspectRatio="xMidYMid meet" version="1.0"><defs><g/><clipPath id="700d73f3f2"><path d="M 159 14 L 352 14 L 352 345 L 159 345 Z M 159 14 " clip-rule="nonzero"/></clipPath><clipPath id="c5aa08baea"><path d="M 131.671875 47.425781 L 296.941406 -16.089844 L 422.5 310.609375 L 257.230469 374.125 Z M 131.671875 47.425781 " clip-rule="nonzero"/></clipPath><clipPath id="39d5e15a10"><path d="M 131.671875 47.425781 L 296.941406 -16.089844 L 422.5 310.609375 L 257.230469 374.125 Z M 131.671875 47.425781 " clip-rule="nonzero"/></clipPath></defs><g clip-path="url(#700d73f3f2)"><g clip-path="url(#c5aa08baea)"><g clip-path="url(#39d5e15a10)"><path fill="#10321c" d="M 351.992188 124.101562 L 329.6875 122.828125 L 308.421875 120.964844 L 270.328125 142.542969 L 261.175781 118.722656 L 311.800781 105.324219 L 301.222656 65.816406 L 294.53125 58.28125 L 243.398438 72.472656 L 229.476562 36.25 C 232.304688 32.75 233.230469 27.808594 231.464844 23.210938 C 228.863281 16.441406 221.425781 13.011719 214.84375 15.539062 C 208.261719 18.070312 205.035156 25.597656 207.636719 32.367188 C 209.402344 36.957031 213.402344 40.015625 217.847656 40.71875 L 231.34375 75.839844 L 186.503906 88.292969 L 173.679688 103.601562 L 159.257812 119.203125 L 199.324219 135.101562 L 249.0625 121.941406 L 259.367188 148.757812 L 204.207031 180.003906 L 204.28125 180.140625 L 203.875 180.355469 L 202.648438 185.597656 L 226.636719 228.984375 L 278.707031 199.078125 L 334.625 344.578125 L 346.257812 340.109375 L 289.640625 192.796875 L 334.445312 167.070312 Z M 351.992188 124.101562 " fill-opacity="1" fill-rule="nonzero"/></g></g></g><g fill="#10321c" fill-opacity="1"><g transform="translate(22.7813, 351.183088)"><g><path d="M 108.609375 0 L 19.484375 0 L 19.484375 -154.765625 L 108.609375 -154.765625 L 108.609375 -127.875 L 52.296875 -127.875 L 52.296875 -93.890625 L 104.6875 -93.890625 L 104.6875 -67.015625 L 52.296875 -67.015625 L 52.296875 -27.09375 L 108.609375 -27.09375 Z M 108.609375 0 "/></g></g></g><g fill="#10321c" fill-opacity="1"><g transform="translate(144.174859, 351.183088)"><g><path d="M 65 2.109375 C 53.28125 2.109375 43.289062 -0.0195312 35.03125 -4.28125 C 26.78125 -8.550781 20.5 -15.164062 16.1875 -24.125 C 11.882812 -33.09375 9.734375 -44.566406 9.734375 -58.546875 C 9.734375 -73.003906 12.1875 -84.800781 17.09375 -93.9375 C 22 -103.082031 28.804688 -109.804688 37.515625 -114.109375 C 46.234375 -118.421875 56.347656 -120.578125 67.859375 -120.578125 C 76.046875 -120.578125 83.117188 -119.78125 89.078125 -118.1875 C 95.046875 -116.601562 100.25 -114.71875 104.6875 -112.53125 L 95.171875 -87.546875 C 90.085938 -89.585938 85.359375 -91.257812 80.984375 -92.5625 C 76.609375 -93.875 72.234375 -94.53125 67.859375 -94.53125 C 62.210938 -94.53125 57.519531 -93.207031 53.78125 -90.5625 C 50.039062 -87.914062 47.25 -83.945312 45.40625 -78.65625 C 43.570312 -73.363281 42.65625 -66.726562 42.65625 -58.75 C 42.65625 -50.914062 43.644531 -44.421875 45.625 -39.265625 C 47.601562 -34.117188 50.460938 -30.289062 54.203125 -27.78125 C 57.941406 -25.28125 62.492188 -24.03125 67.859375 -24.03125 C 74.554688 -24.03125 80.515625 -24.925781 85.734375 -26.71875 C 90.960938 -28.519531 96.046875 -31.046875 100.984375 -34.296875 L 100.984375 -6.671875 C 96.046875 -3.566406 90.875 -1.328125 85.46875 0.046875 C 80.070312 1.421875 73.25 2.109375 65 2.109375 Z M 65 2.109375 "/></g></g></g><g fill="#10321c" fill-opacity="1"><g transform="translate(255.619867, 351.183088)"><g><path d="M 124.484375 -59.390625 C 124.484375 -49.503906 123.160156 -40.75 120.515625 -33.125 C 117.867188 -25.507812 114.019531 -19.070312 108.96875 -13.8125 C 103.925781 -8.550781 97.859375 -4.582031 90.765625 -1.90625 C 83.679688 0.769531 75.691406 2.109375 66.796875 2.109375 C 58.472656 2.109375 50.832031 0.769531 43.875 -1.90625 C 36.925781 -4.582031 30.894531 -8.550781 25.78125 -13.8125 C 20.664062 -19.070312 16.710938 -25.507812 13.921875 -33.125 C 11.128906 -40.75 9.734375 -49.503906 9.734375 -59.390625 C 9.734375 -72.515625 12.0625 -83.628906 16.71875 -92.734375 C 21.382812 -101.835938 28.019531 -108.753906 36.625 -113.484375 C 45.238281 -118.210938 55.507812 -120.578125 67.4375 -120.578125 C 78.507812 -120.578125 88.332031 -118.210938 96.90625 -113.484375 C 105.488281 -108.753906 112.226562 -101.835938 117.125 -92.734375 C 122.03125 -83.628906 124.484375 -72.515625 124.484375 -59.390625 Z M 42.65625 -59.390625 C 42.65625 -51.617188 43.5 -45.085938 45.1875 -39.796875 C 46.882812 -34.503906 49.535156 -30.515625 53.140625 -27.828125 C 56.742188 -25.148438 61.4375 -23.8125 67.21875 -23.8125 C 72.9375 -23.8125 77.578125 -25.148438 81.140625 -27.828125 C 84.703125 -30.515625 87.3125 -34.503906 88.96875 -39.796875 C 90.632812 -45.085938 91.46875 -51.617188 91.46875 -59.390625 C 91.46875 -67.222656 90.632812 -73.734375 88.96875 -78.921875 C 87.3125 -84.109375 84.679688 -88.003906 81.078125 -90.609375 C 77.484375 -93.222656 72.796875 -94.53125 67.015625 -94.53125 C 58.472656 -94.53125 52.273438 -91.597656 48.421875 -85.734375 C 44.578125 -79.878906 42.65625 -71.097656 42.65625 -59.390625 Z M 42.65625 -59.390625 "/></g></g></g><g fill="#10321c" fill-opacity="1"><g transform="translate(389.819511, 351.183088)"><g><path d="M 68.90625 -154.765625 C 88.882812 -154.765625 103.457031 -150.476562 112.625 -141.90625 C 121.800781 -133.332031 126.390625 -121.53125 126.390625 -106.5 C 126.390625 -99.71875 125.363281 -93.238281 123.3125 -87.0625 C 121.269531 -80.894531 117.9375 -75.410156 113.3125 -70.609375 C 108.695312 -65.804688 102.539062 -62.007812 94.84375 -59.21875 C 87.15625 -56.4375 77.664062 -55.046875 66.375 -55.046875 L 52.296875 -55.046875 L 52.296875 0 L 19.484375 0 L 19.484375 -154.765625 Z M 67.21875 -127.875 L 52.296875 -127.875 L 52.296875 -81.9375 L 63.09375 -81.9375 C 69.226562 -81.9375 74.550781 -82.742188 79.0625 -84.359375 C 83.582031 -85.984375 87.078125 -88.523438 89.546875 -91.984375 C 92.023438 -95.441406 93.265625 -99.890625 93.265625 -105.328125 C 93.265625 -112.953125 91.144531 -118.613281 86.90625 -122.3125 C 82.675781 -126.019531 76.113281 -127.875 67.21875 -127.875 Z M 67.21875 -127.875 "/></g></g></g><g fill="#10321c" fill-opacity="1"><g transform="translate(525.924199, 351.183088)"><g><path d="M 65.421875 -120.78125 C 81.296875 -120.78125 93.46875 -117.320312 101.9375 -110.40625 C 110.40625 -103.488281 114.640625 -92.972656 114.640625 -78.859375 L 114.640625 0 L 92.09375 0 L 85.84375 -16.09375 L 85 -16.09375 C 81.613281 -11.851562 78.15625 -8.390625 74.625 -5.703125 C 71.101562 -3.023438 67.046875 -1.054688 62.453125 0.203125 C 57.867188 1.472656 52.296875 2.109375 45.734375 2.109375 C 38.742188 2.109375 32.476562 0.769531 26.9375 -1.90625 C 21.394531 -4.582031 17.035156 -8.691406 13.859375 -14.234375 C 10.691406 -19.773438 9.109375 -26.816406 9.109375 -35.359375 C 9.109375 -47.921875 13.515625 -57.179688 22.328125 -63.140625 C 31.148438 -69.109375 44.382812 -72.410156 62.03125 -73.046875 L 82.5625 -73.671875 L 82.5625 -78.859375 C 82.5625 -85.066406 80.9375 -89.617188 77.6875 -92.515625 C 74.445312 -95.410156 69.9375 -96.859375 64.15625 -96.859375 C 58.4375 -96.859375 52.820312 -96.046875 47.3125 -94.421875 C 41.8125 -92.796875 36.304688 -90.75 30.796875 -88.28125 L 20.109375 -110.09375 C 26.390625 -113.40625 33.425781 -116.015625 41.21875 -117.921875 C 49.019531 -119.828125 57.085938 -120.78125 65.421875 -120.78125 Z M 82.5625 -54.828125 L 70.078125 -54.40625 C 59.628906 -54.125 52.375 -52.253906 48.3125 -48.796875 C 44.257812 -45.335938 42.234375 -40.785156 42.234375 -35.140625 C 42.234375 -30.203125 43.679688 -26.691406 46.578125 -24.609375 C 49.472656 -22.523438 53.25 -21.484375 57.90625 -21.484375 C 64.820312 -21.484375 70.660156 -23.53125 75.421875 -27.625 C 80.179688 -31.71875 82.5625 -37.539062 82.5625 -45.09375 Z M 82.5625 -54.828125 "/></g></g></g><g fill="#10321c" fill-opacity="1"><g transform="translate(656.842971, 351.183088)"><g><path d="M 66.796875 -23.609375 C 70.328125 -23.609375 73.765625 -23.957031 77.109375 -24.65625 C 80.460938 -25.363281 83.800781 -26.25 87.125 -27.3125 L 87.125 -3.28125 C 83.664062 -1.726562 79.375 -0.441406 74.25 0.578125 C 69.132812 1.597656 63.546875 2.109375 57.484375 2.109375 C 50.421875 2.109375 44.082031 0.960938 38.46875 -1.328125 C 32.863281 -3.617188 28.457031 -7.601562 25.25 -13.28125 C 22.039062 -18.96875 20.4375 -26.890625 20.4375 -37.046875 L 20.4375 -94.109375 L 4.96875 -94.109375 L 4.96875 -107.765625 L 22.765625 -118.5625 L 32.078125 -143.546875 L 52.71875 -143.546875 L 52.71875 -118.34375 L 85.84375 -118.34375 L 85.84375 -94.109375 L 52.71875 -94.109375 L 52.71875 -37.046875 C 52.71875 -32.535156 54.003906 -29.164062 56.578125 -26.9375 C 59.148438 -24.71875 62.554688 -23.609375 66.796875 -23.609375 Z M 66.796875 -23.609375 "/></g></g></g><g fill="#10321c" fill-opacity="1"><g transform="translate(750.930925, 351.183088)"><g><path d="M 49.21875 -164.71875 L 49.21875 -131.15625 C 49.21875 -125.300781 49.023438 -119.726562 48.640625 -114.4375 C 48.253906 -109.144531 47.953125 -105.40625 47.734375 -103.21875 L 49.4375 -103.21875 C 51.976562 -107.300781 54.992188 -110.613281 58.484375 -113.15625 C 61.972656 -115.695312 65.832031 -117.566406 70.0625 -118.765625 C 74.300781 -119.972656 78.859375 -120.578125 83.734375 -120.578125 C 92.273438 -120.578125 99.71875 -119.078125 106.0625 -116.078125 C 112.414062 -113.078125 117.359375 -108.378906 120.890625 -101.984375 C 124.421875 -95.597656 126.1875 -87.328125 126.1875 -77.171875 L 126.1875 0 L 93.890625 0 L 93.890625 -69.125 C 93.890625 -77.59375 92.335938 -83.976562 89.234375 -88.28125 C 86.128906 -92.59375 81.332031 -94.75 74.84375 -94.75 C 68.351562 -94.75 63.234375 -93.25 59.484375 -90.25 C 55.742188 -87.25 53.097656 -82.835938 51.546875 -77.015625 C 49.992188 -71.191406 49.21875 -64.082031 49.21875 -55.6875 L 49.21875 0 L 16.9375 0 L 16.9375 -164.71875 Z M 49.21875 -164.71875 "/></g></g></g><g fill="#10321c" fill-opacity="1"><g transform="translate(893.385754, 351.183088)"><g><path d="M 99.5 -35.140625 C 99.5 -27.097656 97.609375 -20.304688 93.828125 -14.765625 C 90.054688 -9.222656 84.429688 -5.023438 76.953125 -2.171875 C 69.472656 0.679688 60.160156 2.109375 49.015625 2.109375 C 40.753906 2.109375 33.675781 1.578125 27.78125 0.515625 C 21.894531 -0.535156 15.953125 -2.296875 9.953125 -4.765625 L 9.953125 -31.4375 C 16.367188 -28.539062 23.265625 -26.15625 30.640625 -24.28125 C 38.015625 -22.414062 44.492188 -21.484375 50.078125 -21.484375 C 56.347656 -21.484375 60.84375 -22.414062 63.5625 -24.28125 C 66.28125 -26.15625 67.640625 -28.613281 67.640625 -31.65625 C 67.640625 -33.625 67.09375 -35.398438 66 -36.984375 C 64.90625 -38.578125 62.554688 -40.378906 58.953125 -42.390625 C 55.359375 -44.398438 49.71875 -47.03125 42.03125 -50.28125 C 34.613281 -53.382812 28.523438 -56.523438 23.765625 -59.703125 C 19.003906 -62.878906 15.472656 -66.632812 13.171875 -70.96875 C 10.878906 -75.3125 9.734375 -80.835938 9.734375 -87.546875 C 9.734375 -98.484375 13.984375 -106.722656 22.484375 -112.265625 C 30.992188 -117.804688 42.378906 -120.578125 56.640625 -120.578125 C 63.972656 -120.578125 70.972656 -119.832031 77.640625 -118.34375 C 84.316406 -116.863281 91.179688 -114.5 98.234375 -111.25 L 88.5 -87.96875 C 82.644531 -90.507812 77.125 -92.585938 71.9375 -94.203125 C 66.75 -95.828125 61.472656 -96.640625 56.109375 -96.640625 C 51.378906 -96.640625 47.8125 -96.003906 45.40625 -94.734375 C 43.007812 -93.472656 41.8125 -91.535156 41.8125 -88.921875 C 41.8125 -87.015625 42.425781 -85.316406 43.65625 -83.828125 C 44.894531 -82.347656 47.296875 -80.707031 50.859375 -78.90625 C 54.421875 -77.113281 59.660156 -74.804688 66.578125 -71.984375 C 73.285156 -69.234375 79.109375 -66.359375 84.046875 -63.359375 C 88.992188 -60.359375 92.804688 -56.648438 95.484375 -52.234375 C 98.160156 -47.828125 99.5 -42.128906 99.5 -35.140625 Z M 99.5 -35.140625 "/></g></g></g></svg>