<?xml version="1.0" encoding="UTF-8"?><svg id="Layer_1" xmlns="http://www.w3.org/2000/svg" viewBox="0 0 273.67 273.35"><defs><style>.cls-1{fill:#9bc1bd;}.cls-2{fill:#f37979;}.cls-3{fill:#9bc2be;font-family:Roboto-Bold, Roboto;font-size:24.03px;font-weight:700;}</style></defs><rect class="cls-2" width="273.67" height="273.35" rx="24.45" ry="24.45"/><g><text class="cls-3" transform="translate(29.23 253.59)"><tspan x="0" y="0">Internasjonalisering</tspan></text><g><path class="cls-1" d="M207.45,116.78c-.14,39.43-31.81,71.15-70.89,71.02-38.59-.13-70-32.15-69.83-71.18,.16-39.24,31.91-71.19,70.54-71,38.77,.2,70.32,32.19,70.18,71.16Zm-66.68,20.35c.47,.06,.73,.12,.98,.12,9.05,0,18.09-.02,27.14,.04,1.41,0,1.62-.78,1.75-1.8,.33-2.56,.68-5.11,.97-7.67,1.14-10.07,.67-20.07-1.1-30.04-.28-1.58-.87-2-2.41-1.99-8.46,.07-16.91,.03-25.37,.04-.63,0-1.26,.08-1.96,.12v41.17Zm-7.42-41.12c-.41-.09-.6-.16-.79-.16-9.05-.01-18.1,0-27.14-.04-1.21,0-1.51,.55-1.69,1.64-2.1,12.78-2.08,25.55-.01,38.33,.23,1.43,.85,1.65,2.07,1.65,8.65-.04,17.31-.02,25.96-.03,.51,0,1.01-.08,1.61-.13v-41.25Zm-36.51-.07c-.9-.05-1.54-.11-2.17-.11-5.11,0-10.22,.08-15.32-.05-1.66-.04-2.27,.6-2.72,2.07-3.54,11.74-3.69,23.53-.7,35.39,1.02,4.03,1.04,4.02,5.25,4.02h15.47c-2.1-13.86-2.24-27.53,.19-41.31Zm80.42-.12c2.42,13.91,2.39,27.57,.31,41.43,6.39,0,12.47,.02,18.56-.05,.43,0,1.09-.68,1.23-1.17,3.88-12.94,4-25.88-.09-38.81-.34-1.08-.87-1.42-1.96-1.41-4.13,.06-8.26,.02-12.38,.02-1.81,0-3.62,0-5.66,0Zm-36.46,48.72v35.63c12.07-1.76,23.54-17.32,27.63-35.63h-27.63Zm-35.1,0c.03,.46,0,.8,.09,1.11,2.22,7.79,5.25,15.21,9.99,21.82,3.27,4.55,7.12,8.49,12.2,10.96,1.65,.8,3.44,1.32,5.33,2.04v-35.92h-27.61Zm35.12-91.31v35.19h27.62c-.87-2.66-1.6-5.19-2.53-7.64-3.26-8.54-7.47-16.47-14.59-22.44-3.05-2.56-6.44-4.45-10.5-5.12Zm-7.48,.1c-.41,.04-.73,.03-1.03,.1-.7,.18-1.39,.36-2.07,.62-5.33,2-9.44,5.62-12.92,10.04-5.67,7.19-9.13,15.45-11.55,24.32h27.56V53.34Zm60.81,91.13c-5.54,0-10.66,.1-15.76-.05-1.87-.06-2.56,.55-3.03,2.33-2.74,10.25-6.99,19.78-13.72,28.05-.13,.16-.21,.38-.56,1.04,14.98-6.52,25.81-16.7,33.07-31.37Zm-81.37,30.85c-.17-.26-.31-.54-.51-.78-5.85-7.22-9.55-15.55-12.37-24.34-.6-1.87-.66-4.47-1.93-5.41-1.29-.96-3.77-.31-5.73-.32-3.9-.02-7.79,0-12.06,0,7.24,14.58,17.96,24.79,32.59,30.85Zm48.62-117.25c.92,1.2,1.86,2.39,2.74,3.61,5.49,7.64,8.97,16.22,11.42,25.25,.36,1.31,.9,1.67,2.14,1.62,2.29-.08,4.58-.02,6.87-.02,2.98,0,5.96,0,9.31,0-7.34-14.32-18.07-24.33-32.49-30.46Zm-80.94,30.46c5.65,0,10.88-.05,16.11,.03,1.39,.02,1.86-.46,2.2-1.79,2.51-9.59,6.35-18.57,12.43-26.46,.57-.74,1.14-1.48,1.71-2.22-14.48,6.03-25.13,16.12-32.45,30.44Z"/><path class="cls-1" d="M166.42,32.82c-6.33,.02-11.43-5.03-11.46-11.34-.04-6.3,5.05-11.54,11.26-11.62,6.09-.08,11.45,5.27,11.49,11.44,.04,6.32-5.03,11.5-11.29,11.52Z"/><path class="cls-1" d="M121.48,213.09c-.02,6.18-5.01,11.24-11.09,11.25-6.24,0-11.64-5.22-11.64-11.28,0-6.37,5.2-11.71,11.42-11.7,6.24,0,11.33,5.28,11.32,11.74Z"/><path class="cls-1" d="M85.76,212.84c-5.74-.02-10.21-4.68-10.15-10.59,.06-5.64,4.58-10.12,10.2-10.14,5.91-.01,10.48,4.58,10.46,10.52-.02,5.78-4.59,10.22-10.51,10.2Z"/><path class="cls-1" d="M189.99,22.1c5.7,.01,10.19,4.59,10.15,10.35-.05,5.61-4.6,10.19-10.16,10.22-5.63,.04-10.24-4.62-10.24-10.33,0-5.75,4.5-10.25,10.25-10.24Z"/><path class="cls-1" d="M209.01,58.31c-5.21-.11-9.03-4.21-8.9-9.55,.12-5.09,4.28-9.16,9.28-9.1,5.11,.06,9.25,4.32,9.19,9.44-.07,5.25-4.31,9.32-9.57,9.21Z"/><path class="cls-1" d="M75.44,186.34c0,5.09-4.28,9.43-9.23,9.38-5.07-.05-9.27-4.43-9.23-9.63,.04-5.12,4.14-9.02,9.47-9.01,5.04,.01,8.99,4.09,8.99,9.26Z"/><path class="cls-1" d="M216.63,70c0-4.61,3.54-8.17,8.08-8.14,4.46,.03,8.12,3.8,8.04,8.26-.08,4.46-3.64,7.98-8.06,7.99-4.6,0-8.06-3.48-8.05-8.12Z"/><path class="cls-1" d="M42.4,165.69c0-4.58,3.49-8.12,8.09-8.17,4.47-.05,8.03,3.5,8,7.98-.03,4.54-3.74,8.35-8.07,8.31-4.36-.04-8.01-3.73-8.02-8.12Z"/><path class="cls-1" d="M41.05,134.17c3.84-.03,7.03,3.15,7.04,7.03,0,3.75-3.15,7.02-6.84,7.06-3.85,.05-7.05-3.09-7.1-6.97-.06-3.9,3.03-7.09,6.9-7.12Z"/><path class="cls-1" d="M233.74,87.67c3.8,.04,6.85,3.21,6.75,7.03-.1,3.83-3.24,6.91-7,6.83-3.75-.07-6.85-3.32-6.76-7.09,.09-3.86,3.15-6.82,7.01-6.78Z"/><path class="cls-1" d="M38.07,121.04c-3.25-.01-5.85-2.53-5.87-5.68-.03-3.3,2.63-6.07,5.77-6.04,3.19,.03,5.86,2.63,5.91,5.73,.05,3.27-2.6,6-5.81,5.99Z"/><path class="cls-1" d="M241.87,120.43c.03,3.26-2.46,5.83-5.65,5.83-3.08,0-5.67-2.54-5.71-5.61-.05-3.1,2.65-5.88,5.72-5.89,3.11,0,5.61,2.51,5.65,5.66Z"/><path class="cls-1" d="M236.28,146.39c-.05,2.55-2.35,4.81-4.85,4.77-2.54-.04-4.74-2.34-4.7-4.91,.04-2.61,2.27-4.79,4.83-4.74,2.56,.05,4.77,2.34,4.72,4.88Z"/><path class="cls-1" d="M42.18,94.08c-2.67,.03-4.74-1.88-4.81-4.43-.08-2.7,1.97-4.83,4.63-4.82,2.68,.01,4.69,1.95,4.69,4.53,0,2.66-1.94,4.7-4.51,4.72Z"/></g></g></svg>