<?xml version="1.0" encoding="UTF-8"?><svg id="Layer_1" xmlns="http://www.w3.org/2000/svg" viewBox="0 0 273.67 273.35"><defs><style>.cls-1,.cls-2{fill:#9bc2be;}.cls-3{fill:#f37979;}.cls-2{font-family:Roboto-Bold, Roboto;font-size:24.03px;font-weight:700;}</style></defs><rect class="cls-3" width="273.67" height="273.35" rx="24.45" ry="24.45"/><g><text class="cls-2" transform="translate(53.47 240.76)"><tspan x="0" y="0">Ch9. Databases</tspan></text><g><path class="cls-1" d="M133.73,148.92v-22.45c-3.97-.28-7.89-.46-11.78-.85-9.64-.95-19.11-2.55-27.89-6.6-1.1-.51-2.13-1.13-3.14-1.79-2.14-1.4-3.27-3.19-3.16-5.77,.18-4.54,.05-9.1,.05-13.65,0-.54,.05-1.09,.06-1.29,4.61,1.68,9.13,3.57,13.81,5,7.09,2.16,14.46,3.29,21.91,3.64,7.55,.35,15.15,.6,22.7,.3,11.59-.46,23.01-2.12,33.78-6.43,2.07-.83,4.02-1.9,6.27-2.97,0,1.67,0,3.23,0,4.8,0,3.7-.07,7.4,.03,11.09,.06,2.01-.66,3.72-2.43,4.69-3.26,1.77-6.57,3.6-10.1,4.8-8.36,2.85-17.14,3.97-26,4.55-2.39,.15-4.79,.28-7.33,.42v22.51c.65,0,1.36,0,2.07,0,22.98,0,45.96,0,68.95,0,3.87,0,4.8,.85,4.8,4.41,0,6.66,.03,13.31-.02,19.97,0,1.12,.27,1.65,1.55,2.04,7.44,2.24,11.69,8.83,10.49,16.04-1.07,6.45-7.6,11.66-14.7,11.76-7.92,.1-14.33-4.69-15.8-11.79-1.42-6.91,3.16-13.8,10.68-16.15,.54-.17,1.32-.79,1.32-1.2,.08-6.25,.06-12.5,.06-18.89h-69.46c-.03,.51-.09,1.06-.09,1.6,0,5.52,.03,11.04-.03,16.55-.01,1.21,.35,1.73,1.66,2.13,6.91,2.12,11.43,8.63,10.51,14.94-1.01,6.95-6.83,12.29-13.92,12.77-7.76,.52-14.44-3.77-16.44-10.57-2.14-7.27,2.28-14.75,10.14-17.28,.6-.19,1.45-.84,1.46-1.28,.1-6.25,.07-12.5,.07-18.88H64.34c-.03,.47-.1,.97-.1,1.46,0,5.57,.02,11.15-.03,16.72,0,1.09,.19,1.65,1.51,2.04,7.31,2.15,11.69,8.7,10.63,15.66-.98,6.48-7.27,11.87-14.16,12.14-7.99,.32-14.54-4.19-16.29-11.21-1.75-7.02,2.72-14.26,10.34-16.57,1.23-.37,1.61-.84,1.6-2.01-.06-6.66-.03-13.31-.03-19.97,0-3.59,.92-4.45,4.76-4.45,22.92,0,45.84,0,68.76,0h2.38Zm3.3-29.99s0,0,0,0c1.35,0,2.71,.07,4.05-.02,1.81-.12,3.02-1.32,3.02-2.86,0-1.45-1.14-2.76-2.85-2.84-2.81-.13-5.65-.13-8.46,.02-1.69,.09-2.8,1.46-2.74,2.91,.06,1.48,1.21,2.63,2.93,2.75,1.34,.09,2.7,.02,4.05,.02Z"/><path class="cls-1" d="M137.32,20.16c12.57,.11,25.23,1.13,37.36,5.19,2.69,.9,5.24,2.21,7.78,3.46,.95,.47,1.78,1.23,2.52,1.97,1.81,1.83,1.9,3.87,0,5.62-1.37,1.26-3.01,2.36-4.72,3.21-6.41,3.18-13.4,4.71-20.52,5.8-10.92,1.66-21.91,2.11-32.94,1.34-10.52-.73-20.92-2.1-30.65-6.13-2.27-.94-4.48-2.18-6.39-3.65-2.71-2.09-2.63-4.49-.05-6.72,3.37-2.91,7.61-4.34,11.89-5.61,11.54-3.42,23.45-4.41,35.72-4.49Z"/><path class="cls-1" d="M87.8,69.61c14.02,7.45,29.16,9.12,44.54,9.62,14.03,.45,27.94-.52,41.41-4.47,4.24-1.24,8.26-3.11,12.5-4.74,.02,.31,.07,.89,.07,1.48,0,4.55-.1,9.1,.05,13.65,.08,2.5-1.01,4.25-3.09,5.63-4.48,2.97-9.61,4.56-14.86,5.8-12.2,2.88-24.62,3.68-37.16,3.23-10.24-.37-20.38-1.42-30.1-4.55-3.56-1.15-6.95-2.83-10.27-4.52-2.23-1.14-3.2-3.08-3.13-5.58,.14-5.11,.04-10.22,.04-15.54Zm49.1,22.96c1.29,0,2.58,.03,3.87,0,1.95-.06,3.36-1.36,3.31-2.98-.04-1.56-1.4-2.8-3.27-2.84-2.52-.05-5.04-.05-7.56,0-1.85,.04-3.21,1.32-3.22,2.88-.01,1.56,1.34,2.85,3.17,2.93,1.23,.06,2.46,.01,3.69,.01Z"/><path class="cls-1" d="M87.81,43.03c5.94,3.57,12.19,5.52,18.68,6.87,12.37,2.58,24.9,3.41,37.57,2.85,9.43-.42,18.78-1.33,27.81-3.91,4.89-1.39,9.57-3.38,14.38-5.12,0,.07,.08,.55,.08,1.03,0,4.72-.07,9.44,.04,14.15,.05,2.14-.79,3.72-2.53,5.02-3.32,2.46-7.2,3.89-11.19,5.07-11.48,3.39-23.31,4.46-35.29,4.47-12.17,0-24.22-.95-35.83-4.52-3.52-1.08-6.89-2.68-10.17-4.32-2.53-1.26-3.73-3.34-3.61-6.22,.21-4.99,.06-9.99,.06-15.38Zm49.3,17.33s0,0,0,0c-1.35,0-2.71-.07-4.05,.02-1.74,.11-2.91,1.21-3.01,2.69-.1,1.44,.99,2.87,2.67,2.96,2.87,.16,5.77,.16,8.64,.02,1.69-.08,2.8-1.47,2.74-2.91-.06-1.47-1.23-2.63-2.94-2.75-1.34-.09-2.7-.02-4.05-.02Z"/></g></g></svg>