<?xml version="1.0" encoding="UTF-8"?><svg id="Layer_1" xmlns="http://www.w3.org/2000/svg" viewBox="0 0 273.67 273.35"><defs><style>.cls-1,.cls-2{fill:#9bc2be;}.cls-3{fill:#f37979;}.cls-2{font-family:Roboto-Bold, Roboto;font-size:24.03px;font-weight:700;}</style></defs><rect class="cls-3" width="273.67" height="273.35" rx="24.45" ry="24.45"/><g><text class="cls-2" transform="translate(43.99 235.34)"><tspan x="0" y="0">Ch7. Deployment</tspan></text><g><path class="cls-1" d="M45.22,118.32c.02-50.49,40.98-91.44,91.48-91.47,50.46-.04,91.45,40.92,91.52,91.43,.07,50.51-41.12,91.7-91.57,91.57-50.58-.14-91.45-41.05-91.43-91.53Zm67.11-20.49c-1.93-1.98-3.83-3.8-5.57-5.76-.47-.52-.76-1.51-.64-2.19,.63-3.6-1.48-6.56-5.18-7.01-3.19-.39-6,2.07-6.29,5.5-.27,3.27,2.52,6.57,5.81,6.04,2.46-.39,3.56,.79,4.9,2.17,1.19,1.22,2.37,2.47,3.64,3.61,.87,.78,.97,1.38,.39,2.47-1.08,2.03-2.05,4.16-2.76,6.35-.75,2.28-1.16,4.68-1.74,7.12-2.76,0-5.51,.04-8.25-.04-.46-.01-1.03-.5-1.32-.93-1.64-2.38-4.03-3.37-6.65-2.64-2.34,.65-4.06,2.98-4.06,5.5,0,2.52,1.68,4.78,4.06,5.49,2.6,.77,4.97-.2,6.65-2.59,.32-.46,.97-.96,1.49-.98,2.32-.11,4.65-.11,6.96,.01,.47,.03,1.24,.75,1.28,1.2,.44,4.57,1.79,8.84,4.06,12.8,.58,1.01,.41,1.58-.37,2.33-1.91,1.81-3.76,3.67-5.58,5.57-.68,.71-1.26,1.02-2.35,.77-2.14-.49-4.14,0-5.62,1.8-1.75,2.11-1.84,5.17-.24,7.3,1.64,2.18,4.62,2.97,7.05,1.86,2.5-1.14,3.74-3.67,3.28-6.5-.1-.59-.12-1.45,.22-1.82,2.11-2.27,4.33-4.43,6.61-6.72,6.54,7.72,14.73,11.7,24.62,11.7,9.89,0,18.01-4.15,24.44-11.52,.26,.13,.39,.16,.47,.24,1.87,1.85,3.68,3.75,5.61,5.54,.91,.85,1.13,1.65,.87,2.87-.62,2.88,1.2,5.66,4.05,6.49,2.87,.83,5.98-.73,7-3.51,1.67-4.52-1.82-8.54-6.71-7.8-.6,.09-1.46-.04-1.87-.42-2.1-1.96-4.13-3.99-6.09-6.09-.35-.37-.49-1.36-.25-1.8,2.26-4.06,3.69-8.36,4.01-13,.07-1.01,.45-1.38,1.47-1.35,2.14,.06,4.28-.07,6.41,.07,.69,.05,1.55,.53,1.97,1.09,1.43,1.94,3.25,2.98,5.65,2.68,2.51-.31,4.42-2.22,4.67-4.47,.35-3.08-1.12-5.67-3.75-6.61-2.42-.87-5.15,.03-6.66,2.15-.36,.5-.84,1.28-1.3,1.29-2.91,.12-5.82,.06-8.47,.06-.65-2.78-1.05-5.33-1.87-7.73-.84-2.45-2.09-4.76-3.24-7.29,1.92-1.9,3.94-3.85,5.9-5.85,.73-.75,1.33-1.1,2.51-.82,2.59,.6,5.08-.77,6.23-3.1,1.14-2.31,.74-5.06-1-6.78-1.78-1.76-4.72-2.19-6.96-1.02-2.25,1.18-3.31,3.65-2.84,6.37,.1,.58,.05,1.41-.29,1.8-1.91,2.11-3.93,4.12-5.92,6.18-13.18-14.65-35.26-14.78-48.49-.04Z"/><path class="cls-1" d="M153.21,109.97c-.56,.8-.94,1.92-1.7,2.34-4.59,2.5-9.24,4.89-13.94,7.18-.69,.34-1.86,.25-2.59-.11-4.36-2.15-8.65-4.46-12.99-6.66-1.24-.63-2.12-1.41-2.11-2.89,0-1.59,1-2.29,2.34-2.89,4.28-1.9,8.48-3.97,12.77-5.83,.79-.35,1.99-.38,2.77-.04,4.41,1.9,8.73,3.99,13.11,5.96,1.22,.55,2.04,1.3,2.35,2.94Z"/><path class="cls-1" d="M153.16,118.56c-.34,.43-.82,1.53-1.66,1.99-4.48,2.46-9.01,4.81-13.61,7.04-.78,.38-2.1,.27-2.92-.13-4.32-2.1-8.54-4.41-12.84-6.55-1.35-.67-2.18-1.58-2.11-3.09,.09-1.71,1.4-2.49,2.76-3.09,.34-.15,.94,.09,1.35,.29,3.31,1.68,6.63,3.34,9.89,5.11,1.66,.9,3.14,.93,4.82,0,3.31-1.81,6.67-3.53,10.05-5.21,1.62-.81,4.18,1.06,4.27,3.64Z"/><path class="cls-1" d="M153.13,126.89c-.36,.42-.9,1.47-1.75,1.93-4.43,2.42-8.91,4.75-13.46,6.96-.79,.38-2.1,.29-2.91-.1-4.32-2.11-8.54-4.42-12.84-6.57-1.35-.67-2.2-1.56-2.14-3.07,.06-1.72,1.39-2.49,2.73-3.13,.34-.16,.94,.05,1.34,.26,3.36,1.71,6.72,3.44,10.06,5.21,1.59,.85,3.06,.82,4.67-.06,3.31-1.81,6.68-3.52,10.05-5.21,1.68-.84,4.32,1.15,4.26,3.78Z"/></g></g></svg>