<?xml version="1.0" encoding="UTF-8"?><svg id="Layer_1" xmlns="http://www.w3.org/2000/svg" viewBox="0 0 273.67 273.35"><defs><style>.cls-1,.cls-2{fill:#9bc2be;}.cls-3{fill:#f37979;}.cls-2{font-family:Roboto-Bold, Roboto;font-size:24.03px;font-weight:700;}</style></defs><rect class="cls-3" width="273.67" height="273.35" rx="24.45" ry="24.45"/><g><text class="cls-2" transform="translate(95.25 224.75)"><tspan x="0" y="0">Midway</tspan><tspan x="-20.77" y="28.84">Conference</tspan></text><g><path class="cls-1" d="M45.79,110.49h16.01c1.11,9.28,3.6,18.15,7.95,26.51,4.88-1.43,9.68-1.66,14.52-.44,13.75,3.47,22.16,17.48,18.67,31.24-.4,1.57-.13,2.24,1.36,2.94,7.8,3.65,15.97,5.95,24.64,6.97v16.25c-3.51-.56-6.96-1-10.36-1.67-8.65-1.71-16.86-4.7-24.64-8.85-.79-.42-1.36-.44-2.16,.05-15.86,9.7-35.45,1.37-39.32-16.78-1.4-6.57-.17-12.8,3.32-18.51,.75-1.23,.65-2.04,.03-3.22-5.51-10.47-8.76-21.64-10.01-33.39-.04-.33,0-.67,0-1.1Z"/><path class="cls-1" d="M128.99,11.11V27.13c-9.24,1.09-18.05,3.58-26.32,7.86,.33,2.18,.8,4.3,.95,6.44,1.23,17.65-14.93,31.17-32.08,26.83-1.5-.38-2.07-.03-2.69,1.27-3.71,7.85-6.03,16.08-7.03,24.82h-16.29c.7-4.1,1.23-8.12,2.08-12.07,1.73-8,4.54-15.62,8.44-22.82,.5-.92,.46-1.57-.1-2.47-9.69-15.64-1.03-35.64,17.03-39.26,6.51-1.3,12.67-.09,18.33,3.38,1.13,.69,1.9,.74,3.07,.12,10.5-5.58,21.71-8.83,33.51-10.11,.33-.04,.67,0,1.09,0Z"/><path class="cls-1" d="M145.04,27.14V10.96c2.95,.42,5.83,.72,8.66,1.24,9.24,1.71,18.04,4.72,26.32,9.19,.85,.46,1.46,.48,2.32-.05,15.75-9.72,35.48-1.26,39.28,16.88,1.37,6.57,.12,12.8-3.38,18.5-.72,1.18-.63,1.95-.04,3.07,5.55,10.52,8.81,21.74,10.06,33.56,.03,.28,0,.57,0,.99h-15.6c-1.33-5.39-2.48-10.7-3.99-15.91-.89-3.06-2.38-5.95-3.52-8.95-.49-1.29-1.11-1.61-2.54-1.24-14.21,3.62-28.24-4.89-31.65-19.17-1.03-4.32-.86-8.66,.3-12.95,.09-.32,.15-.65,.24-1.08-8.31-4.3-17.12-6.81-26.49-7.91Z"/><path class="cls-1" d="M145.1,177.73c6.43-.8,12.69-2.15,18.69-4.51,1.97-.78,3.89-1.69,5.86-2.46,1.07-.42,1.26-.91,.9-2.06-3.39-10.62-.14-21.64,8.56-28.45,7.2-5.64,15.31-6.96,24.03-4.29,1.19,.36,1.66,.22,2.2-.93,3.64-7.75,5.9-15.88,6.9-24.51h16.3c-.72,4.15-1.3,8.22-2.15,12.23-1.73,8.12-4.69,15.81-8.56,23.16-.3,.57-.3,1.58,0,2.15,8.32,15.83-.31,34.36-17.81,37.99-6.01,1.25-11.76,.24-17.15-2.67-.98-.53-1.67-.54-2.66,0-10.63,5.71-21.99,9.08-33.97,10.36-.34,.04-.68,0-1.15,0v-16.02Z"/></g></g></svg>