<?xml version="1.0" encoding="UTF-8"?>
<svg id="Layer_1" data-name="Layer 1" xmlns="http://www.w3.org/2000/svg" viewBox="0 0 274.5 274.5">
  <defs>
    <style>
      .cls-1 {
        fill: #7c9194;
        stroke: #173158;
        stroke-miterlimit: 10;
        stroke-width: 2.72px;
      }

      .cls-2 {
        font-family: Roboto-Bold, Roboto;
        font-size: 24.03px;
        font-weight: 700;
      }

      .cls-2, .cls-3 {
        fill: #9bc2be;
      }

      .cls-3 {
        stroke-width: 0px;
      }
    </style>
  </defs>
  <rect class="cls-1" x="1.36" y="1.36" width="271.79" height="271.79" rx="33.97" ry="33.97"/>
  <g>
    <text class="cls-2" transform="translate(75.17 223)"><tspan x="0" y="0">Energy and </tspan><tspan x="-11.05" y="28.84">Digitalization </tspan></text>
    <g>
      <path class="cls-3" d="m135.41,49.06c29.16.06,52.57,23.55,52.51,52.69-.05,29.01-23.65,52.58-52.66,52.46-29.55-.13-53.12-24.23-52.45-53.85.65-28.6,24.08-51.39,52.59-51.3Zm-8.16,26.13c-9.61,2.49-20.71,13.38-19.14,29.13,1.37,13.79,14.08,24.84,28.15,24.3,14.64-.56,26.32-12.39,26.53-27.02.1-7-2.22-13.21-6.86-18.48-3.33-3.78-7.38-6.49-12.38-8.04-.04.6-.09,1.02-.09,1.44,0,2.45.05,4.91-.03,7.36-.03,1.01.34,1.54,1.18,2.06,5.16,3.19,8.1,7.86,8.58,13.89.92,11.47-8.98,20.72-20.37,19.01-7.48-1.12-12.51-5.49-14.57-12.73-2.1-7.34.03-13.65,5.78-18.7,1.04-.91,2.57-1.57,3.09-2.7.54-1.18.13-2.79.14-4.22,0-1.73,0-3.46,0-5.31Zm12.07,3.67c0-2.89.01-5.78,0-8.67-.01-2.31-1.7-4.07-3.89-4.08-2.26-.01-4.02,1.74-4.03,4.09-.02,5.74-.02,11.48,0,17.22,0,2.28,1.9,4.18,4.04,4.13,2.12-.05,3.87-1.9,3.88-4.14.02-2.85,0-5.7,0-8.55Z"/>
      <path class="cls-3" d="m211.38,96.86c3.64,0,7.28,0,10.92,0,2.63,0,4.55,1.8,4.57,4.26.02,2.44-1.89,4.35-4.5,4.36-7.32.03-14.63.03-21.95,0-2.67,0-4.62-1.94-4.58-4.42.04-2.44,1.98-4.21,4.63-4.21,3.64,0,7.28,0,10.92,0Z"/>
      <path class="cls-3" d="m59.43,96.86c3.64,0,7.28,0,10.92,0,2.66,0,4.55,1.78,4.55,4.26,0,2.48-1.86,4.35-4.49,4.36-7.36.03-14.71.03-22.07,0-2.56-.01-4.53-2.02-4.48-4.4.05-2.36,2.03-4.21,4.53-4.22,3.68-.01,7.36,0,11.04,0Z"/>
      <path class="cls-3" d="m131.06,177.08c0-3.56,0-7.12,0-10.68,0-2.82,1.78-4.75,4.34-4.75,2.54,0,4.29,1.94,4.29,4.78,0,7.28,0,14.56,0,21.84,0,2.07-1.23,3.67-3.16,4.24-1.71.51-3.69-.12-4.66-1.73-.48-.8-.76-1.84-.78-2.78-.09-3.64-.04-7.28-.04-10.92Z"/>
      <path class="cls-3" d="m139.69,25.27c0,3.6,0,7.2,0,10.8,0,2.64-1.8,4.61-4.22,4.63-2.5.03-4.4-1.9-4.41-4.57-.02-7.28-.02-14.56,0-21.83,0-2.71,1.86-4.63,4.35-4.62,2.51.01,4.27,1.93,4.28,4.68,0,3.64,0,7.28,0,10.92Z"/>
      <path class="cls-3" d="m92.47,21.32c1.09.03,2.37.7,3.22,2.19,3.68,6.42,7.37,12.82,11.05,19.24,1.25,2.18.59,4.82-1.45,6-2.1,1.22-4.73.46-6.01-1.76-3.69-6.41-7.39-12.81-11.05-19.24-1.68-2.95.33-6.44,4.24-6.43Z"/>
      <path class="cls-3" d="m187.27,68.9c.03-1.66.69-2.95,2.18-3.8,6.42-3.67,12.82-7.37,19.24-11.05,2.16-1.24,4.83-.57,6,1.46,1.2,2.09.5,4.69-1.67,5.94-6.43,3.72-12.87,7.44-19.33,11.12-2.97,1.69-6.42-.31-6.41-3.67Z"/>
      <path class="cls-3" d="m83.47,133.43c0,1.68-.69,2.95-2.18,3.8-6.41,3.68-12.82,7.38-19.23,11.05-2.17,1.24-4.79.58-5.99-1.47-1.2-2.04-.48-4.7,1.66-5.94,6.44-3.72,12.87-7.43,19.33-11.12,2.95-1.68,6.42.34,6.41,3.67Z"/>
      <path class="cls-3" d="m107.62,157.49c-.26.73-.42,1.52-.79,2.18-3.67,6.46-7.36,12.91-11.06,19.36-1.15,1.99-3.79,2.71-5.79,1.6-1.95-1.07-2.84-3.7-1.75-5.64,3.76-6.68,7.58-13.34,11.42-19.98.93-1.61,3.07-2.29,4.9-1.73,1.79.55,2.9,2.13,3.08,4.21Z"/>
      <path class="cls-3" d="m163.12,44.84c.24-.7.39-1.45.74-2.08,3.69-6.5,7.4-12.98,11.12-19.46,1.14-1.98,3.81-2.69,5.8-1.6,1.93,1.05,2.82,3.71,1.72,5.66-3.76,6.68-7.58,13.34-11.42,19.98-.94,1.63-2.93,2.26-4.77,1.73-1.85-.53-3.04-2.15-3.21-4.23Z"/>
      <path class="cls-3" d="m167.65,153.09c1.65-.03,2.91.64,3.73,2.07,3.73,6.48,7.46,12.95,11.16,19.44,1.01,1.77.74,3.73-.59,5.15-1.24,1.33-3.32,1.73-5.01.81-.69-.38-1.38-.99-1.77-1.66-3.77-6.45-7.5-12.92-11.18-19.43-1.7-3,.3-6.4,3.67-6.38Z"/>
      <path class="cls-3" d="m191.73,128.96c.66.22,1.38.33,1.98.67,6.53,3.7,13.06,7.43,19.56,11.18,1.99,1.15,2.65,3.82,1.53,5.81-1.11,1.97-3.78,2.77-5.77,1.63-6.56-3.73-13.11-7.48-19.66-11.25-1.69-.97-2.44-3.03-1.89-4.93.54-1.86,2.12-2.98,4.25-3.12Z"/>
      <path class="cls-3" d="m83.44,69.03c0,3.21-3.42,5.32-6.24,3.74-6.58-3.7-13.13-7.46-19.67-11.23-2.07-1.19-2.72-3.91-1.54-5.9,1.16-1.95,3.78-2.68,5.81-1.53,6.53,3.71,13.04,7.45,19.56,11.18,1.45.83,2.05,2.12,2.07,3.74Z"/>
    </g>
  </g>
</svg>