<?xml version="1.0" encoding="UTF-8"?><svg id="Layer_1" xmlns="http://www.w3.org/2000/svg" viewBox="0 0 273.67 273.35"><defs><style>.cls-1,.cls-2{fill:#9bc2be;}.cls-3{fill:#f37979;}.cls-4{letter-spacing:0em;}.cls-2{font-family:Roboto-Bold, Roboto;font-size:24.03px;font-weight:700;}</style></defs><rect class="cls-3" width="273.67" height="273.35" rx="24.45" ry="24.45"/><g><text class="cls-2" transform="translate(41 234.31)"><tspan x="0" y="0">App D</tspan><tspan class="cls-4" x="64.83" y="0">e</tspan><tspan x="77.67" y="0">velopment</tspan></text><g><path class="cls-1" d="M157.51,171.41c.67,10.96,2.93,21.24,6.56,31.18,.21,.58,1.14,1.19,1.76,1.22,2.73,.13,5.47,.04,8.21,.06,2.07,.02,3.13,.92,3.04,2.67-.1,2.12-1.42,2.6-3.12,2.6-24.76-.01-49.53,0-74.29-.01-2.09,0-3.09-.9-3.08-2.64,0-1.73,1.01-2.59,3.11-2.61,2.6-.02,5.2,.05,7.8-.05,.54-.02,1.31-.43,1.55-.9,2.94-5.88,6.72-24.2,6.53-31.51h-2.4c-19.22,0-38.45-.1-57.67,.07-4.64,.04-8.67-2.95-8.65-9.2,.14-41.29,.14-82.59,0-123.88-.02-6.29,4.03-9.27,8.57-9.26,54.32,.12,108.64,.12,162.95,0,4.49,0,8.49,3.05,8.47,9.15-.14,41.29-.14,82.59,0,123.88,.02,6.44-4.04,9.36-8.76,9.32-19.36-.18-38.72-.07-58.08-.07h-2.49Zm-33.74-23.89c.05-.66,.14-1.24,.14-1.82,0-12.63,.04-25.26-.06-37.89,0-.95-.73-2.17-1.46-2.79-13.36-11.42-11.37-34.21,3.76-42.5,3.09-1.69,4.67-.67,4.69,3.08,.03,5.76-.05,11.52,.07,17.28,.02,.99,.58,2.3,1.29,2.89,4.65,3.83,4.67,3.75,9.47,.06,1-.77,1.36-1.59,1.35-2.91-.07-5.69-.03-11.37-.03-17.06,0-4.19,1.39-5.1,4.79-3.18,14.93,8.45,16.87,30.68,3.63,42.18-1.12,.98-1.6,1.9-1.59,3.47,.06,12.26,.03,24.52,.03,36.78v2.33h72.04v-1.74c0-35.89,0-71.79,0-107.68,0-2.92-.63-3.55-3.45-3.55-54.38,0-108.75,0-163.13,0-3.04,0-3.54,.54-3.54,3.89,0,35.6,0,71.2,0,106.8v2.36H123.77Zm98.11,5.53H51.78c0,2.95,0,5.74,0,8.54,0,4.18,.35,4.56,4.19,4.56,53.91,0,107.82,0,161.73,0,.62,0,1.24,.05,1.85-.02,1.39-.17,2.32-.93,2.33-2.55,.03-3.46,0-6.92,0-10.53Zm-101.2,18.46c-.75,11.07-3,21.72-6.6,32.23h44.79c-1.36-5.33-2.89-10.52-3.96-15.81-1.1-5.38-1.75-10.86-2.61-16.42h-31.62Zm13.72-23.99v-2.5c0-9.38,0-18.76,0-28.14,0-.44,0-.89,0-1.33,.04-2.09,1.04-3.47,2.52-3.28,1.72,.22,2.37,1.44,2.36,3.26-.03,9.9-.01,19.79-.01,29.69,0,.77,0,1.55,0,2.24h5.71v-2.58c0-12.78,.04-25.55-.04-38.33-.01-2.22,.62-3.61,2.37-4.9,9.98-7.35,10.88-22.72,1.94-31.42-.36-.35-.81-.62-1.47-1.11,0,3.77,.04,7.16,0,10.55-.14,9.76,1.27,6.71-5.98,12.41-5.54,4.35-4.37,4.39-9.91,.03-7.34-5.78-5.86-2.63-6.01-12.61-.05-3.35,0-6.71,0-10.49-.73,.61-1.12,.89-1.45,1.22-9.01,8.73-8.04,24.2,2.06,31.57,1.62,1.18,2.25,2.46,2.24,4.52-.06,12.85-.03,25.7-.03,38.55,0,.86,0,1.72,0,2.67h5.71Z"/><path class="cls-1" d="M182.27,49.13c-1.48-.16-2.44-1.01-2.46-2.64-.02-1.6,.81-2.62,2.37-2.66,1.57-.04,2.45,1,2.49,2.56,.04,1.58-.9,2.52-2.4,2.74Z"/><path class="cls-1" d="M196.68,49.13c-1.49-.13-2.46-.97-2.5-2.59-.04-1.6,.77-2.64,2.33-2.7,1.57-.07,2.46,.96,2.53,2.51,.06,1.58-.86,2.53-2.35,2.78Z"/><path class="cls-1" d="M210.95,43.8c1.57,.1,2.46,1.08,2.45,2.65-.01,1.56-.92,2.64-2.45,2.62-1.51-.01-2.41-1.04-2.41-2.65,0-1.61,.9-2.53,2.41-2.62Z"/><path class="cls-1" d="M139.3,159.97c-.13,1.58-.84,2.62-2.4,2.66-1.53,.04-2.44-.87-2.5-2.52-.06-1.67,.89-2.66,2.35-2.72,1.48-.06,2.34,.93,2.55,2.57Z"/></g></g></svg>