<svg width="13" height="13" viewBox="0 0 13 13" fill="none" xmlns="http://www.w3.org/2000/svg">
<g clip-path="url(#clip0_3700_9831)">
<path d="M10.5628 0H5.68777C5.23927 0 4.87527 0.363458 4.87527 0.8125C4.87527 1.26154 5.23927 1.625 5.68777 1.625H10.2264L0.238063 11.6128C-0.0793542 11.9297 -0.0793542 12.4448 0.238063 12.7617C0.396771 12.9204 0.604771 12.9995 0.812771 12.9995C1.02077 12.9995 1.22877 12.9204 1.38748 12.7617L11.3753 2.77387V7.3125C11.3753 7.76154 11.7393 8.125 12.1878 8.125C12.6363 8.125 13.0003 7.76154 13.0003 7.3125V2.4375C13.0003 1.09363 11.9066 0 10.5628 0Z" fill="white"/>
</g>
<defs>
<clipPath id="clip0_3700_9831">
<rect width="13" height="13" fill="white"/>
</clipPath>
</defs>
</svg>
