<svg width="140" height="141" viewBox="0 0 140 141" fill="none" xmlns="http://www.w3.org/2000/svg">
<path d="M69.8 33.4001C78.8 33.4001 86.1 26.1001 86.1 17.0001C86.1 7.90009 78.8 0.600098 69.8 0.600098C60.8 0.600098 53.5 7.90009 53.5 17.0001C53.5 26.0001 60.8 33.4001 69.8 33.4001Z" fill="#87D07D"/>
<path d="M69.8 86.8C78.8 86.8 86.1 79.5 86.1 70.4C86.1 61.3 78.8 54 69.8 54C60.8 54 53.5 61.3 53.5 70.4C53.5 79.5 60.8 86.8 69.8 86.8Z" fill="#87D07D"/>
<path d="M69.8 140.2C78.8 140.2 86.1 132.9 86.1 123.8C86.1 114.7 78.8 107.4 69.8 107.4C60.8 107.4 53.5 114.7 53.5 123.8C53.5 132.9 60.8 140.2 69.8 140.2Z" fill="#87D07D"/>
<path d="M106.3 70.4001C106.3 79.4001 113.6 86.7001 122.7 86.7001C131.8 86.7001 139.2 79.4001 139.2 70.4001C139.2 61.4001 131.8 54.1001 122.7 54.1001C113.6 54.1001 106.3 61.3001 106.3 70.4001Z" fill="#87D07D"/>
<path d="M0.300049 70.4001C0.300049 79.4001 7.60005 86.7001 16.7 86.7001C25.8 86.7001 33.2 79.4001 33.2 70.4001C33.2 61.4001 25.9001 54.1001 16.8001 54.1001C7.70005 54.1001 0.300049 61.3001 0.300049 70.4001Z" fill="#87D07D"/>
<path d="M22.9001 33.4003C28.5001 33.4003 33.1001 28.8003 33.1001 23.1003C33.1001 17.4003 28.6001 12.8003 22.9001 12.8003C17.3001 12.8003 12.7001 17.4003 12.7001 23.1003C12.7001 28.7003 17.3001 33.4003 22.9001 33.4003Z" fill="#9CD696"/>
<path d="M43.3001 53.9003C48.9001 53.9003 53.5001 49.3003 53.5001 43.6003C53.5001 37.9003 49.0001 33.3003 43.3001 33.3003C37.7001 33.3003 33.1001 37.9003 33.1001 43.6003C33.1001 49.4003 37.6001 53.9003 43.3001 53.9003Z" fill="#4B8F4E"/>
<path d="M116.6 127.9C122.2 127.9 126.8 123.3 126.8 117.6C126.8 111.9 122.3 107.3 116.6 107.3C111 107.3 106.4 111.9 106.4 117.6C106.4 123.3 111 127.9 116.6 127.9Z" fill="#9CD696"/>
<path d="M96.3001 107.4C101.9 107.4 106.5 102.8 106.5 97.1003C106.5 91.4003 102 86.8003 96.3001 86.8003C90.7001 86.8003 86.1001 91.4003 86.1001 97.1003C86.1001 102.7 90.7001 107.4 96.3001 107.4Z" fill="#4B8F4E"/>
<path d="M116.6 33.4003C111 33.4003 106.4 28.8003 106.4 23.1003C106.4 17.4003 110.9 12.8003 116.6 12.8003C122.2 12.8003 126.8 17.4003 126.8 23.1003C126.8 28.8003 122.3 33.4003 116.6 33.4003Z" fill="#9CD696"/>
<path d="M96.3001 53.9003C90.7001 53.9003 86.1001 49.3003 86.1001 43.6003C86.1001 37.9003 90.6001 33.3003 96.3001 33.3003C101.9 33.3003 106.5 37.9003 106.5 43.6003C106.5 49.4003 101.9 53.9003 96.3001 53.9003Z" fill="#4B8F4E"/>
<path d="M22.9001 127.9C17.3001 127.9 12.7001 123.3 12.7001 117.6C12.7001 111.9 17.2001 107.3 22.9001 107.3C28.5001 107.3 33.1001 111.9 33.1001 117.6C33.1001 123.3 28.6001 127.9 22.9001 127.9Z" fill="#9CD696"/>
<path d="M43.3001 107.4C37.7001 107.4 33.1001 102.8 33.1001 97.1003C33.1001 91.4003 37.6001 86.8003 43.3001 86.8003C49.0001 86.8003 53.5001 91.4003 53.5001 97.1003C53.5001 102.7 48.9001 107.4 43.3001 107.4Z" fill="#4B8F4E"/>
</svg>
