<svg width="395" height="333" viewBox="0 0 395 333" fill="none" xmlns="http://www.w3.org/2000/svg">
<path d="M153.377 191.224C137.454 162.007 129.33 147.301 113.334 118.061C79.3846 117.136 62.4848 116.706 29.3438 116.351C39.8093 122.683 45.0483 125.82 55.5282 132.138C52.9357 136.604 51.6711 138.801 49.117 143.311C25.7299 183.556 45.3637 214.647 89.2885 215.333C100.553 215.473 113.049 215.916 127.635 216.395C114.801 214.769 107.598 207.719 113.862 197.438C119.179 188.585 121.842 184.159 127.209 175.403C137.685 181.72 142.916 184.875 153.377 191.224Z" fill="#006C77"/>
<mask id="mask0_5667_10985" style="mask-type:luminance" maskUnits="userSpaceOnUse" x="29" y="116" width="125" height="101">
<path d="M153.377 191.224C137.454 162.007 129.33 147.301 113.334 118.061C79.3846 117.136 62.4848 116.706 29.3438 116.351C39.8093 122.683 45.0483 125.82 55.5282 132.138C52.9357 136.604 51.6711 138.801 49.117 143.311C25.7299 183.556 45.3637 214.647 89.2885 215.333C100.553 215.473 113.049 215.916 127.635 216.395C114.801 214.769 107.598 207.719 113.862 197.438C119.179 188.585 121.842 184.159 127.209 175.403C137.685 181.72 142.916 184.875 153.377 191.224Z" fill="white"/>
</mask>
<g mask="url(#mask0_5667_10985)">
<path fill-rule="evenodd" clip-rule="evenodd" d="M138.937 153.388C139.035 153.586 139.12 152.688 138.903 152.728C136.613 153.15 134.489 154.319 132.182 154.632C127.642 155.248 123.045 155.397 118.465 155.501C103.008 155.849 87.4048 154.269 72.1648 157.667C70.5498 158.027 68.9968 158.672 67.5248 159.428C66.0168 160.202 64.5138 161.067 63.2808 162.23C60.4028 164.944 63.9578 167.1 66.3518 167.75C71.1428 169.051 76.0918 169.726 80.8728 171.062C83.4878 171.793 89.2528 175.456 86.8098 176.641C80.9948 179.463 77.3638 178.733 71.1418 178.51C57.7918 178.031 42.6418 175.797 29.4928 180.14C24.5948 181.758 11.0338 186.13 12.9688 194.762C15.6488 206.71 32.9628 218.064 43.9838 221.052C79.0318 230.552 111.149 225.544 146.174 219.812C157.291 217.992 170.72 218.527 180.78 212.245C193.908 204.047 212.907 185.835 198.316 169.605C195.467 166.436 192.436 163.343 188.917 160.941C185.433 158.563 181.546 156.711 177.531 155.416L138.937 153.388Z" fill="#0098A7"/>
</g>
<path d="M45.4688 205.537C55.2448 217.309 75.5268 220.571 96.3838 221.419C133.862 222.949 152.667 223.304 190.375 223.32C190.261 256.137 190.183 272.533 190.048 305.351C162.483 305.293 148.737 304.869 121.381 303.191C103.975 302.102 88.4677 292.048 80.2617 276.334C66.3837 247.484 59.4228 233.243 45.4688 205.537Z" fill="#0099A7"/>
<path d="M211.526 107.566C245.795 106.543 263.091 105.933 297.413 104.856C313.106 75.8735 320.889 61.4322 335.694 32.9003C325.202 39.1933 319.982 42.3588 309.498 48.6713C306.455 44.4768 304.953 42.4227 301.853 38.2421C274.441 0.422929 236.798 3.83916 216.975 41.5621C211.923 51.251 206.053 61.8745 199.234 74.2912C206.359 63.8907 216.096 60.7354 222.972 70.6483C228.927 79.1167 231.902 83.3537 237.745 91.8239C227.263 98.1327 222.03 101.284 211.526 107.566Z" fill="#003C3C"/>
<mask id="mask1_5667_10985" style="mask-type:luminance" maskUnits="userSpaceOnUse" x="199" y="11" width="137" height="97">
<path d="M211.526 107.566C245.795 106.543 263.091 105.933 297.413 104.856C313.106 75.8735 320.889 61.4322 335.694 32.9003C325.202 39.1933 319.982 42.3588 309.498 48.6713C306.455 44.4768 304.953 42.4227 301.853 38.2421C274.441 0.422929 236.798 3.83916 216.975 41.5621C211.923 51.251 206.053 61.8745 199.234 74.2912C206.359 63.8907 216.096 60.7354 222.972 70.6483C228.927 79.1167 231.902 83.3537 237.745 91.8239C227.263 98.1327 222.03 101.284 211.526 107.566Z" fill="white"/>
</mask>
<g mask="url(#mask1_5667_10985)">
<path fill-rule="evenodd" clip-rule="evenodd" d="M190.375 86.7735C190.375 86.7735 244.682 86.5859 262.52 45.3965L281.538 57.807L284.095 39.1479C284.095 39.1479 312.073 41.6666 337.66 78.8022L335.148 110.329H191.362L190.375 86.7735Z" fill="#207375"/>
<mask id="mask2_5667_10985" style="mask-type:luminance" maskUnits="userSpaceOnUse" x="190" y="39" width="148" height="72">
<path d="M190.375 86.7735C190.375 86.7735 244.682 86.5859 262.52 45.3965L281.538 57.807L284.095 39.1479C284.095 39.1479 312.073 41.6666 337.66 78.8022L335.148 110.329H191.362L190.375 86.7735Z" fill="white"/>
</mask>
<g mask="url(#mask2_5667_10985)">
<path fill-rule="evenodd" clip-rule="evenodd" d="M261.66 42.4767C261.66 42.2889 261.66 43.3001 261.66 43.5225C261.66 44.3754 261.774 45.1588 261.774 46.0064C261.774 48.5955 261.461 51.6829 261.088 54.2423C259.949 62.0507 257.383 69.8784 252.624 75.8124C241.708 89.4233 224.585 98.5163 208.817 101.697C202.499 102.971 193.041 103.084 189.029 96.206C184.803 88.9603 192.272 81.6405 197.15 78.6884C201.637 75.9739 206.854 74.4155 211.676 72.6748C220.67 69.4288 229.643 66.2638 238.098 61.4323C243.403 58.4006 248.624 54.2557 253.082 49.7973C255.85 47.0292 259.085 43.196 262.346 41.9536" fill="#1C6566"/>
<path fill-rule="evenodd" clip-rule="evenodd" d="M279.047 55.2515C279.239 55.333 278.84 57.0093 278.826 57.3367C278.752 58.9894 278.986 60.6887 279.2 62.2669C279.256 62.6827 279.327 63.6834 279.839 63.5746C281.186 63.2879 282.738 59.6747 283.429 58.3523C285.869 53.6834 288.222 48.203 288.026 42.768C287.958 40.8736 288.674 38.7593 287.666 37.3251C287.273 36.7668 282.795 33.3439 282.645 33.6424C280.842 37.2363 282.346 47.4167 281.074 51.3385C280.718 52.4356 280.157 54.1218 279.565 55.0564C279.39 55.3323 278.702 56.7703 278.803 56.7044" fill="#1C6566"/>
<path fill-rule="evenodd" clip-rule="evenodd" d="M196.135 103.991C197.02 103.991 198.739 105.09 200.046 105.183C205.895 105.601 211.782 104.482 217.602 104.09C227.417 103.43 237.148 103.054 246.804 100.713C257.197 98.1933 268.337 94.8712 276.875 87.2035C282.522 82.1329 287.126 75.8849 292.085 70.2175C292.203 70.0822 293.313 70.621 293.476 70.714C294.649 71.3849 296.185 72.2797 297.473 72.7007C304.948 75.1417 311.139 80.4031 317.724 84.9188C322.902 88.4698 328.735 90.6426 332.586 96.1436C333.969 98.1204 335.903 99.6397 336.236 102.302C337.606 113.267 323.585 113.24 317.55 113.527C315.729 113.614 313.898 113.726 312.075 113.726H305.73C292.942 113.726 280.193 113.139 267.402 113.626C257.661 113.998 248.076 115.555 238.374 116.408C231.393 117.021 224.42 117.205 217.428 117.501C215.814 117.569 214.168 117.609 212.561 117.798C211.023 117.98 209.496 118.142 207.955 118.295C203.644 118.724 197.394 120.147 194.484 115.713C193.407 114.072 192.482 112.243 193.354 110.249" fill="#1C6566"/>
<mask id="mask3_5667_10985" style="mask-type:luminance" maskUnits="userSpaceOnUse" x="193" y="70" width="144" height="49">
<path d="M196.135 103.991C197.02 103.991 198.739 105.09 200.046 105.183C205.895 105.601 211.782 104.482 217.602 104.09C227.417 103.43 237.148 103.054 246.804 100.713C257.197 98.1933 268.337 94.8712 276.875 87.2035C282.522 82.1329 287.126 75.8849 292.085 70.2175C292.203 70.0822 293.313 70.621 293.476 70.714C294.649 71.3849 296.185 72.2797 297.473 72.7007C304.948 75.1417 311.139 80.4031 317.724 84.9188C322.902 88.4698 328.735 90.6426 332.586 96.1436C333.969 98.1204 335.903 99.6397 336.236 102.302C337.606 113.267 323.585 113.24 317.55 113.527C315.729 113.614 313.898 113.726 312.075 113.726H305.73C292.942 113.726 280.193 113.139 267.402 113.626C257.661 113.998 248.076 115.555 238.374 116.408C231.393 117.021 224.42 117.205 217.428 117.501C215.814 117.569 214.168 117.609 212.561 117.798C211.023 117.98 209.496 118.142 207.955 118.295C203.644 118.724 197.394 120.147 194.484 115.713C193.407 114.072 192.482 112.243 193.354 110.249" fill="white"/>
</mask>
<g mask="url(#mask3_5667_10985)">
<path fill-rule="evenodd" clip-rule="evenodd" d="M290.773 67.9859C290.431 67.7465 291.418 69.3154 291.562 69.5C292.235 70.3581 292.832 71.3045 293.488 72.1938C294.49 73.5542 295.586 74.8476 296.362 76.4177C297.165 78.0408 297.676 79.8777 298.838 81.2285C300.893 83.6194 303.245 86.3452 305.956 87.7471C308.268 88.9422 310.704 89.5647 313.015 90.7598C316.41 92.5157 318.754 96.2174 321.886 98.4079C324.8 100.447 328.327 100.351 331.563 100.462C332.16 100.482 335.044 100.465 335.131 99.3007C335.208 98.2709 333.771 96.404 333.349 95.5526C331.509 91.8305 329.853 88.5425 326.822 85.8866C318.662 78.7371 310.1 72.5652 299.947 69.8796C298.754 69.5638 297.639 68.9437 296.421 68.7603C295.469 68.6171 294.489 68.8355 293.565 68.5909C292.221 68.2357 291.312 67.6587 289.898 68.0474" fill="#5AA89E"/>
</g>
<path fill-rule="evenodd" clip-rule="evenodd" d="M262.577 44.6563C262.517 44.5791 263.176 46.5387 263.347 46.9285C263.99 48.3919 264.763 50.0319 265.721 51.2659C268.014 54.2186 270.134 57.0532 272.792 59.5726C273.857 60.5817 274.972 61.7424 276.306 62.2573C277.568 62.7448 279.971 64.7077 280.99 62.6894C282.661 59.3781 281.038 48.6566 278.79 46.1474C277.545 44.7575 275.439 49.669 274.027 48.5216C273.053 47.73 272.001 47.0559 270.98 46.3576C269.521 45.3599 267.669 43.8178 265.966 43.4204C264.563 43.093 263.111 44.645 261.883 44.0825" fill="#5AA89E"/>
<path fill-rule="evenodd" clip-rule="evenodd" d="M283.664 37.5135C283.12 38.2687 285.352 40.0915 285.977 40.5787C289.143 43.0448 292.831 44.3423 295.966 46.9127C297.84 48.4499 299.551 50.2453 301.416 51.8006C303.511 53.5473 305.731 55.0177 307.906 56.6175C310.266 58.3529 312.634 60.1405 315.303 61.1572C315.678 61.3001 316.019 61.5578 316.395 61.7007C317.97 62.301 322.053 63.1253 322.974 60.7073C323.235 60.0216 322.615 58.8086 322.34 58.2535C321.335 56.2227 319.487 54.3022 318.101 52.5677C314.091 47.5475 309.102 43.4355 303.981 40.0044C301.522 38.3558 299.018 36.7411 296.177 36.1297C293.263 35.5029 289.576 34.036 286.611 34.7967C285.446 35.0952 284.492 35.0894 283.706 36.1805C283.481 36.4933 283.325 37.1295 283.434 37.5389C283.46 37.6365 283.596 38.1969 283.709 38.0398" fill="#5AA89E"/>
<path d="M290.953 50.1383C292.109 50.1651 293.139 51.571 294.181 52.462C296.926 54.885 299.31 57.7709 301.993 60.3804C309.434 67.6165 315.682 76.3635 321.454 85.4236L321.565 85.5992C322.914 87.7591 324.235 89.9534 325.555 92.1483L325.635 92.56C325.635 92.56 325.462 92.8976 325.441 92.914L325.089 92.9994L324.778 92.7766C317.626 81.4219 310.184 69.9878 300.558 60.7335C298.129 58.398 295.978 55.6976 293.525 53.4193C292.718 52.6699 292.008 51.6885 291.07 51.2512C290.672 51.0651 290.901 51.2007 290.901 51.2007L290.561 51.0917L290.383 50.7415L290.475 50.3552C290.475 50.3552 290.747 50.1336 290.953 50.1383ZM316.223 70.6319C316.709 70.6809 317.131 71.2348 317.131 71.2348C317.454 71.4005 317.425 71.4952 317.51 71.6529C318.691 73.9068 320.173 75.4961 321.488 77.5586C322.376 78.9506 323.214 80.3848 324.001 81.8543C324.001 81.8543 325.008 83.5424 325.77 84.9221C326.517 86.3015 327.249 87.6847 328.055 89.0656L328.131 89.4776C328.131 89.4776 327.958 89.8126 327.937 89.8289C327.937 89.8289 327.564 89.8146 327.593 89.9627C327.593 89.9627 327.646 90.4954 327.302 90.6823C326.759 90.9774 326.143 90.0231 325.722 89.2913L325.344 88.5944L325.215 88.3565L325.074 88.3157C324.82 87.8492 324.837 87.6573 324.837 87.6573C322.771 83.8302 320.789 79.9859 318.646 76.1842C318.442 75.8311 318.37 75.7346 318.224 75.5185C317.569 74.5549 316.858 73.6508 316.533 72.4912L316.198 72.1457C315.893 71.825 315.597 71.4926 315.698 71.0354L316.122 70.6371C316.191 70.6272 316.197 70.6319 316.223 70.6319ZM320.34 68.2921C321.204 68.3515 321.873 69.442 322.324 70.5112C322.867 71.3343 323.532 72.7612 322.416 73.1227C321.242 73.5029 319.923 71.222 319.637 69.5983C319.542 69.0612 319.643 68.2693 320.34 68.2921Z" fill="#1E6566"/>
<path d="M267.163 65.2632L267.478 65.4145L267.609 65.7743C267.607 72.9597 266.767 80.1016 264.177 86.7435C261.575 93.4166 257.048 98.9231 251.308 102.456C247.613 104.731 243.587 106.378 239.516 107.51C237.876 107.966 236.211 108.122 234.504 108.009L233.739 107.856C233.13 107.55 233.198 107.481 233.198 107.481L233.279 106.866C233.536 106.606 233.406 106.697 233.705 106.709L233.995 106.623C234.088 106.623 234.181 106.621 234.274 106.62C234.716 106.611 234.766 106.624 234.969 106.632C236.946 106.698 238.897 106.179 240.776 105.545C246.313 103.679 251.87 101.25 256.403 96.7623C262.057 91.1642 265.188 82.6134 266.212 74.2691C266.557 71.4572 266.706 68.6171 266.711 65.776L266.844 65.4136C266.844 65.4136 267.129 65.2632 267.163 65.2632ZM291.727 74.5965L291.883 74.9508C291.975 76.3147 290.823 77.3095 290.159 78.5268C286.983 84.3523 282.574 89.2212 277.435 93.1425C274.364 95.4864 271.09 97.441 267.746 99.2042C267.677 99.2403 267.609 99.2768 267.541 99.3135C265.238 100.565 263.036 102.122 260.636 103.138C260.038 103.392 259.412 103.594 258.782 103.761L258.396 103.694C258.396 103.694 258.169 103.371 258.162 103.343L258.22 102.913L258.527 102.641C262.021 101.508 265.117 99.1039 268.368 97.3483C275.873 93.2725 283.132 87.8199 287.577 80.792C288.456 79.4024 289.235 77.9224 290.146 76.5908C290.462 76.1267 290.813 75.6599 290.96 75.1146C291.003 74.9551 290.973 75.0216 290.973 75.0216L291.087 74.6467L291.4 74.4685C291.509 74.5111 291.618 74.554 291.727 74.5965ZM283.624 95.6876L283.627 95.6919L283.72 96.0786L283.552 96.4413C281.101 98.8126 278.975 101.852 275.832 103.145C275.255 103.383 274.633 103.52 274.01 103.562L273.677 103.436L273.515 103.085L273.621 102.715C273.864 102.563 273.987 102.518 274.159 102.486C276.434 102.045 278.325 100.159 280.032 98.4449C280.529 97.9428 281.025 97.4396 281.523 96.9387C281.523 96.9387 282.229 96.2439 282.966 95.6074L283.314 95.498C283.417 95.561 283.52 95.6243 283.624 95.6876ZM288.1 98.1974L288.269 98.5449L288.17 98.9152C288.17 98.9152 287.722 99.177 287.907 99.1097C287.908 99.1082 286.97 100.306 286.234 101.323L285.893 101.529L285.523 101.397L285.345 101.008L285.457 100.59C286.072 99.7482 286.594 98.7187 287.424 98.2079C287.665 98.0598 287.862 98.1143 288.1 98.1974ZM274.638 77.9912L274.989 78.1682L275.154 78.5889C275.18 79.0823 275.179 79.8045 275.179 79.8045C274.906 83.7392 273.345 87.529 271.381 90.9161C269.863 93.5323 268.098 96.1208 265.899 97.8148C265.439 98.1685 264.884 98.4697 264.308 98.4574L263.985 98.302L263.846 97.9396L263.976 97.5827C263.976 97.5827 264.836 97.2232 265.414 96.7072C269.747 92.7949 272.864 86.9108 273.81 81.0845C273.902 80.5165 273.995 79.6823 273.995 79.6823C274.007 79.6106 274.017 79.5386 274.027 79.4666C274.075 79.1146 274.114 78.5854 274.114 78.5854L274.282 78.1659C274.282 78.1659 274.602 77.9909 274.638 77.9912ZM278.218 79.128C279.078 79.2348 279.017 80.9853 278.011 81.7233C277.421 82.1563 276.59 81.3233 277.19 80.0234C277.439 79.4841 277.78 79.1155 278.218 79.128Z" fill="#1E6566"/>
</g>
</g>
<path d="M246.315 6.0663C231.095 8.13437 218.999 24.7362 208.454 42.9028C189.457 75.6097 179.929 92.2088 160.97 124.912C132.713 108.756 118.586 100.714 90.3281 85.8436C104.15 62.1973 111.07 50.1369 124.91 25.8799C133.731 10.5309 149.219 0.553322 166.798 0.662508C198.619 1.86078 214.55 2.98595 246.315 6.0663Z" fill="#008A77"/>
<mask id="mask4_5667_10985" style="mask-type:luminance" maskUnits="userSpaceOnUse" x="90" y="0" width="157" height="125">
<path d="M246.315 6.0663C231.095 8.13437 218.999 24.7362 208.454 42.9028C189.457 75.6097 179.929 92.2088 160.97 124.912C132.713 108.756 118.586 100.714 90.3281 85.8436C104.15 62.1973 111.07 50.1369 124.91 25.8799C133.731 10.5309 149.219 0.553322 166.798 0.662508C198.619 1.86078 214.55 2.98595 246.315 6.0663Z" fill="white"/>
</mask>
<g mask="url(#mask4_5667_10985)">
<path fill-rule="evenodd" clip-rule="evenodd" d="M55.5179 71.7531C72.8909 55.8521 104.364 49.0291 127.441 52.8561C141.15 55.1291 154.07 61.6971 168.244 60.8231C190.113 59.4751 206.13 42.8611 225.71 35.2141C238.392 30.2601 258.718 25.7701 266.576 40.9701C279.583 66.1311 250.092 96.6111 234.32 112.248C216.442 129.974 195.711 146.018 170.6 151.956C132.386 160.992 75.1699 150.556 42.1719 131.332L55.5179 71.7531Z" fill="#00AE87"/>
</g>
<path d="M262.869 191.493C245.501 219.936 236.818 234.343 219.469 262.859C236.589 291.084 245.138 305.118 262.332 332.381C262.392 320.484 262.392 314.548 262.429 302.648C267.739 302.407 270.346 302.279 275.676 301.983C323.542 299.827 340.605 267.361 318.001 231.113C312.175 221.836 305.963 211.394 298.68 199.224C304.027 210.568 301.612 220.177 289.229 220.492C278.609 220.824 273.297 220.989 262.735 221.23C262.774 209.334 262.794 203.392 262.869 191.493Z" fill="#003C3C"/>
<mask id="mask5_5667_10985" style="mask-type:luminance" maskUnits="userSpaceOnUse" x="219" y="191" width="109" height="142">
<path d="M262.869 191.493C245.501 219.936 236.818 234.343 219.469 262.859C236.589 291.084 245.138 305.118 262.332 332.381C262.392 320.484 262.392 314.548 262.429 302.648C267.739 302.407 270.346 302.279 275.676 301.983C323.542 299.827 340.605 267.361 318.001 231.113C312.175 221.836 305.963 211.394 298.68 199.224C304.027 210.568 301.612 220.177 289.229 220.492C278.609 220.824 273.297 220.989 262.735 221.23C262.774 209.334 262.794 203.392 262.869 191.493Z" fill="white"/>
</mask>
<g mask="url(#mask5_5667_10985)">
<path fill-rule="evenodd" clip-rule="evenodd" d="M328.704 221.2C329.099 221.298 327.959 221.555 327.658 221.828C326.67 222.724 325.897 223.848 324.859 224.688C322.155 226.879 319.371 228.983 316.463 230.897C308.145 236.368 300.354 240.898 290.85 244.078C283.296 246.606 275.546 248.529 267.824 250.492C262.197 251.922 256.46 252.892 250.816 254.255C233.123 258.528 215.226 261.491 199.727 271.638C191.989 276.703 187.421 286.313 191.477 295.2C198.146 309.808 212.912 320.171 227.544 325.844C256.402 337.031 284.722 340.321 312.664 325.728C323.301 320.171 334.819 314.565 341.072 303.754C346.626 294.15 352.482 282.681 351.344 271.029C350.573 263.131 347.592 264.203 345.737 256.584C344.711 252.376 346.352 248.18 347.34 244.233L328.704 221.2Z" fill="#005E5E"/>
<path fill-rule="evenodd" clip-rule="evenodd" d="M180.365 255.285C181.588 254.994 182.466 253.651 183.72 253.562C194.021 252.824 207.442 253.235 217.493 255.868C226.972 258.353 234.389 264.899 244.343 266.329C251.146 267.308 264.277 264.423 270.94 268.969C277.935 273.743 262.681 276.584 262.23 276.828C260.84 277.58 259.229 280.713 261.421 282.005C264.339 283.725 269.608 283.013 272.671 283.361C280.536 284.256 309.188 284.443 312.193 298.472C312.484 299.834 311.572 301.196 311.447 302.583C311.262 304.641 311.84 309.824 310.464 311.778C307.129 316.516 299.024 322.5 294.405 325.75C284.156 332.96 280.186 336.234 267.853 339.416C262.245 340.863 251.35 340.551 245.671 340.877C227.983 341.893 216.648 343.984 200.527 336.766L180.365 255.285Z" fill="#0099A7"/>
</g>
<path d="M332.892 270.306C338.374 255.881 329.864 238.504 319.378 221.274C300.495 190.306 291.025 174.255 272.258 141.829C300.744 125.541 315.027 117.481 343.474 102.577C357.276 125.855 364.197 137.291 378.056 159.447C386.894 173.466 387.105 189.878 377.692 204.343C359.787 229.98 350.816 243.316 332.892 270.306Z" fill="#008A77"/>
<mask id="mask6_5667_10985" style="mask-type:luminance" maskUnits="userSpaceOnUse" x="272" y="102" width="113" height="169">
<path d="M332.892 270.306C338.374 255.881 329.864 238.504 319.378 221.274C300.495 190.306 291.025 174.255 272.258 141.829C300.744 125.541 315.027 117.481 343.474 102.577C357.276 125.855 364.197 137.291 378.056 159.447C386.894 173.466 387.105 189.878 377.692 204.343C359.787 229.98 350.816 243.316 332.892 270.306Z" fill="white"/>
</mask>
<g mask="url(#mask6_5667_10985)">
<path fill-rule="evenodd" clip-rule="evenodd" d="M262.627 139.12C262.311 137.652 267.082 140.788 267.405 141.007C270.427 143.056 273.819 144.291 277.156 145.765C286.677 149.971 296.381 151.969 306.669 153.727C331.384 157.95 356.183 162.233 378.72 173.23C384.872 176.231 397.089 186.535 399.419 192.826C400.472 195.671 399.676 198.616 399.422 201.479C397.77 220.045 378.788 226.372 362.074 224.663C348.861 223.312 335.643 223.207 322.752 219.318C311.531 215.934 301.332 210.467 290.296 206.581C275.154 201.249 255.467 193.811 246.319 179.852L262.627 139.12Z" fill="#00C29B"/>
<path fill-rule="evenodd" clip-rule="evenodd" d="M273.668 183.16C274.153 186.293 279.207 183.56 281.987 183.717C291.561 184.256 301.043 185.162 310.732 185.247C339.729 185.502 371.366 179.908 397.858 189.015C404.498 191.299 410.403 195.112 416.579 198.343C428.198 204.425 434.794 211.961 426.103 230.529C415.92 252.283 398.128 264.311 379.713 269.061C342.56 278.644 302.15 281.897 276.549 257.135C260.76 241.863 251.411 209.571 273.375 181.831" fill="#00AE87"/>
</g>
<path d="M346.958 124.449C346.764 124.489 346.639 124.26 346.383 124.142L346.344 124.114C343.242 121.078 340.946 117.339 339.267 113.358L339.134 113.213L339.01 112.99C338.982 112.906 339.023 112.767 339.023 112.767C338.963 112.615 338.903 112.463 338.844 112.31C338.813 112.237 338.786 112.163 338.756 112.09C336.903 111.817 334.913 112.428 333.034 112.846C332.596 112.943 332.158 113.039 331.718 113.134C328.498 113.822 325.162 114.393 321.888 114.013C321.389 113.955 320.893 113.872 320.4 113.786C320.4 113.786 318.895 113.308 319.361 112.75C319.658 112.392 319.847 112.584 320.367 112.504C323.214 112.054 325.978 111.126 328.828 110.65C332.038 110.115 335.405 110.079 338.435 111.224C338.401 111.134 338.367 111.043 338.337 110.951C337.695 109.134 337.156 107.28 336.699 105.409C336.699 105.409 336.047 104.835 335.427 104.486C332.483 102.831 328.906 102.53 325.694 101.354C323.203 100.434 320.637 99.5002 318.731 97.6689C318.731 97.6689 318.622 97.5369 318.607 97.5147C318.595 97.4904 318.58 97.4671 318.568 97.4428C318.547 97.4023 318.528 97.3606 318.512 97.3177C318.495 97.2796 318.483 97.2391 318.471 97.1989C318.418 97.003 318.404 96.7281 318.643 96.6214C318.865 96.5223 319.105 96.6473 319.321 96.7105C323.696 97.953 328.371 98.4775 332.585 100.479C333.929 101.12 335.201 101.949 336.165 103.056C336.165 103.056 336.061 102.529 335.958 101.995C335.59 100.054 335.297 98.0968 335.037 96.1336C332.116 93.6691 328.445 92.2718 325.112 90.3943C323.377 89.4172 321.639 88.4293 319.979 87.3636C318.78 86.5935 317.627 85.7096 316.919 84.5003C316.809 84.2984 316.832 84.1049 316.832 84.1049C316.89 83.8439 317.078 83.6838 317.541 83.8235C318.049 83.9762 318.478 84.3058 318.978 84.5094C323.434 86.2953 328.1 87.8954 331.844 90.8223C332.99 91.7196 334.067 92.741 334.761 93.9985L334.771 94.0156C334.5 91.8198 334.255 89.6153 334.011 87.4123L333.894 86.3812C333.728 86.1801 333.857 86.1863 333.345 85.8377C333.268 85.7848 333.189 85.7335 333.11 85.6822C332.968 85.5888 332.807 85.4861 332.807 85.4861C330.75 84.1091 328.372 83.1959 326.321 81.7996C324.333 80.4459 322.548 78.8235 320.893 77.1227C320.868 77.0978 320.846 77.0718 320.821 77.0465C320.521 76.7064 320.119 76.2279 320.422 75.9197C320.665 75.6713 321.108 75.9273 321.385 76.1727C321.394 76.1779 322.148 76.5748 322.743 76.8837C326.788 78.9748 331.158 80.8248 333.671 84.6884L333.709 84.7483C333.407 82.1076 333.089 79.4595 332.691 76.8249L332.67 76.7005C332.062 75.1031 331.276 73.5789 330.555 72.0358C329.076 68.8644 327.615 65.667 326.758 62.2544C326.596 61.6228 326.49 60.9778 326.447 60.326L326.588 59.887C326.656 59.8232 326.619 59.6705 326.85 59.637C327.195 59.588 327.341 59.9901 327.581 60.2866C331.194 64.7272 333.602 70.1561 334.211 75.8322C334.382 77.5126 334.54 79.235 334.232 80.9211C334.261 81.1876 334.293 81.4529 334.322 81.7191C334.354 81.9825 334.391 82.3399 334.391 82.3399C334.41 82.2878 334.426 82.237 334.442 82.1865C335.726 78.3418 338.534 75.0918 341.364 71.9884C341.976 71.3192 342.596 70.6209 343.325 70.1219C343.446 70.0396 343.6 69.9943 343.731 70.0563C344.09 70.231 344.01 70.7062 343.977 71.0434C343.967 71.1365 343.954 71.2295 343.941 71.3217C343.405 74.8138 340.564 77.6838 338.063 80.5508C336.713 82.1043 335.431 83.7539 334.75 85.6524L334.812 86.3832C334.875 86.4683 334.99 86.5062 334.878 86.6889L334.847 86.717C334.999 88.2514 335.15 89.7858 335.311 91.3203L335.322 91.4168C335.336 91.3455 335.354 91.2738 335.372 91.2021C336.094 88.3989 337.8 85.7931 339.81 83.7023C341.373 82.076 343.204 80.7362 344.922 79.2399C345.043 79.1313 345.068 79.069 345.306 78.8681C345.496 78.7075 345.868 78.6522 345.974 79.0748C346.157 79.5411 346.03 79.507 345.967 79.8062C345.82 80.4599 345.534 81.0764 345.227 81.6808C343.449 85.1664 341.101 88.3854 338.547 91.4155C337.442 92.734 336.367 94.1252 335.831 95.7584L335.823 95.7877C336.012 97.27 336.222 98.7475 336.466 100.217L336.494 100.388L336.52 100.541C337.438 97.1078 340.354 94.3718 343.118 91.6957C343.705 91.1277 344.294 90.5593 344.89 90.002C345.189 89.7235 345.488 89.4479 345.795 89.1747C346.122 88.8814 346.408 88.5594 346.726 88.2413C346.929 88.0371 347.346 87.9687 347.535 88.3408L347.636 88.5896C347.663 88.73 347.646 88.7696 347.644 88.8399C347.584 90.9819 345.937 92.9368 344.595 94.6125C342.711 96.9667 340.532 99.0898 338.793 101.539C338.15 102.447 337.554 103.408 337.29 104.471L337.288 104.481C337.709 106.368 338.212 108.235 338.809 110.068C338.809 110.068 338.897 109.494 339.024 109.035C339.614 106.873 340.962 104.934 342.364 103.162C344.126 100.939 346.054 98.845 347.849 96.6592C348.034 96.4338 348.278 96.1122 348.278 96.1122C348.408 95.977 348.683 95.924 348.792 96.1161C348.912 96.3207 348.783 96.681 348.801 96.6849C347.275 101.176 344.938 105.354 342.067 109.193C341.244 110.291 340.348 111.353 339.812 112.593L339.77 112.694C341.388 116.691 343.702 120.468 346.762 123.604L346.889 123.792C347.003 124.023 346.98 123.876 347.073 124.211C347.098 124.295 347.151 124.38 346.958 124.449Z" fill="#008A77"/>
<path d="M366.572 104.725C366.519 104.646 366.473 104.551 366.449 104.441C366.364 104.036 366.288 103.628 366.227 103.218L366.22 103.169C365.968 101.17 366.253 99.0942 367.219 97.1926C368.135 95.3917 369.475 93.8063 370.746 92.3262C370.918 92.1242 371.117 91.8821 371.451 92.1903C371.772 92.4971 371.89 92.9748 372.002 93.4311C372.002 93.4311 372.08 93.8481 372.118 94.1407C372.371 96.1091 372.217 98.1977 371.298 100.14C370.29 102.271 368.59 104.011 366.964 105.737L366.821 105.86L366.702 105.958C366.506 106.32 366.301 106.679 366.09 107.034C368.635 105.064 371.696 103.674 374.83 103.619C375.693 103.603 376.557 103.712 377.32 104.115C377.344 104.128 377.368 104.14 377.391 104.154C377.409 104.164 377.425 104.174 377.443 104.185C377.583 104.274 377.724 104.4 377.583 104.663C377.207 105.362 376.466 105.845 375.772 106.344C375.772 106.344 375.251 106.711 374.896 106.959C372.772 108.425 370.199 109.334 367.721 109.062C366.862 108.968 366.032 108.729 365.261 108.364C364.085 110.168 362.772 111.899 361.52 113.608C364.413 111.914 367.966 111.355 371.107 112.011C371.93 112.183 372.712 112.449 373.403 112.982C373.416 112.991 373.427 113.003 373.439 113.014C373.474 113.046 373.508 113.079 373.542 113.113C373.563 113.134 373.584 113.156 373.604 113.177C373.619 113.193 373.634 113.209 373.648 113.225C373.759 113.352 373.887 113.504 373.672 113.739C373.024 114.431 372.138 114.857 371.299 115.353C369.426 116.455 367.318 117.144 365.206 117.038C363.562 116.955 361.985 116.366 360.768 115.32C360.669 115.235 360.574 115.144 360.482 115.049C360.381 115.192 360.281 115.334 360.182 115.477C358.677 117.646 357.313 119.905 356.207 122.262C356.588 122.005 356.771 121.952 357.039 121.824C359.679 120.555 362.677 120.103 365.466 120.585C366.644 120.789 367.807 121.174 368.688 121.953C368.698 121.963 368.697 121.963 368.707 121.973C368.935 122.208 369.126 122.577 369.126 122.577C369.191 122.956 369.207 122.746 368.874 122.962C366.198 124.673 362.982 125.547 359.878 125.31C358.406 125.197 356.984 124.617 355.989 123.603C355.9 123.512 355.814 123.416 355.733 123.315C354.892 125.271 354.236 127.292 353.831 129.383C353.352 131.849 353.229 134.347 353.529 136.798C353.58 137.341 353.655 137.881 353.747 138.417L353.607 138.769C353.544 138.733 353.549 138.725 353.502 138.672L353.345 138.558C353.21 138.016 353.096 137.471 352.999 136.921L352.995 136.9C352.48 133.369 352.861 129.623 353.914 126.217C353.937 126.145 353.959 126.072 353.982 125.999C350.103 126.18 346.439 123.382 345.409 119.493C345.199 118.698 345.018 117.881 344.968 117.075C344.945 116.69 345.495 116.546 346.091 116.536C347.324 116.513 348.498 117.129 349.583 117.75C350.952 118.533 352.217 119.535 352.904 120.965C353.523 122.254 353.725 123.706 354.319 125.012C355.177 122.637 356.357 120.382 357.689 118.2C356.653 118.229 355.636 117.966 354.759 117.447C351.642 115.6 350.443 111.287 350.639 108.422C350.647 108.313 350.661 106.947 351.457 107.152C352.15 107.332 352.693 107.905 353.212 108.381C355.044 110.078 356.946 111.876 357.73 114.107C358.1 115.157 358.201 116.299 358.158 117.445C359.744 114.929 361.513 112.507 363.204 110.104C362.984 110.102 362.776 110.035 362.56 109.984C359.025 109.155 357.02 104.753 358.067 101.203C358.294 100.435 358.745 99.291 359.425 100.035C360.335 101.031 361.121 102.234 361.924 103.391C362.748 104.583 363.443 105.872 363.725 107.338C363.839 107.927 363.877 108.526 363.889 109.127C363.921 109.081 363.953 109.034 363.985 108.987C364.935 107.616 365.818 106.185 366.572 104.725Z" fill="#008A77"/>
<path d="M61.2648 130.221C61.1304 130.208 61.0936 130.025 60.9503 129.892L60.9305 129.865C59.5095 127.152 58.7534 124.127 58.4489 121.065L58.3911 120.939L58.3546 120.761C58.353 120.698 58.4068 120.612 58.4068 120.612C58.3981 120.496 58.3895 120.38 58.3808 120.264C58.3756 120.207 58.3724 120.151 58.3672 120.095C57.2123 119.525 55.7925 119.529 54.484 119.423C54.1787 119.398 53.8734 119.373 53.568 119.346C51.3304 119.148 49.0403 118.845 46.9792 117.906C46.6651 117.764 46.3583 117.604 46.0533 117.443C46.0533 117.443 45.1661 116.805 45.5814 116.522C45.8465 116.339 45.9311 116.509 46.2867 116.563C48.2333 116.846 50.2212 116.787 52.1751 117.054C54.376 117.355 56.58 118.029 58.3297 119.439C58.3257 119.37 58.3218 119.301 58.3199 119.232C58.2618 117.86 58.2785 116.485 58.3522 115.115C58.3522 115.115 58.0405 114.588 57.7056 114.222C56.1134 112.483 53.8391 111.536 51.9767 110.068C50.5339 108.924 49.0451 107.755 48.1652 106.112C48.1652 106.112 48.1203 105.999 48.1152 105.981C48.1121 105.962 48.107 105.943 48.1039 105.924C48.098 105.892 48.0941 105.859 48.0923 105.827C48.0885 105.797 48.0889 105.767 48.0892 105.737C48.0931 105.593 48.1389 105.403 48.3159 105.379C48.4808 105.358 48.612 105.493 48.7406 105.581C51.3486 107.335 54.2949 108.663 56.6469 110.901C57.3968 111.617 58.062 112.446 58.471 113.4C58.471 113.4 58.508 113.019 58.5468 112.634C58.6917 111.234 58.8896 109.84 59.1099 108.448C57.693 106.162 55.5755 104.448 53.7735 102.477C52.8358 101.451 51.8976 100.417 51.0261 99.3464C50.3965 98.5728 49.8197 97.7311 49.5982 96.76C49.5667 96.5997 49.6203 96.4726 49.6203 96.4726C49.7101 96.3067 49.864 96.2365 50.1383 96.4277C50.44 96.6374 50.6544 96.951 50.9396 97.1933C53.4928 99.3351 56.2195 101.394 58.0814 104.165C58.6505 105.015 59.1507 105.934 59.3537 106.935L59.3565 106.949C59.6163 105.396 59.8942 103.843 60.1722 102.291L60.3009 101.564C60.2323 101.392 60.3151 101.423 60.0504 101.079C60.011 101.027 59.9695 100.976 59.9281 100.925C59.8539 100.831 59.769 100.728 59.769 100.728C58.7005 99.3628 57.3302 98.247 56.269 96.8697C55.2407 95.5346 54.3988 94.0587 53.6567 92.5561C53.6453 92.5339 53.6359 92.5115 53.6245 92.4891C53.4963 92.195 53.3291 91.7855 53.5881 91.6383C53.796 91.5195 54.034 91.7858 54.1664 92.0107C54.1707 92.0159 54.5841 92.4429 54.9111 92.7769C57.135 95.0413 59.6187 97.2087 60.4916 100.364L60.5046 100.412C60.8317 98.5498 61.1502 96.679 61.4137 94.8006L61.4248 94.7115C61.3453 93.4966 61.1349 92.2946 60.971 91.0933C60.6356 88.6248 60.3176 86.1425 60.436 83.6386C60.4561 83.1746 60.5148 82.7129 60.6165 82.2598L60.7956 81.9898C60.8526 81.9605 60.8584 81.8486 61.0158 81.8736C61.251 81.9119 61.2663 82.2163 61.3637 82.4681C62.8394 86.2444 63.3324 90.4442 62.6024 94.4393C62.3802 95.6201 62.1412 96.8268 61.6056 97.9122C61.5717 98.1 61.5399 98.2874 61.506 98.4749C61.4741 98.6609 61.4277 98.9123 61.4277 98.9123C61.4502 98.8807 61.4707 98.8494 61.4912 98.8183C63.0928 96.4642 65.5702 94.8315 68.0333 93.3034C68.5655 92.9743 69.1088 92.627 69.6835 92.438C69.7789 92.4071 69.8884 92.4082 69.9612 92.4775C70.1607 92.671 70.0141 92.9783 69.9256 93.2013C69.9007 93.2627 69.8738 93.3234 69.8468 93.3836C68.8035 95.6525 66.3798 97.0193 64.1788 98.4546C62.9896 99.2335 61.8252 100.092 61.0038 101.244L60.8993 101.756C60.9236 101.827 60.9913 101.876 60.8816 101.978L60.856 101.99C60.6501 103.068 60.4442 104.145 60.2445 105.224L60.2322 105.292C60.256 105.247 60.2817 105.201 60.3075 105.156C61.3353 103.395 62.9658 101.973 64.6929 100.965C66.0357 100.181 67.4962 99.6475 68.9148 98.9841C69.0153 98.9353 69.0435 98.8978 69.2391 98.8104C69.3951 98.7404 69.6486 98.7798 69.6339 99.0899C69.6602 99.4455 69.5845 99.396 69.484 99.5869C69.2585 100.002 68.9489 100.363 68.6285 100.711C66.7761 102.718 64.6048 104.425 62.3366 105.96C61.3539 106.63 60.3763 107.355 59.7023 108.357L59.6912 108.375C59.5202 109.425 59.3634 110.475 59.2311 111.528L59.2158 111.65L59.2018 111.76C60.4828 109.61 62.9289 108.35 65.264 107.1C65.7593 106.834 66.2567 106.569 66.7566 106.313C67.0065 106.185 67.2566 106.059 67.511 105.937C67.783 105.805 68.0331 105.644 68.304 105.494C68.4767 105.396 68.7626 105.436 68.8118 105.729L68.8287 105.92C68.8183 106.021 68.7994 106.045 68.7839 106.092C68.3196 107.54 66.8569 108.53 65.6482 109.394C63.9511 110.608 62.1078 111.603 60.487 112.911C59.8868 113.397 59.3074 113.929 58.9243 114.598L58.9206 114.605C58.8208 115.978 58.7778 117.354 58.8036 118.728C58.8036 118.728 58.9747 118.355 59.1488 118.068C59.963 116.717 61.2283 115.675 62.4947 114.759C64.086 113.609 65.7594 112.582 67.3647 111.464C67.5303 111.349 67.7537 111.18 67.7537 111.18C67.8654 111.115 68.055 111.136 68.0881 111.29C68.1258 111.454 67.9702 111.673 67.9807 111.679C66.0935 114.424 63.7388 116.787 61.1033 118.808C60.3483 119.385 59.5525 119.923 58.9563 120.657L58.9091 120.717C59.171 123.778 59.9308 126.832 61.3045 129.604L61.3498 129.758C61.3784 129.94 61.3927 129.834 61.3866 130.082C61.3861 130.145 61.4042 130.214 61.2648 130.221Z" fill="#006C77"/>
<path d="M86.8027 103.939C86.7842 103.874 86.7729 103.799 86.779 103.719C86.8039 103.426 86.8354 103.132 86.8772 102.84L86.8825 102.805C87.1146 101.39 87.7128 100.034 88.7205 98.9387C89.6762 97.9013 90.8656 97.0989 91.9883 96.3535C92.141 96.2516 92.3189 96.1279 92.4756 96.4072C92.6238 96.6828 92.606 97.033 92.589 97.3673C92.589 97.3673 92.5569 97.6677 92.5233 97.8749C92.2976 99.2691 91.7823 100.661 90.7966 101.794C89.7157 103.037 88.261 103.871 86.8573 104.71L86.7396 104.764L86.6429 104.806C86.4428 105.012 86.2383 105.214 86.0297 105.412C88.0813 104.598 90.3551 104.285 92.4108 104.898C92.9766 105.066 93.5191 105.32 93.9371 105.753C93.9502 105.766 93.9632 105.78 93.9758 105.794C93.9852 105.805 93.994 105.814 94.003 105.825C94.0768 105.915 94.1435 106.031 93.9993 106.181C93.6151 106.579 93.0357 106.754 92.4841 106.951C92.4841 106.951 92.0714 107.093 91.7903 107.188C90.1132 107.747 88.2541 107.833 86.6913 107.133C86.1491 106.891 85.655 106.555 85.2246 106.147C84.0993 107.133 82.8987 108.04 81.7424 108.945C83.966 108.39 86.3956 108.747 88.3146 109.845C88.8178 110.133 89.2753 110.477 89.6203 110.983C89.6265 110.992 89.6317 111.003 89.6371 111.013C89.6533 111.042 89.6694 111.072 89.6847 111.102C89.6941 111.12 89.7038 111.14 89.7126 111.158C89.7192 111.172 89.7255 111.186 89.7316 111.2C89.7788 111.31 89.832 111.44 89.6449 111.555C89.0851 111.893 88.4224 111.999 87.7761 112.163C86.3357 112.525 84.823 112.558 83.4659 112.047C82.4101 111.65 81.4978 110.922 80.9116 109.956C80.8638 109.877 80.8202 109.796 80.7785 109.712C80.6844 109.788 80.5908 109.865 80.4979 109.941C79.0854 111.107 77.7463 112.364 76.5568 113.741C76.8561 113.645 76.9868 113.647 77.1864 113.616C79.1615 113.299 81.2072 113.612 82.931 114.519C83.6592 114.903 84.3419 115.407 84.7615 116.12C84.7663 116.129 84.766 116.129 84.7705 116.138C84.8721 116.345 84.924 116.636 84.924 116.636C84.8912 116.908 84.943 116.768 84.6831 116.847C82.5967 117.457 80.3254 117.386 78.3469 116.58C77.4085 116.198 76.5958 115.508 76.1484 114.61C76.1081 114.529 76.0716 114.446 76.0385 114.361C75.1012 115.519 74.2716 116.761 73.5925 118.102C72.7903 119.684 72.2135 121.361 71.9226 123.093C71.848 123.474 71.7896 123.858 71.7433 124.242L71.582 124.453C71.5482 124.415 71.5532 124.411 71.5331 124.365L71.4533 124.255C71.4729 123.858 71.5067 123.462 71.5526 123.067L71.5542 123.052C71.9194 120.539 72.9118 118.065 74.2755 115.962C74.3047 115.917 74.3335 115.872 74.3629 115.827C71.7959 115.145 69.9607 112.478 70.0613 109.614C70.0818 109.029 70.1262 108.434 70.2539 107.874C70.3153 107.607 70.7029 107.623 71.0936 107.74C71.9025 107.98 72.5461 108.643 73.1311 109.292C73.8683 110.109 74.4953 111.055 74.6594 112.172C74.8069 113.179 74.651 114.21 74.7786 115.224C75.8106 113.783 77.0279 112.491 78.3305 111.28C77.6486 111.085 77.0373 110.695 76.5683 110.159C74.9014 108.254 74.9757 105.065 75.6726 103.153C75.6992 103.08 75.9796 102.152 76.4583 102.457C76.8747 102.723 77.1156 103.227 77.3593 103.659C78.2179 105.195 79.1017 106.815 79.1704 108.499C79.203 109.291 79.0418 110.091 78.7864 110.863C80.3212 109.477 81.9566 108.193 83.5369 106.906C83.3935 106.859 83.2715 106.771 83.1402 106.691C80.9988 105.392 80.5649 101.976 81.953 99.774C82.2535 99.2973 82.7748 98.611 83.0709 99.259C83.4671 100.127 83.7411 101.11 84.0352 102.065C84.3356 103.048 84.5333 104.072 84.4264 105.129C84.3836 105.554 84.2892 105.97 84.1776 106.382C84.2079 106.357 84.2383 106.333 84.268 106.307C85.1606 105.57 86.0205 104.777 86.8027 103.939Z" fill="#006C77"/>
<path fill-rule="evenodd" clip-rule="evenodd" d="M173.239 214.513C173.239 214.513 179.877 198.716 192.15 202.86C198.81 205.108 195.651 213.62 188.922 211.347C184.943 210.004 180.851 208.34 173.239 214.513Z" fill="#0098A7"/>
<path fill-rule="evenodd" clip-rule="evenodd" d="M169.181 211.425C169.181 211.425 164.567 193.634 177.756 187.379C187.092 182.951 191.114 192.479 183.85 195.754C179.555 197.691 170.941 200.122 169.181 211.425Z" fill="#00B3C5"/>
<path d="M115.136 183.757C115.136 183.757 117.171 177.519 122.031 176.873C123.843 176.689 119.83 178.8 122.08 185.771L115.136 183.757Z" fill="#2E2E2E"/>
<path d="M99.6881 190.739C98.4206 192.329 97.2871 196.214 97.2744 197.02C97.2595 197.981 98.6803 202.287 99.8892 202.511C101.098 202.735 103.895 200.552 104.516 199.712C105.138 198.871 101.4 191.94 101.622 191.402C101.622 191.402 99.9303 190.436 99.6881 190.739Z" fill="#2E2E2E"/>
<path d="M88.664 190.478C88.2857 188.988 91.5001 178.108 116.712 182.827C130.86 185.811 138.479 202.093 139.714 211.005C146.571 211.247 150.113 216.069 150.113 216.069C150.113 216.069 137.972 212.685 133.295 224.488C132.655 217.556 137.188 212.265 137.188 212.265C137.188 212.265 136.561 207.106 129.361 204.746C124.683 202.798 107.2 199.277 104.408 197.264C101.617 195.25 89.4155 193.439 88.664 190.478Z" fill="#2E2E2E"/>
<path d="M128.923 202.88C124.541 201.509 124.343 199.964 125.527 199.683C127.783 199.202 132.536 202.997 132.465 201.049C132.393 199.101 127.844 193.933 124.458 194.672C121.073 195.411 121.461 198.846 118.747 199.8C112.018 202.158 103.923 189.646 99.1661 188.252C95.3495 187.134 90.5827 189.794 88.8454 190.89C88.9371 193.366 100.234 198.056 103.287 199.063C107.396 200.418 124.247 201.667 132.727 206.351C132.212 204.99 131.142 203.575 128.923 202.88Z" fill="white"/>
<path d="M108.351 185.651C108.351 185.651 105.422 185.718 104.238 185.28C103.053 184.842 99.6859 185.326 99.5241 185.921C99.3624 186.517 99.5235 187.252 101.93 187.999C104.337 188.745 106.164 188.328 107.168 188.318C109.034 188.299 111.674 185.235 108.351 185.651Z" fill="white"/>
<path d="M104.322 190.688C103.28 192.085 104.358 197.5 104.791 198.319C105.224 199.138 108.459 201.955 109.614 201.449C110.769 200.945 112.187 197.498 112.337 196.432C112.487 195.367 106.019 191.665 105.962 191.084L104.322 190.688Z" fill="#2E2E2E"/>
<path d="M101.961 186.823C101.762 187.247 101.296 187.421 100.919 187.211C100.543 187.001 100.398 186.487 100.596 186.063C100.794 185.639 101.261 185.465 101.637 185.675C102.014 185.885 102.159 186.399 101.961 186.823Z" fill="#2E2E2E"/>
<path d="M375.498 148.253C375.447 148.061 375.395 147.869 375.348 147.685C374.756 147.854 374.131 147.849 373.516 147.654L372.414 197.522H376.586L375.498 148.253Z" fill="#F0ECE5"/>
<path d="M372.697 143.497C372.909 142.98 373.351 142.629 373.856 142.507C373.831 141.971 373.819 141.305 373.84 140.526C372.566 140.671 371.409 141.487 370.889 142.757C370.833 142.895 370.789 143.034 370.75 143.175C371.502 143.335 372.141 143.497 372.655 143.642C372.669 143.594 372.678 143.545 372.697 143.497Z" fill="#347A91"/>
<path d="M375.289 142.829C375.855 143.281 376.087 144.061 375.799 144.765C375.788 144.79 375.773 144.811 375.762 144.835C376.247 145.096 376.817 145.425 377.455 145.829C377.511 145.725 377.562 145.617 377.608 145.505C378.211 144.029 377.769 142.389 376.63 141.396C376.123 141.973 375.674 142.444 375.289 142.829Z" fill="#347A91"/>
<path d="M375.025 147.675C374.78 146.949 374.595 146.315 374.454 145.787C374.178 145.821 373.891 145.795 373.615 145.682C373.288 145.548 373.028 145.321 372.848 145.046C372.394 145.331 371.832 145.662 371.156 146.022C371.545 146.66 372.131 147.186 372.875 147.49C373.046 147.56 373.22 147.611 373.394 147.654C373.941 147.788 374.497 147.791 375.025 147.675Z" fill="#347A91"/>
<path d="M373.855 142.507C374.186 142.427 374.542 142.442 374.88 142.581C375.033 142.643 375.165 142.731 375.288 142.829C375.673 142.444 376.122 141.973 376.628 141.396C378.673 139.069 381.537 135.16 383.848 129.511C386.861 122.148 386.992 112.248 386.992 112.248C386.992 112.248 380.931 118.213 376.867 127.408C374.507 132.749 373.918 137.488 373.839 140.526C373.818 141.305 373.83 141.971 373.855 142.507Z" fill="#F0EBE5"/>
<path d="M374.453 145.786C374.594 146.316 374.779 146.948 375.024 147.675C375.066 147.801 375.112 147.932 375.158 148.063C376.184 150.995 378.111 155.237 381.647 159.838C386.496 166.145 394.987 171.237 394.987 171.237C394.987 171.237 392.881 163 386.976 154.862C383.676 150.311 380.029 147.46 377.455 145.829C376.817 145.424 376.247 145.096 375.762 144.835C375.511 145.374 375.009 145.717 374.453 145.786Z" fill="#F0EBE5"/>
<path d="M372.656 143.642C372.143 143.497 371.504 143.335 370.751 143.175C367.728 142.533 362.85 141.94 356.686 142.735C348.797 143.753 340.125 148.532 340.125 148.532C340.125 148.532 348.304 150.855 358.307 149.845C364.086 149.262 368.472 147.451 371.157 146.023C371.833 145.662 372.395 145.331 372.848 145.046C372.585 144.641 372.507 144.13 372.656 143.642Z" fill="#F0EBE5"/>
<path d="M375.76 144.836C375.771 144.812 375.787 144.791 375.797 144.766C376.085 144.062 375.853 143.281 375.287 142.829C375.165 142.732 375.032 142.643 374.881 142.581C374.542 142.443 374.186 142.427 373.855 142.508C373.35 142.629 372.908 142.98 372.696 143.498C372.676 143.545 372.668 143.594 372.654 143.642C372.504 144.13 372.581 144.641 372.846 145.046C373.025 145.322 373.285 145.548 373.612 145.682C373.889 145.795 374.176 145.821 374.451 145.786C375.008 145.717 375.509 145.374 375.76 144.836Z" fill="white"/>
<path d="M330.774 160.879C330.721 160.679 330.667 160.48 330.618 160.288C330.001 160.464 329.351 160.459 328.71 160.255L327.562 212.187H331.907L330.774 160.879Z" fill="#F0ECE5"/>
<path d="M330.153 158.449C330.735 158.481 331.23 158.798 331.523 159.253C332.042 159.045 332.693 158.807 333.466 158.561C332.89 157.357 331.692 156.497 330.266 156.418C330.11 156.41 329.959 156.414 329.807 156.423C329.906 157.218 329.964 157.902 329.996 158.457C330.048 158.454 330.1 158.446 330.153 158.449Z" fill="#347A91"/>
<path d="M331.692 160.771C331.44 161.482 330.751 161.976 329.96 161.933C329.932 161.931 329.906 161.923 329.879 161.92C329.787 162.486 329.658 163.159 329.477 163.925C329.599 163.944 329.723 163.957 329.848 163.964C331.506 164.055 332.97 163.062 333.558 161.603C332.818 161.301 332.202 161.019 331.692 160.771Z" fill="#347A91"/>
<path d="M326.832 162.161C327.464 161.673 328.024 161.275 328.496 160.956C328.368 160.697 328.297 160.406 328.314 160.095C328.334 159.727 328.469 159.394 328.678 159.124C328.243 158.775 327.726 158.334 327.142 157.791C326.646 158.391 326.328 159.147 326.282 159.983C326.271 160.175 326.28 160.363 326.298 160.549C326.352 161.133 326.539 161.682 326.832 162.161Z" fill="#347A91"/>
<path d="M331.52 159.253C331.711 159.551 331.817 159.907 331.796 160.287C331.787 160.458 331.745 160.618 331.691 160.772C332.201 161.02 332.817 161.302 333.557 161.603C336.544 162.823 341.366 164.31 347.713 164.661C355.985 165.117 365.773 161.874 365.773 161.874C365.773 161.874 357.837 157.942 347.404 157.075C341.344 156.57 336.48 157.605 333.464 158.562C332.69 158.807 332.039 159.045 331.52 159.253Z" fill="#F0EBE5"/>
<path d="M328.502 160.956C328.029 161.275 327.469 161.672 326.838 162.161C326.728 162.246 326.615 162.335 326.502 162.425C323.965 164.434 320.447 167.775 317.124 172.822C312.568 179.742 310.449 189.833 310.449 189.833C310.449 189.833 317.838 184.954 323.836 176.371C327.19 171.573 328.754 167.014 329.482 163.925C329.663 163.159 329.792 162.486 329.883 161.92C329.268 161.857 328.76 161.48 328.502 160.956Z" fill="#F0EBE5"/>
<path d="M329.999 158.456C329.967 157.902 329.909 157.217 329.81 156.423C329.412 153.229 328.334 148.226 325.452 142.431C321.763 135.014 314.107 128.107 314.107 128.107C314.107 128.107 314.606 136.948 319.007 146.448C321.55 151.937 324.826 155.636 327.146 157.791C327.73 158.334 328.248 158.774 328.682 159.124C328.991 158.726 329.468 158.475 329.999 158.456Z" fill="#F0EBE5"/>
<path d="M329.878 161.92C329.905 161.923 329.931 161.931 329.959 161.933C330.75 161.977 331.439 161.483 331.691 160.772C331.746 160.618 331.787 160.458 331.797 160.287C331.818 159.907 331.712 159.551 331.52 159.253C331.228 158.797 330.733 158.481 330.151 158.449C330.097 158.446 330.046 158.454 329.994 158.457C329.463 158.475 328.987 158.726 328.678 159.124C328.468 159.394 328.334 159.728 328.313 160.095C328.296 160.405 328.368 160.697 328.496 160.956C328.754 161.48 329.263 161.857 329.878 161.92Z" fill="white"/>
<path d="M214.175 188.442H224.705C225.703 188.442 226.596 188.87 227.23 189.544C227.763 188.176 228.064 186.451 228.064 184.272C228.064 175.791 245.283 169.862 245.283 149.943C245.283 134.045 232.395 121.157 216.497 121.157C200.6 121.157 187.711 134.045 187.711 149.943C187.711 170.247 204.932 176.177 204.932 184.272C204.932 186.2 205.193 187.777 205.655 189.076C206.219 188.679 206.903 188.442 207.645 188.442H214.175Z" fill="#F4DE9F"/>
<path fill-rule="evenodd" clip-rule="evenodd" d="M215.029 123.649L215.22 123.653L215.412 123.658L215.604 123.666L215.781 123.674L215.961 123.689L216.14 123.715L216.317 123.752L216.492 123.8L216.663 123.858L216.83 123.928L216.992 124.008L217.149 124.098L217.3 124.197L217.445 124.306L217.582 124.424L217.712 124.55L217.834 124.684L217.946 124.825L218.05 124.974L218.145 125.128L218.229 125.288L218.303 125.453L218.367 125.622L218.42 125.796L218.462 125.971L218.492 126.15L218.512 126.33L218.52 126.51L218.517 126.691L218.503 126.872L218.477 127.051L218.44 127.228L218.392 127.402L218.333 127.573L218.263 127.74L218.184 127.903L218.094 128.06L217.994 128.211L217.885 128.355L217.767 128.493L217.641 128.622L217.507 128.744L217.366 128.857L217.218 128.961L217.063 129.055L216.903 129.139L216.738 129.213L216.569 129.277L216.396 129.33L216.22 129.372L216.042 129.403L215.862 129.422L215.681 129.431L215.5 129.427L215.352 129.42L215.22 129.415L215.087 129.411L214.955 129.409L214.824 129.408H214.692L214.561 129.41L214.431 129.413L214.3 129.417L214.17 129.423L214.041 129.43L213.911 129.438L213.782 129.448L213.654 129.459L213.525 129.471L213.397 129.484L213.269 129.499L213.142 129.515L213.015 129.532L212.888 129.551L212.762 129.571L212.635 129.592L212.509 129.614L212.384 129.637L212.258 129.662L212.133 129.688L212.008 129.715L211.884 129.743L211.76 129.773L211.636 129.804L211.512 129.836L211.389 129.869L211.266 129.903L211.143 129.939L211.021 129.976L210.898 130.013L210.777 130.053L210.655 130.093L210.534 130.134L210.413 130.177L210.292 130.221L210.172 130.266L210.052 130.312L209.932 130.359L209.812 130.407L209.693 130.457L209.574 130.507L209.456 130.559L209.337 130.612L209.22 130.666L209.102 130.721L208.985 130.777L208.868 130.835L208.751 130.893L208.635 130.952L208.519 131.013L208.403 131.075L208.288 131.138L208.173 131.202L208.059 131.266L207.945 131.332L207.83 131.399L207.717 131.468L207.604 131.537L207.491 131.607L207.379 131.678L207.267 131.75L207.156 131.824L207.044 131.898L206.933 131.973L206.823 132.05L206.713 132.127L206.604 132.205L206.495 132.285L206.386 132.365L206.278 132.447L206.17 132.529L206.063 132.612L205.956 132.696L205.849 132.781L205.743 132.868L205.638 132.955L205.533 133.043L205.428 133.131L205.324 133.221L205.22 133.312L205.117 133.404L205.015 133.496L204.913 133.59L204.811 133.684L204.71 133.779L204.609 133.875L204.509 133.972L204.41 134.07L204.311 134.169L204.212 134.268L204.115 134.369L204.017 134.47L203.92 134.572L203.824 134.674L203.729 134.778L203.633 134.882L203.539 134.987L203.445 135.093L203.352 135.2L203.259 135.307L203.167 135.416L203.076 135.524L202.985 135.634L202.894 135.744L202.805 135.855L202.716 135.967L202.628 136.08L202.54 136.193L202.453 136.307L202.366 136.421L202.281 136.537L202.196 136.652L202.111 136.769L202.027 136.886L201.944 137.004L201.862 137.122L201.78 137.241L201.699 137.361L201.619 137.481L201.539 137.602L201.461 137.723L201.382 137.845L201.305 137.967L201.228 138.09L201.152 138.214L201.077 138.338L201.002 138.463L200.929 138.588L200.856 138.713L200.783 138.839L200.712 138.966L200.641 139.093L200.571 139.221L200.502 139.349L200.434 139.477L200.366 139.606L200.299 139.735L200.233 139.865L200.168 139.995L200.103 140.125L200.04 140.256L199.977 140.387L199.915 140.519L199.853 140.651L199.793 140.783L199.733 140.916L199.675 141.049L199.617 141.182L199.56 141.316L199.503 141.45L199.448 141.584L199.393 141.718L199.34 141.853L199.287 141.988L199.235 142.123L199.184 142.259L199.134 142.394L199.084 142.53L199.036 142.666L198.988 142.803L198.941 142.939L198.895 143.076L198.851 143.213L198.807 143.35L198.763 143.487L198.721 143.624L198.68 143.762L198.639 143.899L198.6 144.037L198.561 144.175L198.523 144.313L198.487 144.451L198.451 144.589L198.416 144.727L198.382 144.865L198.349 145.003L198.317 145.141L198.286 145.28L198.255 145.418L198.226 145.556L198.198 145.694L198.17 145.832L198.144 145.97L198.118 146.109L198.094 146.247L198.07 146.385L198.048 146.523L198.026 146.661L198.005 146.798L197.986 146.936L197.967 147.074L197.949 147.211L197.933 147.349L197.917 147.486L197.902 147.623L197.888 147.76L197.875 147.897L197.863 148.033L197.853 148.169L197.843 148.306L197.834 148.442L197.826 148.577L197.819 148.713L197.813 148.848L197.808 148.983L197.804 149.118L197.801 149.252L197.8 149.387L197.799 149.521V149.655L197.8 149.788L197.802 149.921L197.805 150.054L197.809 150.186L197.814 150.318L197.821 150.45L197.828 150.582L197.836 150.713L197.845 150.843L197.855 150.974L197.867 151.104L197.879 151.233L197.892 151.362L197.906 151.491L197.922 151.619L197.938 151.747L197.955 151.875L197.974 152.002L197.993 152.128L198.014 152.255L198.035 152.38L198.057 152.505L198.081 152.63L198.105 152.754L198.131 152.878L198.157 153.001L198.185 153.124L198.214 153.246L198.243 153.368L198.274 153.489L198.305 153.61L198.338 153.73L198.372 153.85L198.406 153.969L198.442 154.087L198.479 154.205L198.517 154.323L198.555 154.44L198.595 154.556L198.641 154.684L198.696 154.857L198.739 155.032L198.772 155.21L198.794 155.39L198.804 155.571L198.803 155.751L198.791 155.932L198.767 156.111L198.732 156.289L198.686 156.464L198.629 156.635L198.561 156.803L198.483 156.967L198.395 157.125L198.297 157.277L198.19 157.422L198.074 157.561L197.949 157.692L197.816 157.815L197.676 157.93L197.529 158.035L197.376 158.131L197.217 158.217L197.053 158.294L196.884 158.359L196.712 158.414L196.536 158.458L196.358 158.491L196.179 158.512L195.998 158.523L195.817 158.521L195.637 158.509L195.457 158.485L195.28 158.45L195.105 158.404L194.933 158.347L194.765 158.28L194.602 158.202L194.444 158.113L194.292 158.016L194.146 157.908L194.007 157.792L193.876 157.668L193.753 157.535L193.639 157.395L193.533 157.248L193.437 157.094L193.351 156.935L193.275 156.771L193.209 156.603L193.155 156.448L193.098 156.281L193.042 156.112L192.988 155.944L192.935 155.775L192.884 155.606L192.834 155.436L192.786 155.266L192.74 155.095L192.695 154.924L192.652 154.753L192.61 154.582L192.57 154.41L192.532 154.238L192.494 154.065L192.459 153.892L192.425 153.719L192.392 153.546L192.361 153.372L192.331 153.198L192.303 153.024L192.277 152.849L192.251 152.675L192.227 152.5L192.205 152.325L192.184 152.15L192.165 151.974L192.147 151.799L192.13 151.623L192.115 151.447L192.101 151.271L192.089 151.095L192.078 150.918L192.068 150.742L192.06 150.566L192.053 150.389L192.047 150.212L192.043 150.035L192.04 149.858L192.039 149.681V149.504L192.04 149.327L192.042 149.15L192.046 148.973L192.051 148.796L192.058 148.619L192.065 148.441L192.074 148.264L192.085 148.087L192.096 147.91L192.109 147.733L192.123 147.555L192.139 147.378L192.155 147.201L192.173 147.024L192.192 146.847L192.213 146.671L192.234 146.493L192.257 146.317L192.281 146.14L192.306 145.964L192.333 145.787L192.36 145.611L192.389 145.435L192.419 145.259L192.451 145.083L192.483 144.907L192.517 144.731L192.551 144.556L192.587 144.38L192.624 144.205L192.663 144.03L192.702 143.856L192.743 143.681L192.784 143.507L192.827 143.332L192.871 143.158L192.916 142.985L192.963 142.811L193.01 142.638L193.058 142.465L193.108 142.292L193.159 142.12L193.21 141.948L193.263 141.776L193.317 141.604L193.372 141.433L193.429 141.261L193.486 141.091L193.544 140.92L193.604 140.75L193.664 140.581L193.726 140.411L193.788 140.242L193.852 140.073L193.917 139.905L193.983 139.737L194.049 139.569L194.117 139.402L194.186 139.235L194.256 139.068L194.327 138.902L194.399 138.737L194.472 138.572L194.546 138.407L194.621 138.242L194.697 138.078L194.774 137.915L194.853 137.752L194.932 137.589L195.012 137.427L195.093 137.265L195.175 137.104L195.258 136.944L195.342 136.784L195.427 136.624L195.513 136.465L195.6 136.306L195.688 136.148L195.777 135.991L195.867 135.834L195.958 135.677L196.05 135.521L196.143 135.366L196.237 135.212L196.331 135.058L196.427 134.904L196.524 134.751L196.621 134.599L196.72 134.447L196.819 134.296L196.92 134.146L197.021 133.996L197.124 133.847L197.227 133.699L197.331 133.551L197.436 133.404L197.542 133.258L197.649 133.112L197.757 132.967L197.866 132.823L197.975 132.68L198.086 132.537L198.198 132.395L198.31 132.254L198.423 132.113L198.538 131.973L198.653 131.835L198.769 131.696L198.886 131.559L199.003 131.422L199.122 131.287L199.242 131.152L199.362 131.018L199.484 130.884L199.606 130.752L199.729 130.62L199.853 130.49L199.978 130.36L200.104 130.231L200.231 130.103L200.358 129.976L200.486 129.85L200.616 129.725L200.746 129.6L200.877 129.477L201.009 129.355L201.141 129.233L201.275 129.112L201.409 128.993L201.545 128.875L201.681 128.757L201.818 128.641L201.956 128.525L202.094 128.411L202.234 128.298L202.374 128.185L202.515 128.074L202.657 127.964L202.8 127.855L202.944 127.747L203.088 127.64L203.234 127.534L203.38 127.43L203.527 127.326L203.675 127.224L203.823 127.123L203.973 127.023L204.123 126.924L204.274 126.827L204.426 126.73L204.579 126.635L204.732 126.541L204.887 126.449L205.041 126.357L205.197 126.267L205.354 126.178L205.511 126.091L205.67 126.005L205.829 125.92L205.988 125.836L206.149 125.754L206.31 125.673L206.472 125.594L206.635 125.516L206.798 125.439L206.963 125.364L207.128 125.29L207.294 125.218L207.46 125.147L207.628 125.078L207.796 125.01L207.964 124.943L208.134 124.878L208.304 124.815L208.474 124.753L208.646 124.692L208.818 124.633L208.991 124.576L209.165 124.521L209.339 124.466L209.514 124.414L209.69 124.363L209.866 124.314L210.043 124.266L210.22 124.22L210.398 124.176L210.577 124.134L210.756 124.093L210.936 124.054L211.117 124.016L211.298 123.98L211.48 123.946L211.662 123.914L211.845 123.884L212.028 123.855L212.212 123.828L212.397 123.803L212.582 123.78L212.767 123.759L212.953 123.739L213.14 123.722L213.326 123.706L213.514 123.692L213.702 123.68L213.89 123.67L214.079 123.662L214.268 123.655L214.458 123.651L214.648 123.648H214.838L215.029 123.649Z" fill="white"/>
<path fill-rule="evenodd" clip-rule="evenodd" d="M200.009 162.173L200.077 162.175L200.144 162.179L200.211 162.183L200.278 162.19L200.346 162.198L200.412 162.208L200.479 162.219L200.545 162.232L200.611 162.246L200.677 162.262L200.742 162.28L200.807 162.299L200.871 162.319L200.935 162.341L200.998 162.364L201.061 162.389L201.123 162.416L201.185 162.444L201.246 162.473L201.306 162.504L201.365 162.536L201.424 162.569L201.482 162.604L201.539 162.64L201.595 162.678L201.65 162.717L201.704 162.757L201.758 162.798L201.81 162.841L201.861 162.885L201.912 162.93L201.961 162.976L202.009 163.023L202.056 163.072L202.102 163.121L202.147 163.172L202.19 163.224L202.232 163.276L202.273 163.33L202.313 163.384L202.352 163.44L202.389 163.496L202.425 163.553L202.459 163.612L202.492 163.67L202.524 163.73L202.554 163.79L202.583 163.851L202.61 163.913L202.636 163.975L202.661 164.038L202.71 164.167L202.756 164.288L202.802 164.407L202.848 164.524L202.895 164.64L202.942 164.753L202.989 164.865L203.036 164.976L203.084 165.084L203.132 165.191L203.18 165.297L203.229 165.401L203.278 165.503L203.327 165.604L203.378 165.703L203.428 165.8L203.479 165.896L203.531 165.991L203.584 166.084L203.637 166.176L203.691 166.267L203.745 166.357L203.801 166.445L203.857 166.532L203.914 166.618L203.973 166.703L204.032 166.787L204.092 166.87L204.154 166.953L204.217 167.034L204.281 167.115L204.36 167.212L204.402 167.264L204.443 167.318L204.482 167.373L204.521 167.428L204.558 167.485L204.593 167.542L204.628 167.6L204.66 167.659L204.692 167.719L204.722 167.779L204.751 167.84L204.778 167.902L204.804 167.965L204.828 168.028L204.851 168.091L204.873 168.155L204.892 168.22L204.911 168.285L204.928 168.35L204.943 168.416L204.957 168.482L204.969 168.548L204.979 168.615L204.988 168.682L204.996 168.749L205.002 168.816L205.006 168.884L205.009 168.951L205.01 169.019V169.086L205.008 169.154L205.004 169.221L204.999 169.288L204.992 169.356L204.984 169.423L204.974 169.489L204.963 169.556L204.95 169.622L204.935 169.688L204.919 169.754L204.901 169.819L204.882 169.884L204.861 169.948L204.839 170.012L204.816 170.075L204.791 170.138L204.764 170.2L204.736 170.261L204.706 170.322L204.676 170.382L204.643 170.441L204.61 170.5L204.575 170.557L204.538 170.614L204.5 170.67L204.461 170.725L204.421 170.78L204.38 170.833L204.337 170.885L204.293 170.936L204.248 170.987L204.201 171.036L204.154 171.084L204.105 171.131L204.056 171.176L204.005 171.221L203.953 171.264L203.9 171.306L203.847 171.347L203.792 171.387L203.736 171.425L203.68 171.462L203.623 171.498L203.564 171.532L203.505 171.565L203.446 171.597L203.385 171.627L203.324 171.655L203.262 171.683L203.2 171.708L203.137 171.733L203.074 171.756L203.01 171.777L202.945 171.797L202.88 171.815L202.815 171.832L202.749 171.847L202.683 171.861L202.616 171.873L202.55 171.884L202.483 171.893L202.416 171.9L202.348 171.906L202.281 171.911L202.214 171.913L202.146 171.915L202.078 171.914L202.011 171.912L201.944 171.909L201.876 171.903L201.809 171.897L201.742 171.888L201.675 171.878L201.609 171.867L201.542 171.854L201.477 171.839L201.411 171.823L201.346 171.806L201.281 171.787L201.217 171.766L201.153 171.744L201.09 171.72L201.027 171.695L200.965 171.668L200.904 171.64L200.843 171.611L200.783 171.58L200.723 171.548L200.665 171.514L200.607 171.479L200.55 171.443L200.494 171.405L200.439 171.366L200.385 171.326L200.332 171.284L200.28 171.241L200.228 171.197L200.178 171.152L200.129 171.106L200.081 171.058L200.034 171.01L199.988 170.96L199.944 170.909L199.901 170.858L199.795 170.729L199.679 170.582L199.566 170.435L199.455 170.288L199.348 170.139L199.243 169.991L199.14 169.841L199.04 169.691L198.943 169.541L198.849 169.39L198.756 169.239L198.666 169.087L198.579 168.936L198.494 168.784L198.411 168.632L198.33 168.48L198.251 168.328L198.174 168.176L198.099 168.024L198.026 167.873L197.955 167.72L197.885 167.569L197.817 167.417L197.751 167.266L197.686 167.115L197.623 166.963L197.561 166.812L197.5 166.662L197.44 166.511L197.382 166.361L197.324 166.211L197.27 166.068L197.247 166.004L197.226 165.94L197.206 165.876L197.187 165.811L197.17 165.746L197.155 165.68L197.141 165.614L197.128 165.547L197.118 165.481L197.108 165.414L197.101 165.347L197.095 165.28L197.09 165.212L197.087 165.145L197.086 165.077V165.01L197.088 164.942L197.091 164.875L197.096 164.807L197.103 164.74L197.111 164.673L197.121 164.606L197.132 164.54L197.145 164.473L197.159 164.408L197.175 164.342L197.192 164.277L197.211 164.212L197.232 164.148L197.254 164.084L197.277 164.02L197.302 163.958L197.329 163.895L197.356 163.834L197.386 163.773L197.416 163.713L197.449 163.654L197.482 163.595L197.517 163.537L197.553 163.48L197.591 163.424L197.629 163.369L197.67 163.315L197.711 163.261L197.754 163.209L197.797 163.157L197.842 163.107L197.889 163.058L197.936 163.01L197.984 162.963L198.034 162.917L198.085 162.872L198.136 162.829L198.189 162.786L198.243 162.745L198.297 162.706L198.353 162.667L198.409 162.63L198.466 162.594L198.524 162.56L198.583 162.527L198.643 162.495L198.703 162.465L198.764 162.436L198.826 162.408L198.888 162.382L198.951 162.358L199.014 162.335L199.078 162.313L199.143 162.293L199.208 162.275L199.273 162.258L199.339 162.242L199.405 162.228L199.471 162.216L199.538 162.205L199.605 162.196L199.672 162.188L199.739 162.182L199.807 162.177L199.874 162.174L199.942 162.173H200.009Z" fill="white"/>
<path d="M355.638 59.7653C355.262 59.7374 354.883 59.7233 354.5 59.7233C352.539 59.7233 350.657 60.0957 348.906 60.78C345.391 62.1544 341.477 60.8639 339.345 57.4658C335.674 51.6148 329.577 47.7861 322.673 47.7861C315.897 47.7861 309.899 51.4735 306.208 57.1413C304.107 60.3662 300.438 61.7573 297.02 60.571C295.433 60.0202 293.746 59.7233 291.995 59.7233C291.613 59.7233 291.234 59.7374 290.858 59.7653C286.126 60.1156 283.664 63.864 283.352 67.8722H363.144C362.832 63.864 360.37 60.1156 355.638 59.7653Z" fill="white"/>
<path d="M72.669 176.812C72.2931 176.784 71.9139 176.77 71.5316 176.77C69.5704 176.77 67.6878 177.143 65.9375 177.827C62.4219 179.201 58.5082 177.911 56.3763 174.513C52.7051 168.662 46.6079 164.833 39.7039 164.833C32.9283 164.833 26.9301 168.52 23.2388 174.188C21.1386 177.413 17.4695 178.804 14.051 177.618C12.4644 177.067 10.7768 176.77 9.02659 176.77C8.64426 176.77 8.26512 176.784 7.88914 176.812C3.15699 177.162 0.694969 180.911 0.382812 184.919H80.1754C79.8632 180.911 77.4013 177.162 72.669 176.812Z" fill="white"/>
<path d="M313.01 24.8668C312.665 24.8413 312.318 24.8284 311.968 24.8284C310.172 24.8284 308.448 25.1693 306.846 25.7959C303.627 27.0543 300.043 25.8727 298.091 22.7614C294.729 17.4037 289.147 13.8979 282.825 13.8979C276.621 13.8979 271.128 17.2745 267.748 22.464C265.825 25.4169 262.466 26.6908 259.336 25.6045C257.883 25.1002 256.338 24.8284 254.735 24.8284C254.385 24.8284 254.038 24.8413 253.694 24.8668C249.36 25.1876 247.106 28.6199 246.82 32.2899H319.883C319.597 28.6199 317.343 25.1876 313.01 24.8668Z" fill="white"/>
<path d="M122.564 134.437C122.22 134.411 121.873 134.398 121.523 134.398C119.727 134.398 118.003 134.739 116.4 135.366C113.182 136.624 109.598 135.443 107.646 132.331C104.284 126.973 98.7012 123.468 92.3796 123.468C86.1755 123.468 80.683 126.844 77.3032 132.034C75.3801 134.987 72.0205 136.261 68.8903 135.174C67.4374 134.67 65.8923 134.398 64.2897 134.398C63.9396 134.398 63.5925 134.411 63.2482 134.437C58.9151 134.757 56.6608 138.19 56.375 141.86H129.437C129.152 138.19 126.897 134.757 122.564 134.437Z" fill="white"/>
<path d="M216.497 211.885C220.476 211.885 223.808 209.139 224.722 205.442H208.273C209.187 209.139 212.518 211.885 216.497 211.885Z" fill="#003C3C"/>
<path d="M214.96 194.442H225.37C225.872 194.442 226.346 194.557 226.776 194.746C227.624 194.113 228.18 193.111 228.18 191.972V191.912C228.18 190.994 227.816 190.165 227.234 189.544C226.601 188.869 225.708 188.442 224.71 188.442H218.18V164.85C220.18 158.239 227.365 160.224 229.679 141.718C229.679 141.718 218.464 148.272 216.922 160.224C216.922 160.224 216.52 154.441 205.724 148.658C205.724 148.658 208.988 155.212 209.759 159.067C210.53 162.922 214.18 164.85 214.18 164.85V188.442H207.649C206.908 188.442 206.224 188.679 205.66 189.075C204.767 189.703 204.18 190.737 204.18 191.912V191.972C204.18 193.234 204.86 194.328 205.868 194.935C206.387 194.637 206.987 194.442 207.635 194.442H214.96Z" fill="#00C29B"/>
<path d="M228.837 197.442C228.837 196.42 227.988 195.276 226.774 194.746C226.344 194.557 225.87 194.442 225.368 194.442H218.042H214.958H207.633C206.985 194.442 206.385 194.637 205.866 194.935C204.851 195.519 204.164 196.526 204.164 197.442C204.164 198.826 205.717 200.442 207.633 200.442H225.368C227.284 200.442 228.837 198.826 228.837 197.442Z" fill="#003C3C"/>
<path d="M207.634 200.442C205.717 200.442 204.164 201.558 204.164 202.942C204.164 204.326 205.717 205.442 207.634 205.442H225.369C227.284 205.442 228.838 204.326 228.838 202.942C228.838 201.558 227.284 200.442 225.369 200.442H207.634Z" fill="#00C29B"/>
</svg>
