<?xml version="1.0" encoding="utf-8"?>
<!-- Generator: Adobe Illustrator 27.5.0, SVG Export Plug-In . SVG Version: 6.00 Build 0)  -->
<svg version="1.1" xmlns="http://www.w3.org/2000/svg" xmlns:xlink="http://www.w3.org/1999/xlink" x="0px" y="0px"
	 viewBox="0 0 500 500" style="enable-background:new 0 0 500 500;" xml:space="preserve">
<g id="BACKGROUND">
	<rect x="-0.001" style="fill:#FFFFFF;" width="500" height="500"/>
</g>
<g id="OBJECTS">
	<path style="fill:#FFDE25;" d="M461.628,390.712c0-116.879-94.749-211.628-211.628-211.628S38.372,273.833,38.372,390.712"/>
	<g>
		<polyline style="fill:#FBB62D;" points="258.298,330.157 297.574,299.694 326.043,319.891 369.883,292.553 426.408,334.942 
			423.606,359.949 278.066,366.292 		"/>
		<g>
			<path style="fill:#4E8D3A;" d="M353.013,367.447c-0.088,0-0.178-0.008-0.268-0.023c-0.815-0.147-1.357-0.928-1.21-1.742
				c6.411-35.573-9.422-56.815-9.583-57.025c-0.502-0.658-0.377-1.6,0.28-2.103c0.656-0.502,1.596-0.381,2.101,0.277
				c0.689,0.898,16.814,22.431,10.154,59.381C354.357,366.938,353.725,367.447,353.013,367.447z"/>
			<path style="fill:#4E8D3A;" d="M346.532,313.39c0,0,4.52-10.143-7.888-11.453C336.463,313.956,346.532,313.39,346.532,313.39z"/>
			<path style="fill:#4E8D3A;" d="M349.63,319.824c0,0,10.878,2.231,9.487-10.168C346.911,310.113,349.63,319.824,349.63,319.824z"
				/>
			<path style="fill:#4E8D3A;" d="M349.832,319.593c0,0-6.975-8.64-13.788,1.813C345.754,328.817,349.832,319.593,349.832,319.593z"
				/>
			<path style="fill:#4E8D3A;" d="M352.378,330.662c0,0,9.958,4.914,11.753-7.433C352.207,320.579,352.378,330.662,352.378,330.662z
				"/>
			<path style="fill:#4E8D3A;" d="M352.632,330.49c0,0-4.56-10.125-13.798-1.739C346.35,338.379,352.632,330.49,352.632,330.49z"/>
			<path style="fill:#4E8D3A;" d="M354.197,343.72c0,0,8.977,6.536,12.847-5.325C355.744,333.755,354.197,343.72,354.197,343.72z"/>
			<path style="fill:#4E8D3A;" d="M354.476,343.594c0,0-2.771-10.753-13.301-4.061C346.944,350.3,354.476,343.594,354.476,343.594z"
				/>
		</g>
		<g>
			<path style="fill:#6EA843;" d="M431.429,334.425c-0.213,0-0.43-0.046-0.637-0.142c-0.75-0.352-1.072-1.245-0.72-1.995
				c15.957-33.986,41.569-42.211,42.651-42.545c0.791-0.239,1.629,0.199,1.874,0.99c0.245,0.791-0.198,1.631-0.989,1.876
				c-0.253,0.079-25.459,8.235-40.82,40.954C432.532,334.107,431.992,334.425,431.429,334.425z"/>
			<path style="fill:#6EA843;" d="M467.134,293.818c0,0,2.185-10.887,13.062-4.774C475.017,300.107,467.134,293.818,467.134,293.818
				z"/>
			<path style="fill:#6EA843;" d="M460.883,297.271c0,0-10.162-4.477-1.851-13.783C468.721,290.926,460.883,297.271,460.883,297.271
				z"/>
			<path style="fill:#6EA843;" d="M460.852,296.966c0,0,10.689-3.008,10.195,9.459C458.839,306.848,460.852,296.966,460.852,296.966
				z"/>
			<path style="fill:#6EA843;" d="M452.369,304.519c0,0-10.964-1.757-5.282-12.864C458.345,296.395,452.369,304.519,452.369,304.519
				z"/>
			<path style="fill:#6EA843;" d="M452.262,304.231c0,0,9.579-5.617,12.258,6.568C452.818,314.301,452.262,304.231,452.262,304.231z
				"/>
			<path style="fill:#6EA843;" d="M443.328,314.115c0,0-11.103,0.134-7.394-11.778C447.834,305.093,443.328,314.115,443.328,314.115
				z"/>
			<path style="fill:#6EA843;" d="M443.173,313.85c0,0,8.483-7.165,13.197,4.387C445.434,323.678,443.173,313.85,443.173,313.85z"/>
		</g>
		<g>
			<path style="fill:#6EA843;" d="M333.327,270.29c0-14.337-11.622-53.19-25.959-53.19c-14.337,0-25.959,38.853-25.959,53.19
				c0,14.337,11.622,25.959,25.959,25.959C321.705,296.249,333.327,284.627,333.327,270.29z"/>
			<path style="fill:#13304E;" d="M307.368,333.277c-0.829,0-1.5-0.672-1.5-1.5v-73.128c0-0.828,0.671-1.5,1.5-1.5
				c0.829,0,1.5,0.672,1.5,1.5v73.128C308.868,332.605,308.196,333.277,307.368,333.277z"/>
			<path style="fill:#13304E;" d="M307.368,290.005c-0.38,0-0.761-0.144-1.053-0.432l-9.709-9.567
				c-0.59-0.581-0.597-1.531-0.016-2.121c0.581-0.59,1.531-0.597,2.121-0.016l9.709,9.567c0.59,0.581,0.597,1.531,0.016,2.121
				C308.143,289.855,307.755,290.005,307.368,290.005z"/>
			<path style="fill:#13304E;" d="M307.368,276.397c-0.383,0-0.765-0.145-1.058-0.437c-0.587-0.585-0.589-1.534-0.005-2.121
				l6.634-6.667c0.585-0.588,1.534-0.59,2.122-0.006c0.587,0.585,0.589,1.534,0.005,2.121l-6.634,6.667
				C308.138,276.25,307.753,276.397,307.368,276.397z"/>
			<path style="fill:#13304E;" d="M307.369,311.233c-0.43,0-0.856-0.184-1.153-0.54c-0.53-0.636-0.444-1.582,0.192-2.112
				l8.043-6.702c0.638-0.53,1.583-0.444,2.113,0.192c0.53,0.636,0.444,1.582-0.192,2.112l-8.043,6.702
				C308.047,311.119,307.707,311.233,307.369,311.233z"/>
		</g>
		<g>
			<path style="fill:#6EA843;" d="M351.795,273.603c0-18.435,14.944-68.392,33.379-68.392s33.379,49.958,33.379,68.392
				s-14.944,33.379-33.379,33.379S351.795,292.038,351.795,273.603z"/>
			<path style="fill:#13304E;" d="M385.174,354.165c-0.829,0-1.5-0.672-1.5-1.5v-94.029c0-0.828,0.671-1.5,1.5-1.5
				c0.829,0,1.5,0.672,1.5,1.5v94.029C386.674,353.493,386.003,354.165,385.174,354.165z"/>
			<path style="fill:#13304E;" d="M385.174,298.524c-0.388,0-0.775-0.149-1.068-0.447c-0.581-0.59-0.575-1.54,0.016-2.121
				l12.484-12.301c0.589-0.582,1.54-0.574,2.121,0.016c0.582,0.59,0.575,1.54-0.016,2.121l-12.484,12.301
				C385.935,298.381,385.554,298.524,385.174,298.524z"/>
			<path style="fill:#13304E;" d="M385.174,281.027c-0.385,0-0.77-0.147-1.063-0.442l-8.531-8.572
				c-0.584-0.587-0.582-1.536,0.005-2.121c0.587-0.583,1.537-0.582,2.122,0.006l8.531,8.572c0.584,0.587,0.582,1.536-0.005,2.121
				C385.94,280.882,385.557,281.027,385.174,281.027z"/>
			<path style="fill:#13304E;" d="M385.173,325.82c-0.338,0-0.679-0.114-0.96-0.348l-10.342-8.618
				c-0.636-0.53-0.722-1.477-0.192-2.112c0.53-0.637,1.475-0.723,2.113-0.192l10.342,8.618c0.636,0.53,0.722,1.477,0.192,2.112
				C386.029,325.637,385.603,325.82,385.173,325.82z"/>
		</g>
		<g>
			<path style="fill:#4E8D3A;" d="M447.731,347.086c0.318-11.124-3.002-21.627-10.618-26.635c-16.495-10.847-42.552,0-40.342,22.34
				c-28.737-4.509-30.013,16.786-30.013,16.786s-8.671-15.592-29.671-4.36c1.105-24.689-21-39.416-40.342-27.604
				C285.692,293.004,250,289.867,250,289.867v91.359l172.027-0.383c3.984,6.781,11.35,1.274,19.783,1.274
				c12.666,0,22.934-0.206,22.934-12.872C464.745,358.626,457.527,349.697,447.731,347.086z"/>
			<path style="opacity:0.2;fill:#13304E;" d="M449.08,370.513c0,14.01-11.357,16.723-25.366,16.723s-25.367-2.714-25.367-16.723
				c0-14.01,11.357-25.367,25.367-25.367S449.08,356.504,449.08,370.513z"/>
			<path style="fill:#6EA843;" d="M383.474,377.386c0,0-9.577-8.476-7.729-11.43c1.848-2.954,8.905,3.935,8.905,3.935
				s-6.889-11.634-2.352-13.714c4.537-2.08,6.889,11.53,6.889,11.53s1.344-11.085,5.041-10.245c3.696,0.84,0.168,13.32,0.168,13.32
				s3.865-8.843,7.393-7.555c3.528,1.287-4.369,15.052-4.369,15.052"/>
			<path style="opacity:0.2;fill:#13304E;" d="M250,378.278v-43.814c0,0,47.85-7.55,51.166,43.814"/>
			<path style="fill:#6EA843;" d="M251.632,376.151c0,0,1.215-23.439,6.251-23.526c5.035-0.087,2.604,15.912,2.604,15.912
				s4.256-15.912,8.966-14.103c4.351,1.671-3.658,15.629-3.658,15.629s8.48-9.22,11.535-5.997
				c3.413,3.603-10.939,14.212-10.939,14.212"/>
		</g>
		<path style="fill:#A4CD49;" d="M411.33,268.23c0,3.775-3.06,6.836-6.836,6.836c-3.775,0-6.836-3.061-6.836-6.836
			c0-3.775,3.06-6.836,6.836-6.836C408.269,261.394,411.33,264.455,411.33,268.23z"/>
		<path style="fill:#A4CD49;" d="M407.633,251.379c0,1.462-1.185,2.648-2.648,2.648c-1.462,0-2.648-1.185-2.648-2.648
			c0-1.462,1.185-2.648,2.648-2.648C406.448,248.732,407.633,249.917,407.633,251.379z"/>
		<circle style="fill:#A4CD49;" cx="366.376" cy="285.201" r="5.673"/>
		<path style="fill:#A4CD49;" d="M322.657,276.547c0,1.646-1.335,2.981-2.981,2.981c-1.646,0-2.981-1.335-2.981-2.981
			s1.335-2.981,2.981-2.981C321.322,273.566,322.657,274.901,322.657,276.547z"/>
		<circle style="fill:#A4CD49;" cx="293.91" cy="263.624" r="6.067"/>
		<circle style="opacity:0.2;fill:#13304E;" cx="319.469" cy="370.781" r="12.207"/>
		<circle style="opacity:0.2;fill:#13304E;" cx="304.214" cy="356.176" r="3.048"/>
		<circle style="opacity:0.2;fill:#13304E;" cx="436.622" cy="337.339" r="3.048"/>
		<path style="opacity:0.2;fill:#13304E;" d="M319.907,349.314c0,2.483-2.013,4.495-4.496,4.495c-2.483,0-4.495-2.013-4.495-4.495
			c0-2.483,2.013-4.496,4.495-4.496C317.894,344.818,319.907,346.831,319.907,349.314z"/>
		<path style="opacity:0.2;fill:#13304E;" d="M271.078,322.092c0,3.529-2.861,6.39-6.39,6.39c-3.529,0-6.39-2.861-6.39-6.39
			s2.861-6.39,6.39-6.39C268.217,315.702,271.078,318.563,271.078,322.092z"/>
		<path style="fill:#DBEBB7;" d="M288.006,170.19h69.303c0,0-4.397-16.271-19.029-11.818c-3.343-21.531-32.318-23.299-34.93,1.322
			C292.054,157.061,288.006,170.19,288.006,170.19z"/>
		<path style="fill:#DBEBB7;" d="M374.82,145.756h81.442c0,0-6.904-12.076-22.333-7.717c-0.514-16.214-24.209-27.035-41.659-9.659
			C378.384,123.369,369.713,138.314,374.82,145.756z"/>
		<path style="fill:#DBEBB7;" d="M403.338,101.093h-99.533c0,0,8.437-14.758,27.294-9.431c0.629-19.815,29.587-33.04,50.913-11.805
			C398.983,73.732,409.579,91.997,403.338,101.093z"/>
		<path style="fill:#13304E;" d="M419.745,213.343c-0.1,0-0.201-0.015-0.299-0.046c-0.392-0.123-0.669-0.473-0.698-0.883
			c-0.2-2.796-4.275-4.456-4.316-4.473c-0.512-0.205-0.763-0.786-0.559-1.298c0.204-0.513,0.785-0.763,1.296-0.561
			c0.182,0.072,3.802,1.538,5.115,4.416c3.089-2.11,7.432-1.038,7.643-0.984c0.534,0.137,0.856,0.68,0.72,1.214
			c-0.136,0.535-0.68,0.858-1.214,0.724c-0.048-0.012-4.748-1.159-6.91,1.519C420.33,213.211,420.042,213.343,419.745,213.343z"/>
		<path style="fill:#13304E;" d="M435.657,193.961c-0.023,0-0.046-0.001-0.069-0.002c-0.41-0.028-0.761-0.304-0.885-0.696
			c-0.544-1.718-3.472-2.182-3.501-2.186c-0.547-0.078-0.927-0.585-0.849-1.131c0.078-0.547,0.588-0.93,1.131-0.849
			c0.137,0.02,2.743,0.412,4.254,2.07c1.907-1.837,4.966-1.815,5.126-1.814c0.552,0.008,0.993,0.463,0.985,1.015
			c-0.008,0.552-0.478,1.018-1.015,0.985c-0.014,0.006-3.299-0.012-4.274,2.038C436.393,193.741,436.041,193.961,435.657,193.961z"
			/>
		<path style="fill:#13304E;" d="M402.199,186.131c-0.348,0-0.676-0.182-0.858-0.488c-1.436-2.409-5.821-2.063-5.866-2.057
			c-0.545,0.043-1.034-0.359-1.082-0.909c-0.048-0.549,0.357-1.034,0.907-1.083c0.195-0.017,4.087-0.334,6.554,1.648
			c1.812-3.274,6.173-4.267,6.385-4.313c0.538-0.116,1.07,0.223,1.189,0.762c0.119,0.538-0.222,1.072-0.76,1.192
			c-0.048,0.011-4.762,1.098-5.491,4.462c-0.087,0.401-0.411,0.709-0.816,0.775C402.307,186.126,402.253,186.131,402.199,186.131z"
			/>
	</g>
	<g>
		<path style="fill:#7B8C9D;" d="M187.347,117.095c0,0-6.112-3.222-3.082-11.429c-7.165,5.097-20.464-1.687-19.199-12.654
			c-9.35,4.749-25.952,1.621-19.682-16.854c-7.038-0.497-10.174-14.473,0.52-16.327c-1.334-9.86,29.406-26.829,42.719,1.877
			c9.942-2.516,13.518,12.426,3.914,15.665c5.685,1.873,8.574,14.265,0.259,19.014c15.404-1.65,16.834,12.74,15.056,19.84"/>
		<path style="fill:#919FAD;" d="M159.286,87.424c0.226,1.517-0.82,2.93-2.336,3.156c-1.517,0.226-2.93-0.819-3.156-2.336
			c-0.226-1.517,0.82-2.93,2.336-3.156C157.646,84.861,159.059,85.907,159.286,87.424z"/>
		<path style="fill:#919FAD;" d="M172.462,84.507c0.303,2.033-1.099,3.927-3.132,4.231c-2.033,0.303-3.927-1.099-4.231-3.132
			c-0.303-2.033,1.099-3.927,3.132-4.231C170.265,81.072,172.159,82.474,172.462,84.507z"/>
		<path style="fill:#919FAD;" d="M181.751,95.488c0.456,3.056-1.651,5.902-4.707,6.359s-5.902-1.651-6.359-4.707
			c-0.456-3.056,1.651-5.902,4.707-6.358C178.448,90.325,181.295,92.433,181.751,95.488z"/>
		<g>
			<path style="fill:#7B8C9D;" d="M71.691,95.01c0,0,12.473-1.01,15.96,10.47c3.524,11.602-6.383,20.801-6.383,20.801
				s3.193,0.415,2.659,3.866c4.285-1.399,8.959,1.771,8.085,6.632c7.752,2.84,8.499,13.57,0.663,17.557
				c10.002,9.101-1.815,22.788-1.815,22.788H79.785c0,0-1.546-7.502-3.006-10.384c-12.784,2.55-15.239-8.59-15.239-8.59
				s-11.102-0.998-10.16-13.786c-14.819,1.98-19.234-13.111-11.477-20.786c-15.38-10.096-7.432-41.494,14.676-36.325
				c3.507-4.819,6.867-0.203,6.867-0.203S70.741,84.246,71.691,95.01z"/>
			<path style="fill:#919FAD;" d="M52.431,135.502c0.087,2.937-2.224,5.389-5.161,5.476c-2.937,0.087-5.389-2.224-5.476-5.161
				c-0.087-2.937,2.224-5.389,5.161-5.476C49.893,130.254,52.345,132.564,52.431,135.502z"/>
			<path style="fill:#919FAD;" d="M60.553,146.269c0.041,1.398-1.059,2.565-2.457,2.607c-1.398,0.041-2.565-1.059-2.607-2.457
				c-0.041-1.398,1.059-2.565,2.457-2.607C59.345,143.771,60.512,144.871,60.553,146.269z"/>
			<path style="fill:#919FAD;" d="M92.133,159.571c0.041,1.398-1.059,2.565-2.457,2.607c-1.398,0.041-2.565-1.059-2.607-2.457
				c-0.041-1.398,1.059-2.565,2.457-2.607C90.925,157.073,92.092,158.173,92.133,159.571z"/>
			<path style="fill:#919FAD;" d="M66.666,137.693c0.071,2.387-1.807,4.378-4.193,4.449c-2.387,0.071-4.378-1.807-4.449-4.193
				c-0.071-2.386,1.807-4.378,4.193-4.449C64.603,133.429,66.595,135.306,66.666,137.693z"/>
		</g>
		<g>
			<g>
				<rect x="221.338" y="164.747" style="fill:#38516A;" width="7.448" height="87.95"/>
				<path style="fill:#7B8C9D;" d="M221.338,162.179c0,0-2.999-3.097,0-7.976c-13.702,2.91-30.194-5.249-33.563-14.566
					c-9.867,10.769-26.287,12.447-31.235-3.878c-6.241,0-7.91-10.422-1.697-12.901c1.225-5.762,5.601-3.413,5.601-3.413
					s14.177-11.376,20.843,4.317c10.177-1.952,9.165,7.208,9.165,7.208s32.335-9.891,33.194,12.774
					c7.234-0.178,6.38,6.554,6.38,6.554s4.884,4.977-1.239,11.882"/>
				<path style="fill:#919FAD;" d="M168.702,137.521c0.233,1.562-0.844,3.018-2.407,3.251c-1.562,0.233-3.018-0.844-3.251-2.407
					c-0.233-1.562,0.844-3.018,2.407-3.251C167.013,134.881,168.469,135.958,168.702,137.521z"/>
				<path style="fill:#919FAD;" d="M179.391,139.102c0.32,2.143-1.158,4.139-3.3,4.458c-2.143,0.32-4.139-1.158-4.458-3.3
					c-0.32-2.142,1.158-4.139,3.3-4.458C177.075,135.482,179.071,136.96,179.391,139.102z"/>
				<rect x="219.245" y="160.411" style="fill:#13304E;" width="11.635" height="8.672"/>
				<rect x="221.338" y="174.17" style="fill:#13304E;" width="7.448" height="5.469"/>
				<rect x="221.338" y="184.546" style="fill:#7B8C9D;" width="7.448" height="2.643"/>
				<rect x="221.338" y="190.455" style="fill:#7B8C9D;" width="7.448" height="2.643"/>
				<rect x="221.338" y="196.364" style="fill:#7B8C9D;" width="7.448" height="2.643"/>
				<rect x="221.338" y="202.273" style="fill:#7B8C9D;" width="7.448" height="2.643"/>
			</g>
			<g>
				<rect x="184.265" y="117.976" style="fill:#13304E;" width="23.371" height="147.602"/>
				<rect x="184.265" y="171.732" style="fill:#FFFFFF;" width="23.371" height="2.439"/>
				<rect x="184.265" y="176.905" style="fill:#FFFFFF;" width="23.371" height="2.439"/>
				<rect x="184.265" y="182.078" style="fill:#FFFFFF;" width="23.371" height="2.439"/>
				<rect x="184.265" y="187.251" style="fill:#FFFFFF;" width="23.371" height="2.439"/>
				<path style="fill:#38516A;" d="M206.254,113.873h-20.607c-2.118,0-3.835,1.717-3.835,3.835v0.536
					c0,2.118,1.717,3.835,3.835,3.835h20.607c2.118,0,3.835-1.717,3.835-3.835v-0.536
					C210.089,115.59,208.372,113.873,206.254,113.873z"/>
				<rect x="184.265" y="128.189" style="fill:#38516A;" width="23.371" height="8.892"/>
				<rect x="184.265" y="143.191" style="fill:#38516A;" width="23.371" height="8.892"/>
				<rect x="184.265" y="158.194" style="fill:#38516A;" width="23.371" height="8.892"/>
			</g>
			<g>
				<polygon style="fill:#13304E;" points="176.386,377.448 68.938,377.448 68.938,186.089 176.386,195.099 				"/>
				<path style="fill:#38516A;" d="M84.084,235.576h-3.536c-1.186,0-2.148-0.962-2.148-2.148v-8.585
					c0-1.186,0.962-2.148,2.148-2.148h3.536c1.186,0,2.148,0.962,2.148,2.148v8.585C86.232,234.614,85.27,235.576,84.084,235.576z"
					/>
				<path style="fill:#38516A;" d="M98.617,235.576h-3.536c-1.186,0-2.148-0.962-2.148-2.148v-8.585
					c0-1.186,0.962-2.148,2.148-2.148h3.536c1.186,0,2.148,0.962,2.148,2.148v8.585C100.765,234.614,99.803,235.576,98.617,235.576z
					"/>
				<path style="fill:#38516A;" d="M113.149,235.576h-3.536c-1.186,0-2.148-0.962-2.148-2.148v-8.585
					c0-1.186,0.962-2.148,2.148-2.148h3.536c1.186,0,2.148,0.962,2.148,2.148v8.585
					C115.297,234.614,114.336,235.576,113.149,235.576z"/>
				<rect x="78.4" y="174.17" style="fill:#13304E;" width="15.663" height="33.613"/>
				<rect x="101.512" y="179.639" style="fill:#13304E;" width="4.668" height="19.257"/>
				<rect x="112.769" y="167.74" style="fill:#13304E;" width="9.893" height="33.613"/>
				<rect x="65.465" y="200.39" style="fill:#13304E;" width="52.791" height="16.71"/>
			</g>
			<g>
				<rect x="51.438" y="275.513" style="fill:#13304E;" width="113.848" height="105.306"/>
				<polygon style="fill:#38516A;" points="165.286,226.502 51.438,264.699 51.438,275.513 165.286,275.513 				"/>
				<g>
					<g>
						<rect x="58.614" y="283.808" style="fill:#38516A;" width="16.063" height="25.925"/>
						<rect x="61.836" y="288.505" style="fill:#FFFFFF;" width="9.619" height="16.532"/>
					</g>
					<g>
						<rect x="80.785" y="283.808" style="fill:#38516A;" width="16.063" height="25.925"/>
						<rect x="84.008" y="288.505" style="fill:#FFFFFF;" width="9.618" height="16.532"/>
					</g>
					<g>
						<rect x="102.957" y="283.808" style="fill:#38516A;" width="16.063" height="25.925"/>
						<rect x="106.179" y="288.505" style="fill:#FFFFFF;" width="9.619" height="16.532"/>
					</g>
					<g>
						<rect x="58.614" y="315.754" style="fill:#38516A;" width="16.063" height="25.925"/>
						<rect x="61.836" y="320.451" style="fill:#FFFFFF;" width="9.619" height="16.532"/>
					</g>
					<g>
						<rect x="80.785" y="315.754" style="fill:#38516A;" width="16.063" height="25.925"/>
						<rect x="84.008" y="320.451" style="fill:#FFFFFF;" width="9.618" height="16.532"/>
					</g>
					<g>
						<rect x="102.957" y="315.754" style="fill:#38516A;" width="16.063" height="25.925"/>
						<rect x="106.179" y="320.451" style="fill:#FFFFFF;" width="9.619" height="16.532"/>
					</g>
				</g>
				<rect x="51.438" y="349.314" style="fill:#38516A;" width="113.848" height="31.504"/>
				<g>
					<g>
						<rect x="54.208" y="352.972" style="fill:#13304E;" width="8.812" height="4.489"/>
						<rect x="68.507" y="352.972" style="fill:#13304E;" width="8.812" height="4.489"/>
						<rect x="82.806" y="352.972" style="fill:#13304E;" width="8.812" height="4.489"/>
						<rect x="97.105" y="352.972" style="fill:#13304E;" width="8.812" height="4.489"/>
						<rect x="111.405" y="352.972" style="fill:#13304E;" width="8.812" height="4.489"/>
						<rect x="125.704" y="352.972" style="fill:#13304E;" width="8.812" height="4.489"/>
						<rect x="140.003" y="352.972" style="fill:#13304E;" width="8.812" height="4.489"/>
						<rect x="154.303" y="352.972" style="fill:#13304E;" width="8.812" height="4.489"/>
					</g>
					<g>
						<rect x="61.058" y="359.577" style="fill:#13304E;" width="8.812" height="4.489"/>
						<rect x="75.358" y="359.577" style="fill:#13304E;" width="8.812" height="4.489"/>
						<rect x="89.657" y="359.577" style="fill:#13304E;" width="8.812" height="4.489"/>
						<rect x="103.956" y="359.577" style="fill:#13304E;" width="8.812" height="4.489"/>
						<rect x="118.256" y="359.577" style="fill:#13304E;" width="8.812" height="4.489"/>
						<rect x="132.555" y="359.577" style="fill:#13304E;" width="8.812" height="4.489"/>
						<rect x="146.854" y="359.577" style="fill:#13304E;" width="8.812" height="4.489"/>
					</g>
				</g>
				<g>
					<g>
						<rect x="54.208" y="366.292" style="fill:#13304E;" width="8.812" height="4.489"/>
						<rect x="68.507" y="366.292" style="fill:#13304E;" width="8.812" height="4.489"/>
						<rect x="82.806" y="366.292" style="fill:#13304E;" width="8.812" height="4.489"/>
						<rect x="97.105" y="366.292" style="fill:#13304E;" width="8.812" height="4.489"/>
						<rect x="111.405" y="366.292" style="fill:#13304E;" width="8.812" height="4.489"/>
						<rect x="125.704" y="366.292" style="fill:#13304E;" width="8.812" height="4.489"/>
						<rect x="140.003" y="366.292" style="fill:#13304E;" width="8.812" height="4.489"/>
						<rect x="154.303" y="366.292" style="fill:#13304E;" width="8.812" height="4.489"/>
					</g>
					<g>
						<rect x="61.058" y="372.897" style="fill:#13304E;" width="8.812" height="4.489"/>
						<rect x="75.358" y="372.897" style="fill:#13304E;" width="8.812" height="4.489"/>
						<rect x="89.657" y="372.897" style="fill:#13304E;" width="8.812" height="4.489"/>
						<rect x="103.956" y="372.897" style="fill:#13304E;" width="8.812" height="4.489"/>
						<rect x="118.256" y="372.897" style="fill:#13304E;" width="8.812" height="4.489"/>
						<rect x="132.555" y="372.897" style="fill:#13304E;" width="8.812" height="4.489"/>
						<rect x="146.854" y="372.897" style="fill:#13304E;" width="8.812" height="4.489"/>
					</g>
				</g>
			</g>
			<g>
				<g>
					<rect x="133.371" y="275.513" style="fill:#38516A;" width="113.848" height="105.306"/>
					<polygon style="fill:#7B8C9D;" points="247.219,226.502 133.371,264.699 133.371,275.513 247.219,275.513 					"/>
					<g>
						<g>
							<rect x="140.546" y="283.808" style="fill:#13304E;" width="16.063" height="25.925"/>
							<rect x="143.768" y="288.505" style="fill:#FFFFFF;" width="9.618" height="16.532"/>
						</g>
						<g>
							<rect x="162.718" y="283.808" style="fill:#13304E;" width="16.063" height="25.925"/>
							<rect x="165.94" y="288.505" style="fill:#FFFFFF;" width="9.619" height="16.532"/>
						</g>
						<g>
							<rect x="184.889" y="283.808" style="fill:#13304E;" width="16.063" height="25.925"/>
							<rect x="188.112" y="288.505" style="fill:#FFFFFF;" width="9.618" height="16.532"/>
						</g>
						<g>
							<rect x="140.546" y="315.754" style="fill:#13304E;" width="16.063" height="25.925"/>
							<rect x="143.768" y="320.451" style="fill:#FFFFFF;" width="9.618" height="16.532"/>
						</g>
						<g>
							<rect x="162.718" y="315.754" style="fill:#13304E;" width="16.063" height="25.925"/>
							<rect x="165.94" y="320.451" style="fill:#FFFFFF;" width="9.619" height="16.532"/>
						</g>
						<g>
							<rect x="184.889" y="315.754" style="fill:#13304E;" width="16.063" height="25.925"/>
							<rect x="188.112" y="320.451" style="fill:#FFFFFF;" width="9.618" height="16.532"/>
						</g>
					</g>
					<rect x="133.371" y="349.314" style="fill:#13304E;" width="113.848" height="31.504"/>
					<g style="opacity:0.2;">
						<g>
							<rect x="136.14" y="352.972" style="fill:#13304E;" width="8.812" height="4.489"/>
							<rect x="150.439" y="352.972" style="fill:#13304E;" width="8.812" height="4.489"/>
							<rect x="164.738" y="352.972" style="fill:#13304E;" width="8.812" height="4.489"/>
							<rect x="179.038" y="352.972" style="fill:#13304E;" width="8.812" height="4.489"/>
							<rect x="193.337" y="352.972" style="fill:#13304E;" width="8.812" height="4.489"/>
							<rect x="207.636" y="352.972" style="fill:#13304E;" width="8.812" height="4.489"/>
							<rect x="221.935" y="352.972" style="fill:#13304E;" width="8.812" height="4.489"/>
							<rect x="236.235" y="352.972" style="fill:#13304E;" width="8.812" height="4.489"/>
						</g>
						<g>
							<rect x="142.991" y="359.577" style="fill:#13304E;" width="8.812" height="4.489"/>
							<rect x="157.29" y="359.577" style="fill:#13304E;" width="8.812" height="4.489"/>
							<rect x="171.589" y="359.577" style="fill:#13304E;" width="8.812" height="4.489"/>
							<rect x="185.888" y="359.577" style="fill:#13304E;" width="8.812" height="4.489"/>
							<rect x="200.188" y="359.577" style="fill:#13304E;" width="8.812" height="4.489"/>
							<rect x="214.487" y="359.577" style="fill:#13304E;" width="8.812" height="4.489"/>
							<rect x="228.786" y="359.577" style="fill:#13304E;" width="8.812" height="4.489"/>
						</g>
					</g>
					<g style="opacity:0.2;">
						<g>
							<rect x="136.14" y="366.292" style="fill:#13304E;" width="8.812" height="4.489"/>
							<rect x="150.439" y="366.292" style="fill:#13304E;" width="8.812" height="4.489"/>
							<rect x="164.738" y="366.292" style="fill:#13304E;" width="8.812" height="4.489"/>
							<rect x="179.038" y="366.292" style="fill:#13304E;" width="8.812" height="4.489"/>
							<rect x="193.337" y="366.292" style="fill:#13304E;" width="8.812" height="4.489"/>
							<rect x="207.636" y="366.292" style="fill:#13304E;" width="8.812" height="4.489"/>
							<rect x="221.935" y="366.292" style="fill:#13304E;" width="8.812" height="4.489"/>
							<rect x="236.235" y="366.292" style="fill:#13304E;" width="8.812" height="4.489"/>
						</g>
						<g>
							<rect x="142.991" y="372.897" style="fill:#13304E;" width="8.812" height="4.489"/>
							<rect x="157.29" y="372.897" style="fill:#13304E;" width="8.812" height="4.489"/>
							<rect x="171.589" y="372.897" style="fill:#13304E;" width="8.812" height="4.489"/>
							<rect x="185.888" y="372.897" style="fill:#13304E;" width="8.812" height="4.489"/>
							<rect x="200.188" y="372.897" style="fill:#13304E;" width="8.812" height="4.489"/>
							<rect x="214.487" y="372.897" style="fill:#13304E;" width="8.812" height="4.489"/>
							<rect x="228.786" y="372.897" style="fill:#13304E;" width="8.812" height="4.489"/>
						</g>
					</g>
				</g>
				<path style="fill:#7B8C9D;" d="M239.298,292.553h-28.954c-0.742,0-1.343-0.602-1.343-1.343l0,0c0-0.742,0.601-1.343,1.343-1.343
					h28.954c0.742,0,1.343,0.601,1.343,1.343l0,0C240.641,291.952,240.039,292.553,239.298,292.553z"/>
				<path style="fill:#7B8C9D;" d="M239.298,303.031h-28.954c-0.742,0-1.343-0.601-1.343-1.343l0,0c0-0.742,0.601-1.343,1.343-1.343
					h28.954c0.742,0,1.343,0.601,1.343,1.343l0,0C240.641,302.429,240.039,303.031,239.298,303.031z"/>
				<path style="fill:#7B8C9D;" d="M239.298,313.509h-28.954c-0.742,0-1.343-0.601-1.343-1.343l0,0c0-0.742,0.601-1.343,1.343-1.343
					h28.954c0.742,0,1.343,0.601,1.343,1.343l0,0C240.641,312.907,240.039,313.509,239.298,313.509z"/>
				<path style="fill:#7B8C9D;" d="M239.298,323.986h-28.954c-0.742,0-1.343-0.602-1.343-1.343l0,0c0-0.742,0.601-1.343,1.343-1.343
					h28.954c0.742,0,1.343,0.601,1.343,1.343l0,0C240.641,323.385,240.039,323.986,239.298,323.986z"/>
				<path style="fill:#7B8C9D;" d="M239.298,334.464h-28.954c-0.742,0-1.343-0.601-1.343-1.343l0,0c0-0.742,0.601-1.343,1.343-1.343
					h28.954c0.742,0,1.343,0.602,1.343,1.343l0,0C240.641,333.862,240.039,334.464,239.298,334.464z"/>
			</g>
			<path style="fill:#13304E;" d="M94.759,171.819H77.704c-0.697,0-1.262,0.565-1.262,1.262v2.177c0,0.697,0.565,1.262,1.262,1.262
				h17.056c0.697,0,1.262-0.565,1.262-1.262v-2.177C96.022,172.385,95.457,171.819,94.759,171.819z"/>
		</g>
		<path style="opacity:0.2;fill:#13304E;" d="M163.604,208.239h-53.467c-1.729,0-3.131-1.402-3.131-3.131l0,0
			c0-1.729,1.402-3.131,3.131-3.131h53.467c1.729,0,3.131,1.402,3.131,3.131l0,0C166.735,206.837,165.333,208.239,163.604,208.239z"
			/>
		<path style="opacity:0.2;fill:#13304E;" d="M163.604,217.675h-53.467c-1.729,0-3.131-1.402-3.131-3.131l0,0
			c0-1.729,1.402-3.131,3.131-3.131h53.467c1.729,0,3.131,1.402,3.131,3.131l0,0C166.735,216.273,165.333,217.675,163.604,217.675z"
			/>
	</g>
	<g>
		<path style="fill:#13304E;" d="M250,51.712L250,51.712c-1.86,0-3.367,1.507-3.367,3.367v325.632h6.734V55.079
			C253.367,53.22,251.86,51.712,250,51.712z"/>
		<g>
			<ellipse style="fill:#38516A;" cx="250" cy="429.492" rx="141.416" ry="30.736"/>
			<path style="fill:#13304E;" d="M428.907,395.88H71.093v33.548c0,5.848,4.741,10.589,10.589,10.589h336.637
				c5.848,0,10.589-4.741,10.589-10.589V395.88z"/>
			<path style="fill:#A4CD49;" d="M456.034,382.975H43.966v20.443c0,5.848,4.741,10.589,10.589,10.589h390.891
				c5.848,0,10.589-4.741,10.589-10.589V382.975z"/>
			<path style="fill:#6EA843;" d="M469.874,389.079H30.126c-4.337,0-7.854-3.516-7.854-7.854l0,0c0-4.337,3.516-7.853,7.854-7.853
				h439.747c4.337,0,7.854,3.516,7.854,7.853l0,0C477.727,385.563,474.211,389.079,469.874,389.079z"/>
		</g>
	</g>
</g>
</svg>
