<?xml version="1.0" encoding="UTF-8"?><svg id="Layer_1" xmlns="http://www.w3.org/2000/svg" viewBox="0 0 273.67 273.35"><defs><style>.cls-1,.cls-2{fill:#9bc2be;}.cls-3{letter-spacing:-.01em;}.cls-4{fill:#f37979;}.cls-2{font-family:Roboto-Bold, Roboto;font-size:24.03px;font-weight:700;}</style></defs><rect class="cls-4" width="273.67" height="273.35" rx="24.45" ry="24.45"/><g><text class="cls-2" transform="translate(41.5 224.27)"><tspan x="0" y="0">Ch2. </tspan><tspan class="cls-3" x="55.93" y="0">H</tspan><tspan x="72.57" y="0">TML: Head </tspan><tspan x="45.13" y="28.84">and Body</tspan></text><g><path class="cls-1" d="M69.16,97.62c0-26.57,0-53.14,0-79.72,0-2.95,.37-3.32,3.29-3.32,42.92,0,85.83,0,128.75,0,2.92,0,3.3,.38,3.3,3.31,0,53.14,0,106.29,0,159.43,0,2.94-.38,3.32-3.29,3.32-42.92,0-85.83,0-128.75,0-2.92,0-3.3-.38-3.3-3.32,0-26.57,0-53.14,0-79.72Zm131.32,79.16V18.52H73.19V176.79h127.29Z"/><path class="cls-1" d="M136.83,188.23c-16.57,0-33.15,0-49.72,0-.69,0-1.52,.14-2.05-.17-.65-.39-1.47-1.18-1.47-1.81,0-.63,.8-1.39,1.44-1.85,.4-.29,1.12-.15,1.7-.15,33.44,0,66.88,0,100.32,0,.58,0,1.31-.13,1.69,.17,.61,.47,1.39,1.25,1.37,1.88-.02,.63-.84,1.4-1.5,1.77-.54,.31-1.36,.15-2.05,.16-16.57,0-33.15,0-49.72,0Z"/><path class="cls-1" d="M136.82,191.49c13.66,0,27.33,0,40.99,0,.52,0,1.19-.19,1.54,.05,.68,.48,1.63,1.21,1.63,1.84,0,.64-.95,1.36-1.61,1.87-.29,.23-.9,.06-1.37,.06-27.44,0-54.89,0-82.33,0-.41,0-.82,.02-1.22-.01-1.17-.09-1.86-.78-1.87-1.9,0-1.11,.66-1.83,1.85-1.9,.46-.03,.93-.01,1.4-.01,13.66,0,27.33,0,40.99,0Z"/><path class="cls-1" d="M136.91,27.69c16.4,0,32.8,0,49.19-.01,2.18,0,4.16,.38,5.71,2.05,1.4,1.5,1.78,3.33,1.78,5.31,0,11.16,.01,22.32-.01,33.49,0,4.74-2.6,7.32-7.36,7.33-12.39,.02-24.77,0-37.16,0-20.35,0-40.7,.03-61.05-.05-1.72,0-3.59-.48-5.11-1.27-2.07-1.06-2.79-3.2-2.79-5.47-.02-11.57-.06-23.14,.02-34.71,.03-4.25,2.77-6.67,7.25-6.67,16.51-.02,33.03,0,49.54,0Zm-.06,44.2c16.4,0,32.79,0,49.19,0,2.93,0,3.58-.65,3.58-3.58,0-11.05,0-22.09,0-33.14,0-2.9-.66-3.55-3.6-3.55-32.79,0-65.58,0-98.38,0-2.92,0-3.57,.64-3.58,3.57,0,10.99,0,21.97,0,32.96,0,3.15,.58,3.73,3.77,3.73,16.34,0,32.68,0,49.01,0Z"/><path class="cls-1" d="M101.05,123.34c6.01,5.69,11.75,11.12,17.49,16.55,.76,.72,1.53,1.43,2.27,2.17,1.23,1.23,1.36,2.65,.38,3.69-.99,1.04-2.42,1.01-3.7-.19-5.93-5.58-11.84-11.18-17.76-16.77-1.14-1.08-2.3-2.13-3.43-3.23-1.42-1.39-1.49-2.74-.09-4.07,7.07-6.74,14.17-13.45,21.27-20.16,1.27-1.2,2.72-1.23,3.7-.19,1.01,1.06,.84,2.52-.51,3.81-6.19,5.89-12.4,11.77-18.6,17.65-.25,.24-.56,.41-1.03,.75Z"/><path class="cls-1" d="M172.47,123.42c-5.15-4.89-10.19-9.69-15.24-14.49-1.39-1.32-2.79-2.63-4.16-3.97-1.4-1.35-1.58-2.68-.57-3.79,1-1.1,2.48-1.07,3.83,.21,7.05,6.67,14.09,13.35,21.11,20.04,1.4,1.33,1.39,2.73-.03,4.08-7.03,6.69-14.08,13.36-21.14,20.01-1.31,1.23-2.67,1.27-3.69,.23-1.08-1.09-.95-2.46,.43-3.79,5.97-5.69,11.97-11.36,17.95-17.04,.46-.44,.9-.9,1.52-1.51Z"/><path class="cls-1" d="M160.38,47.43c-1.21,3.37-2.3,6.4-3.38,9.42-.69,1.91-1.41,3.8-2.05,5.73-.37,1.12-.76,1.85-2.23,1.85-1.46,0-1.85-.72-2.24-1.84-1.52-4.38-3.09-8.74-4.65-13.1-.19-.53-.45-1.04-.65-1.49v16.21h-4.42v-23.4c1.79,0,3.58-.08,5.35,.06,.41,.03,.92,.77,1.1,1.28,1.67,4.75,3.29,9.53,4.92,14.3,.15,.43,.32,.86,.61,1.64,1.16-3.33,2.23-6.36,3.28-9.38,.78-2.24,1.48-4.52,2.36-6.72,.21-.52,.98-1.07,1.54-1.13,1.54-.15,3.11-.05,4.78-.05v23.41h-4.31v-16.77Z"/><path class="cls-1" d="M103.6,40.9v9.89h9.4v-9.89h4.51v23.33h-4.42v-9.45h-9.38v9.42h-4.75v-23.31h4.65Z"/><path class="cls-1" d="M126.81,64.19v-19.54h-6.44v-3.79h17.65v3.65h-6.4v19.69h-4.8Z"/><path class="cls-1" d="M169.35,40.88h4.38v19.7h10.37v3.77c-1.78,0-3.56,0-5.35,0-2.73,0-5.46-.02-8.19,0-.85,0-1.45-.07-1.45-1.18,.04-7.25,.04-14.51,.05-21.76,0-.11,.07-.22,.17-.54Z"/><path class="cls-1" d="M89.51,60.22h4.59v3.98h-4.59v-3.98Z"/></g></g></svg>