<?xml version="1.0" encoding="UTF-8"?><svg id="Layer_1" xmlns="http://www.w3.org/2000/svg" viewBox="0 0 273.67 273.35"><defs><style>.cls-1,.cls-2{fill:#9bc2be;}.cls-3{letter-spacing:-.01em;}.cls-4{letter-spacing:0em;}.cls-5{fill:#f37979;}.cls-2{font-family:Roboto-Bold, Roboto;font-size:24.88px;font-weight:700;}</style></defs><rect class="cls-5" width="273.67" height="273.35" rx="24.45" ry="24.45"/><g><text class="cls-2" transform="translate(38.04 226.91)"><tspan x="0" y="0">Ch3. </tspan><tspan class="cls-3" x="57.89" y="0">H</tspan><tspan class="cls-4" x="75.12" y="0">TML: Head </tspan><tspan x="46.72" y="29.85">and Body</tspan></text><g><path class="cls-1" d="M66.67,95.81c0-27.51,0-55.01,0-82.52,0-3.05,.39-3.44,3.41-3.44,44.43,0,88.85,0,133.28,0,3.03,0,3.42,.39,3.42,3.43,0,55.01,0,110.02,0,165.03,0,3.04-.4,3.44-3.41,3.44-44.43,0-88.85,0-133.28,0-3.03,0-3.41-.39-3.41-3.43,0-27.51,0-55.01,0-82.52Zm135.93,81.95V13.93H70.84V177.76H202.61Z"/><path class="cls-1" d="M136.72,189.6c-17.16,0-34.31,0-51.47,0-.72,0-1.57,.15-2.12-.18-.68-.4-1.52-1.22-1.52-1.87,0-.65,.83-1.44,1.49-1.92,.41-.3,1.16-.15,1.76-.15,34.61,0,69.23,0,103.84,0,.6,0,1.36-.13,1.75,.17,.64,.49,1.44,1.3,1.41,1.95-.02,.65-.87,1.45-1.55,1.83-.56,.32-1.41,.16-2.13,.16-17.16,0-34.31,0-51.47,0Z"/><path class="cls-1" d="M136.71,192.98c14.14,0,28.29,0,42.43,0,.54,0,1.23-.2,1.59,.06,.7,.5,1.69,1.25,1.69,1.9,0,.66-.98,1.4-1.67,1.94-.3,.24-.93,.06-1.41,.06-28.41,0-56.82,0-85.23,0-.42,0-.84,.02-1.26-.01-1.21-.09-1.93-.81-1.93-1.96,0-1.15,.68-1.89,1.91-1.97,.48-.03,.96-.01,1.44-.01,14.14,0,28.29,0,42.43,0Z"/><path class="cls-1" d="M136.8,23.42c16.97,0,33.95,0,50.92-.01,2.25,0,4.3,.4,5.91,2.13,1.45,1.56,1.84,3.45,1.84,5.5,0,11.55,.01,23.11-.01,34.66-.01,4.9-2.69,7.58-7.62,7.59-12.82,.03-25.64,0-38.46,0-21.07,0-42.13,.03-63.2-.06-1.78,0-3.71-.5-5.29-1.31-2.14-1.1-2.89-3.32-2.89-5.67-.02-11.98-.06-23.95,.02-35.93,.03-4.4,2.87-6.9,7.5-6.91,17.09-.02,34.19,0,51.28,0Zm-.06,45.75c16.97,0,33.94,0,50.92,0,3.03,0,3.7-.67,3.7-3.7,0-11.43,0-22.87,0-34.3,0-3-.68-3.67-3.73-3.67-33.94,0-67.89,0-101.83,0-3.03,0-3.7,.67-3.7,3.7,0,11.37,0,22.75,0,34.12,0,3.26,.6,3.86,3.9,3.86,16.91,0,33.82,0,50.74,0Z"/><path class="cls-1" d="M99.68,122.43c6.22,5.89,12.17,11.51,18.11,17.13,.79,.74,1.59,1.48,2.35,2.24,1.27,1.27,1.41,2.75,.39,3.82-1.03,1.08-2.5,1.05-3.83-.2-6.14-5.77-12.25-11.57-18.38-17.36-1.18-1.12-2.39-2.21-3.55-3.34-1.47-1.44-1.54-2.84-.1-4.21,7.32-6.97,14.67-13.93,22.02-20.87,1.32-1.24,2.81-1.27,3.83-.2,1.04,1.1,.87,2.61-.53,3.94-6.41,6.1-12.83,12.18-19.26,18.27-.26,.25-.58,.43-1.07,.78Z"/><path class="cls-1" d="M173.61,122.51c-5.33-5.07-10.55-10.03-15.78-15-1.44-1.37-2.89-2.72-4.31-4.11-1.44-1.4-1.64-2.77-.59-3.92,1.04-1.14,2.56-1.1,3.96,.22,7.3,6.9,14.58,13.81,21.85,20.75,1.45,1.38,1.44,2.83-.03,4.23-7.28,6.92-14.57,13.83-21.88,20.72-1.35,1.27-2.77,1.31-3.82,.24-1.11-1.13-.99-2.55,.45-3.92,6.18-5.89,12.39-11.76,18.58-17.64,.48-.45,.94-.93,1.57-1.57Z"/><path class="cls-1" d="M161.1,43.86c-1.25,3.49-2.38,6.62-3.5,9.75-.71,1.98-1.46,3.94-2.12,5.93-.39,1.16-.79,1.91-2.31,1.91-1.51,0-1.91-.74-2.31-1.9-1.57-4.53-3.2-9.05-4.82-13.56-.2-.55-.47-1.08-.67-1.54v16.78h-4.58v-24.23c1.86,0,3.71-.08,5.54,.06,.42,.03,.95,.8,1.14,1.33,1.73,4.92,3.4,9.87,5.09,14.8,.15,.45,.33,.89,.63,1.69,1.21-3.45,2.3-6.58,3.39-9.71,.81-2.32,1.53-4.68,2.45-6.96,.21-.54,1.02-1.11,1.6-1.17,1.6-.16,3.22-.06,4.95-.06v24.23h-4.46v-17.36Z"/><path class="cls-1" d="M102.32,37.09v10.24h9.73v-10.24h4.67v24.15h-4.57v-9.78h-9.71v9.76h-4.92v-24.13h4.81Z"/><path class="cls-1" d="M126.34,61.2v-20.23h-6.67v-3.93h18.27v3.77h-6.63v20.38h-4.97Z"/><path class="cls-1" d="M170.38,37.08h4.53v20.4h10.74v3.9c-1.84,0-3.69,0-5.53,0-2.82,0-5.65-.02-8.47,0-.88,0-1.5-.07-1.5-1.22,.04-7.51,.04-15.02,.05-22.53,0-.11,.07-.23,.18-.56Z"/><path class="cls-1" d="M87.74,57.1h4.75v4.12h-4.75v-4.12Z"/></g></g></svg>