<?xml version="1.0" encoding="UTF-8"?><svg id="Layer_1" xmlns="http://www.w3.org/2000/svg" viewBox="0 0 273.67 273.35"><defs><style>.cls-1,.cls-2{fill:#9bc2be;}.cls-3{fill:#f37979;}.cls-2{font-family:Roboto-Bold, Roboto;font-size:24.03px;font-weight:700;}</style></defs><rect class="cls-3" width="273.67" height="273.35" rx="24.45" ry="24.45"/><g><text class="cls-2" transform="translate(37.72 232.55)"><tspan x="0" y="0">Ch5. Methodology </tspan><tspan x="35.41" y="28.84">Carbon App</tspan></text><g><path class="cls-1" d="M136.64,198.62c-27.18,0-54.36,0-81.54,0-6.55,0-9.88-3.3-9.88-9.8,0-54.47,0-108.93,0-163.4,0-6.44,3.33-9.8,9.72-9.8,54.52,0,109.04,0,163.56,0,6.4,0,9.72,3.35,9.72,9.8,0,54.47,0,108.93,0,163.4,0,6.49-3.34,9.8-9.88,9.8-27.23,0-54.47,0-81.7,0Zm73.18-100.72V34.04h-63.86v63.86h63.86Zm-82.36,0V34.04H63.6v63.86h63.86Zm.04,18.48H63.64v63.86h63.86v-63.86Zm82.36,0h-63.86v63.86h63.86v-63.86Z"/><path class="cls-1" d="M177.93,75.09c-4.63,0-9.26,.02-13.89,0-5.47-.03-9.02-3.66-9.01-9.19,0-5.43,3.57-9.07,8.95-9.08,9.26-.02,18.52-.02,27.77,0,5.48,.01,9.02,3.65,9.01,9.19,0,5.42-3.57,9.04-8.95,9.09-.11,0-.22,0-.33,0-4.52,0-9.04,0-13.56,0Z"/><path class="cls-1" d="M104.69,56.81c1.92,0,3.6-.04,5.28,0,4.98,.13,8.44,3.87,8.45,9.09,0,5.25-3.41,9.02-8.37,9.17-1.73,.05-3.46,0-5.36,0,0,1.77,.02,3.39,0,5-.08,5.21-3.77,8.73-9.14,8.73-5.36,0-9.06-3.53-9.13-8.74-.02-1.58,0-3.15,0-4.99-1.5,0-2.94-.02-4.39,0-8.17,.16-11.01-7.49-8.51-13.31,1.37-3.21,4.06-4.73,7.46-4.95,1.73-.11,3.47-.02,5.44-.02,0-1.6,0-3.1,0-4.6,.03-5.6,3.61-9.15,9.23-9.14,5.47,.01,9.03,3.6,9.06,9.14,0,1.46,0,2.92,0,4.59Z"/><path class="cls-1" d="M95.62,160.98c-1.29,1.33-2.29,2.47-3.4,3.49-2.77,2.54-6,3.51-9.64,2.36-3.4-1.08-5.45-3.5-6.13-6.99-.58-3.01,.45-5.59,2.5-7.76,1.19-1.26,2.48-2.4,3.95-3.81-1.39-1.31-2.61-2.38-3.74-3.54-3.76-3.86-3.81-9.11-.16-12.84,3.71-3.78,9.02-3.82,12.95-.04,1.17,1.13,2.23,2.37,3.78,4.05,1.44-1.66,2.55-3.24,3.95-4.48,2.85-2.54,6.17-3.19,9.67-1.48,3.52,1.72,5.45,4.61,5.43,8.59-.01,2.39-1.06,4.42-2.73,6.11-1.15,1.16-2.35,2.26-3.69,3.53,1.36,1.39,2.62,2.62,3.82,3.92,3.2,3.46,3.49,8.04,.77,11.62-3.18,4.19-9.76,4.79-13.61,1.18-1.26-1.18-2.38-2.51-3.71-3.93Z"/><path class="cls-1" d="M177.9,125.43c4.63,0,9.26-.02,13.89,0,5.47,.03,9,3.67,8.98,9.22-.01,5.41-3.58,9.04-8.98,9.06-9.26,.02-18.52,.02-27.77,0-5.46-.01-9-3.68-8.98-9.22,.01-5.41,3.58-9.01,8.98-9.06,.11,0,.22,0,.33,0,4.52,0,9.04,0,13.56,0Z"/><path class="cls-1" d="M177.9,152.88c4.63,0,9.26-.02,13.89,0,5.47,.03,9,3.67,8.98,9.22-.01,5.41-3.58,9.04-8.98,9.06-9.26,.02-18.52,.02-27.77,0-5.46-.01-9-3.68-8.98-9.22,.01-5.41,3.58-9.01,8.98-9.06,.11,0,.22,0,.33,0,4.52,0,9.04,0,13.56,0Z"/></g></g></svg>