<?xml version="1.0" encoding="UTF-8"?>
<svg id="Layer_1" data-name="Layer 1" xmlns="http://www.w3.org/2000/svg" viewBox="0 0 273.67 273.35">
  <defs>
    <style>
      .cls-1 {
        fill: #f3ca99;
      }

      .cls-1, .cls-2 {
        stroke-width: 0px;
      }

      .cls-2 {
        fill: #f26934;
      }
    </style>
  </defs>
  <rect class="cls-2" width="273.67" height="273.35" rx="24.45" ry="24.45"/>
  <g>
    <path class="cls-1" d="m115.84,42.57c38.2-.69,70.15,20.33,83.5,52.99.61,1.5,1.49,2.45,2.89,3.26,19.89,11.46,31.94,28.51,35.57,51.17,2.52,15.75-.4,30.71-8.16,44.68-.62,1.12-.63,2.01-.2,3.19,2.87,7.86,5.65,15.76,8.5,23.63.65,1.8.86,3.55.06,5.36-1.42,3.2-4.72,4.6-8.28,3.34-8.07-2.85-16.12-5.79-24.2-8.59-.82-.28-2.02-.24-2.76.17-26.24,14.34-56.81,11.47-79.87-7.53-.69-.57-1.82-.87-2.74-.88-13.96-.2-27.23-3.23-39.47-9.99-3.28-1.81-5.91-1.87-9.29-.56-9.05,3.5-18.23,6.64-27.38,9.87-4.34,1.53-8.39-.83-8.83-5.23-.13-1.26.27-2.64.7-3.87,3.56-10.04,7.17-20.06,10.81-30.07.4-1.11.34-1.95-.26-3-9.07-15.79-12.66-32.8-11.04-50.91,3.29-36.72,31.68-68.3,67.73-75.23,5.04-.97,10.17-1.43,12.75-1.78Zm105.56,171.05c-.22-.76-.34-1.22-.5-1.68-1.55-4.36-3.03-8.75-4.71-13.06-1.14-2.92-.8-5.41.87-8.09,7.83-12.55,10.44-26.24,7.8-40.74-5.74-31.46-35.58-51.94-67.16-46.29-31.43,5.62-52.49,36.77-46.01,68.04,8.02,38.72,51.64,58.27,85.57,38.19,3.85-2.28,7.17-2.86,11.23-1.01,3.34,1.52,6.9,2.52,10.37,3.76.76.27,1.52.53,2.54.9Zm-38.41-122.37c-.31-.55-.57-1.04-.86-1.51-16.34-26.68-48.75-39.89-79.19-32.27-48.05,12.02-70.32,67.34-43.91,109.2,1.6,2.54,1.93,4.93.88,7.73-2.48,6.65-4.81,13.36-7.2,20.05-.18.49-.29,1.01-.49,1.71,7.41-2.65,14.59-5.17,21.72-7.81,2.73-1.01,5.11-.76,7.57.84,6.59,4.3,13.78,7.29,21.41,9.2,2.14.53,4.33.88,6.56,1.33-15.54-26.59-16.68-53.18.62-78.68,17.33-25.56,42.52-34.41,72.89-29.78Z"/>
    <path class="cls-1" d="m202.8,168.32c-4.41,0-7.98-3.58-7.97-7.98.01-4.37,3.65-8,8.01-7.98,4.37.01,7.97,3.65,7.97,8.03,0,4.39-3.59,7.94-8.01,7.93Z"/>
    <path class="cls-1" d="m142.18,160.35c0,4.46-3.49,7.97-7.93,7.97-4.41,0-8.02-3.57-8.03-7.95,0-4.32,3.67-8.01,8.01-8.01,4.37,0,7.94,3.58,7.95,8Z"/>
    <path class="cls-1" d="m176.48,160.37c0,4.44-3.51,7.95-7.95,7.95-4.4,0-8.01-3.6-8-7.97,0-4.34,3.68-8,8.02-8,4.38,0,7.94,3.6,7.94,8.02Z"/>
  </g>
</svg>