<?xml version="1.0" encoding="utf-8"?>
<!-- Generator: Adobe Illustrator 27.4.1, SVG Export Plug-In . SVG Version: 6.00 Build 0)  -->
<svg version="1.0" id="Layer_1" xmlns="http://www.w3.org/2000/svg" xmlns:xlink="http://www.w3.org/1999/xlink" x="0px" y="0px"
	 viewBox="0 0 273 273" style="enable-background:new 0 0 273 273;" xml:space="preserve">
<style type="text/css">
	.st0{fill:#F37979;}
	.st1{fill:none;}
	.st2{fill:#9BC2BE;}
	.st3{font-family:'Roboto-Bold';}
	.st4{font-size:24.0322px;}
	.st5{fill:#9BC0BC;}
</style>
<g>
	<path class="st0" d="M248.7,273.5H24c-13.5,0-24.5-10.9-24.5-24.5V24.6C-0.5,11.1,10.5,0.2,24,0.2h224.8
		c13.5,0,24.5,10.9,24.5,24.5v224.5C273.2,262.6,262.2,273.5,248.7,273.5z"/>
	<g>
		<rect x="37.3" y="212.8" class="st1" width="198.4" height="52.4"/>
		<text transform="matrix(1 0 0 1 84.4875 230.849)"><tspan x="0" y="0" class="st2 st3 st4">Lysdagen</tspan><tspan x="-10.5" y="28.8" class="st2 st3 st4">Conference</tspan></text>
		<g id="Group_1960_00000071555520625946881590000003272764274287703441_">
			<path id="Path_2719_00000025433180439427955500000004302558534484577704_" class="st5" d="M199.1,92.8c-0.2,6.4-1.3,12.8-3.2,19
				c-2.5,7.8-7.6,14.6-14.4,19.3c-2.7,1.7-5.2,3.7-7.4,5.8c-2.1,2.4-4,5-5.5,7.8c-0.8,1.7-2.2,2.9-4,3.3
				c-16.6,3.9-33.1,7.9-49.7,11.9c-6.3,1.5-7-1.1-8.2-5.2c-0.7-2.4-0.8-4.8-1.3-7.2c-1.1-4.5-3.7-8.5-7.5-11.2
				c-1.8-1.4-3.6-2.7-5.5-4c-8.2-5.2-14-13.4-16.3-22.9c-2.6-10.6-3.8-21.2,0.4-31.7c5.8-14.5,17.1-24.5,32.4-30.8
				c26.4-10.9,57.9-4.9,76.9,14.6C194.3,69.8,199.1,81,199.1,92.8 M115.1,151.6c0.6-0.1,1-0.1,1.4-0.2c13.4-3.2,26.8-6.4,40.2-9.5
				c2.8-0.6,4.9-1.6,5.9-4.2c0.4-0.8,0.9-1.5,1.5-2.2c3.3-4.6,8.2-7.7,12.8-11.1c3.8-2.7,6.9-6.4,9-10.6c3.4-7.4,4.9-15.4,4.4-23.5
				c-0.5-9.9-5.1-18.3-12.7-25.3c-16.5-15.4-43.2-19.9-65.2-10.8c-13.3,5.5-23.1,14-28,26.8c-3.2,8.5-2.2,17-0.3,25.5
				c1.4,7.4,5.6,14,11.7,18.4c1.8,1.3,3.5,2.6,5.3,3.8c6,4.1,10.4,9.3,12.3,16C114.2,146.8,114.6,149.1,115.1,151.6"/>
			<path id="Path_2720_00000020400047056225951470000003479333602429818276_" class="st5" d="M159.4,185.1
				c0.7,11-8.6,17.7-17.1,19.6c-10.2,2.1-21.6-1.9-25.9-9.3c-1.2,0.2-2.4,0.6-3.6,0.7c-2.6,0.4-4.7-0.8-5.2-2.9
				c-0.5-2.2,0.8-4,3.3-4.6c11.1-2.7,22.1-5.3,33.2-7.9c6-1.4,12-2.9,18-4.3c3.3-0.8,5.8,0.3,6.4,2.8c0.3,2.1-1,4-3.1,4.5
				c-1,0.3-2,0.5-3,0.7C161.5,184.6,160.5,184.8,159.4,185.1 M125.4,193.2c3.5,4,11.1,5.4,17.1,3.3c4.9-1.7,8.3-5.5,8-9.3
				L125.4,193.2"/>
			<path id="Path_2721_00000015316544063233132370000004449834917879674769_" class="st5" d="M112.1,178.3c-2.1,0.2-4-1.2-4.5-3.2
				c-0.4-2.1,1-4.1,3.1-4.4c0.1,0,0.1,0,0.2,0c6-1.5,12-2.9,18-4.3c11-2.6,22-5.2,33-7.8c0.9-0.3,1.8-0.4,2.8-0.4
				c2,0.1,3.6,1.5,3.9,3.5c0.2,2-1.3,3.8-3.3,4.2c-3.8,1-7.7,1.9-11.6,2.8c-13.2,3.1-26.5,6.3-39.7,9.4
				C113.2,178.1,112.5,178.2,112.1,178.3"/>
			<path id="Path_2722_00000141440658569238601120000011726093784101010318_" class="st5" d="M142.6,18.8c0,2.5,0,5,0,7.5
				c0,2.4-1.9,4.3-4.3,4.3c-2.4,0-4.3-1.9-4.3-4.3c0-5,0-10.1,0-15.1c-0.1-2.3,1.7-4.2,3.9-4.3c0.1,0,0.3,0,0.4,0
				c2.3-0.1,4.2,1.7,4.3,4c0,0.1,0,0.2,0,0.3C142.7,13.8,142.6,16.3,142.6,18.8"/>
			<path id="Path_2723_00000071547372195925408170000008467467990057802660_" class="st5" d="M222.5,91.4c2.8,0,5.7,0,8.5,0
				c2.7,0,4.6,1.7,4.6,3.8c-0.1,2.3-2,4-4.3,3.9c0,0,0,0,0,0c-5.8,0.1-11.7,0.1-17.5,0c-2.2,0.2-4.2-1.5-4.4-3.7c0-0.1,0-0.2,0-0.4
				c0.1-2.2,1.9-3.7,4.7-3.7C216.9,91.3,219.7,91.4,222.5,91.4"/>
			<path id="Path_2724_00000133531596360381195830000005730582396955495816_" class="st5" d="M73.8,29c1,0.4,1.9,0.9,2.8,1.5
				c4,3.5,7.9,7.1,11.8,10.6c2.1,1.9,2.2,4.2,0.4,5.8c-1.8,1.7-4.7,1.5-6.4-0.3c-4-3.6-7.9-7.2-11.9-10.8c-1.4-1-1.8-2.8-1.2-4.3
				C69.9,30,71.3,29.2,73.8,29"/>
			<path id="Path_2725_00000148629556303699605380000009851524242659718543_" class="st5" d="M87.4,144.4c-0.3,0.8-0.8,1.5-1.4,2.1
				c-4,3.7-8,7.3-12,11c-1.7,1.7-4.4,1.8-6.2,0.2c-1.5-1.2-1.8-3.5-0.6-5c0.2-0.2,0.4-0.5,0.7-0.7c4-3.7,8.1-7.4,12.2-11.1
				c1.3-1.2,3.2-1.6,4.8-0.9C86.6,140.7,87.7,142.5,87.4,144.4"/>
			<path id="Path_2726_00000183949898585480381370000014460086830081920936_" class="st5" d="M182.5,143.3c0.8-1.1,1.7-2.1,2.8-3
				c1.4-0.9,3.2-0.8,4.5,0.3c4.5,3.9,9,7.9,13.3,12.1c1.3,1.3,1.3,3.5,0,4.8c-0.1,0.1-0.3,0.3-0.4,0.4c-1.7,1.4-4.1,1.4-5.8,0
				c-4.3-3.8-8.5-7.6-12.7-11.5C183.5,145.4,182.9,144.4,182.5,143.3"/>
			<path id="Path_2727_00000109751121227590582830000000892048215466530733_" class="st5" d="M50.4,88.1c2.8,0,5.7,0,8.5,0
				c2.7,0,4.6,1.7,4.6,3.9c-0.1,2.2-2.1,4-4.3,3.8c0,0-0.1,0-0.1,0c-5.8,0.1-11.7,0.1-17.5,0c-2.2,0.2-4.1-1.4-4.3-3.5
				c0-0.1,0-0.2,0-0.3c0-2.2,1.7-3.7,4.3-3.8C44.6,88.1,47.5,88.1,50.4,88.1"/>
			<path id="Path_2728_00000008859094856519565470000013558120142640274342_" class="st5" d="M207.1,32.6c-0.5,1.2-1.2,2.2-2,3.2
				c-3.9,3.7-7.9,7.3-11.9,10.9c-1.7,1.8-4.6,1.9-6.4,0.2c-1.7-1.6-1.6-3.9,0.4-5.7c4-3.6,8-7.2,11.9-10.8c1.3-1.4,3.3-1.7,5-0.9
				C205.2,30.4,206.2,31.4,207.1,32.6"/>
			<path id="Path_2729_00000090270071788291226520000014446501089460111290_" class="st5" d="M133.2,111.7
				c9.2-10.8,18.2-21.3,27.1-31.9c1.8-2.1,3.6-2.6,5.7-1.7c2.7,1.1,3.3,3.9,1.2,6.3c-6.3,7.5-12.7,14.9-19,22.4
				c-3.7,4.4-7.4,8.7-11.1,13.1c-2.5,2.9-5.3,3-7.8,0.1c-4.9-5.7-9.7-11.4-14.5-17.2c-1.5-1.4-1.5-3.8-0.1-5.2
				c0.2-0.2,0.3-0.3,0.5-0.4c2-1.5,4.8-1.1,6.3,0.9c0,0,0,0,0,0c3.4,4,6.8,8,10.1,12C132.1,110.6,132.6,111.1,133.2,111.7"/>
		</g>
	</g>
</g>
</svg>
