<?xml version="1.0" encoding="UTF-8"?><svg id="Layer_1" xmlns="http://www.w3.org/2000/svg" viewBox="0 0 273.67 273.35"><defs><style>.cls-1,.cls-2{fill:#9bc2be;}.cls-3{fill:#f18e21;}.cls-2{font-family:Roboto-Bold, Roboto;font-size:24.03px;font-weight:700;}</style></defs><rect class="cls-3" width="273.67" height="273.35" rx="24.45" ry="24.45"/><g><text class="cls-2" transform="translate(32.88 242.43)"><tspan x="0" y="0">Sustainable Energy</tspan></text><g><path class="cls-1" d="M72.41,185.67c-.96,0-1.68,0-2.41,0-6.12,0-12.25,.04-18.37-.02-3.97-.04-5.77-2.62-4.52-6.38,8.43-25.3,16.87-50.6,25.32-75.89,.84-2.53,2.11-3.43,4.75-3.43,39.68,0,79.36,0,119.04,0,2.65,0,3.94,.9,4.78,3.41,8.46,25.36,16.92,50.72,25.37,76.08,1.18,3.55-.62,6.16-4.36,6.2-6.18,.08-12.37,.02-18.55,.02-.73,0-1.45,0-2.43,0,0,.8,0,1.44,0,2.09,0,3.49,.02,6.98,0,10.46-.02,2.84-1.73,4.51-4.59,4.55-.31,0-.61,0-.92,0-39.19,0-78.38,0-117.57,0-4.15,0-5.53-1.36-5.53-5.44,0-3.79,0-7.58,0-11.66Zm119.95,.14H81.19v8.18h111.17v-8.18Zm-51.2-8.83h37.03c-1.46-5.23-2.92-10.32-4.27-15.44-.33-1.24-.85-1.62-2.12-1.61-9.67,.06-19.34,.03-29.01,.04-.53,0-1.06,.07-1.63,.12v16.9Zm-8.9-17.02h-2.26c-8.75,0-17.5,0-26.25,0q-3.77,0-4.78,3.62c-1.23,4.44-2.45,8.89-3.67,13.36h36.96v-16.98Zm54.9,17.06h29.24c-.2-.65-.37-1.21-.56-1.77-1.5-4.51-3.06-9-4.46-13.54-.41-1.34-1-1.79-2.41-1.78-8.19,.07-16.39,.03-24.59,.04-.57,0-1.15,.08-1.92,.13,1.59,5.75,3.12,11.26,4.69,16.92Zm-130.14-.05h29.28c1.56-5.65,3.09-11.2,4.7-17h-2.31c-7.46,0-14.92,0-22.38,0q-3.65,0-4.81,3.48c-1.49,4.49-2.97,8.99-4.47,13.53Zm75.26-25.69v-17.03c-.73,0-1.38,0-2.04,0-6.24,0-12.48,0-18.72,0q-4.41,0-5.59,4.23c-1.17,4.22-2.32,8.44-3.51,12.79h29.86Zm8.88-.03h29.87c-1.53-5.5-2.99-10.84-4.57-16.15-.12-.41-1.1-.81-1.68-.81-7.4-.05-14.81-.04-22.21-.03-.46,0-.93,.1-1.41,.16v16.83Zm-75.63,.12c9.15,0,18.02,.02,26.88-.06,.45,0,1.14-.76,1.3-1.29,.92-2.97,1.73-5.97,2.56-8.97,.61-2.2,1.2-4.41,1.84-6.79-8.83,0-17.39-.01-25.95,.04-.41,0-1.06,.44-1.19,.81-1.82,5.3-3.57,10.62-5.44,16.26Zm109.73-17.11c1.52,5.42,2.99,10.5,4.33,15.62,.31,1.2,.8,1.53,1.98,1.52,7.09-.05,14.19-.02,21.28-.02,1.58,0,3.16,0,4.91,0-.17-.64-.26-1.11-.41-1.55-1.55-4.68-3.16-9.35-4.63-14.06-.39-1.25-1.03-1.54-2.24-1.53-5.07,.06-10.15,.03-15.23,.03-3.23,0-6.47,0-10,0Zm-101.13-8.69h26.44c1.55-5.62,3.1-11.21,4.71-17.01-8.45,0-16.57,0-24.7,.03-.35,0-.91,.42-1.03,.76-1.83,5.35-3.6,10.71-5.43,16.22Zm125.16,.03c-1.84-5.53-3.57-10.85-5.41-16.13-.16-.45-1.09-.88-1.66-.89-7.52-.06-15.04-.04-22.55-.03-.45,0-.9,.12-1.49,.21,1.59,5.73,3.14,11.28,4.69,16.84h26.43Zm-35.41,0c-1.51-5.47-2.93-10.76-4.49-16.01-.14-.48-1.14-.99-1.75-1-4.64-.08-9.29-.05-13.94-.05-.84,0-1.67,0-2.51,0v17.06h22.68Zm-31.61-17.06c-4.9,0-9.6,0-14.29,0-3.72,0-3.73,0-4.7,3.48-1.25,4.49-2.47,8.99-3.72,13.52h22.71v-17Z"/><path class="cls-1" d="M139.37,57.02c16.96,.95,31.45,9.81,40.22,27.52,1.28,2.58,.74,4.88-1.24,6.16-2.37,1.54-5.13,.61-6.46-2.26-3.11-6.72-7.66-12.19-13.82-16.3-19.35-12.92-45.79-5.73-55.94,15.2-.24,.49-.45,1-.71,1.49-1.18,2.28-3.5,3.17-5.7,2.19-2.15-.96-3.33-3.5-2.12-5.68,2.18-3.94,4.33-7.99,7.15-11.47,8.69-10.72,22.22-16.87,38.63-16.86Z"/><path class="cls-1" d="M132.36,35.48c0-2.69-.03-5.37,0-8.06,.04-2.8,1.78-4.64,4.32-4.66,2.55-.01,4.35,1.82,4.37,4.61,.04,5.49,.04,10.99,0,16.48-.02,2.79-1.81,4.65-4.33,4.66-2.54,0-4.33-1.85-4.37-4.61-.04-2.81,0-5.62,0-8.42Z"/><path class="cls-1" d="M70.41,61.37c.36,.14,1.25,.36,2.02,.8,4.73,2.69,9.44,5.4,14.13,8.14,2.53,1.48,3.3,3.98,1.98,6.19-1.28,2.15-3.8,2.71-6.24,1.32-4.88-2.79-9.75-5.6-14.59-8.45-1.85-1.09-2.59-2.98-2.05-4.84,.58-1.99,2.15-3.18,4.74-3.17Z"/><path class="cls-1" d="M188.87,78.62c-2.15-.04-3.79-1.25-4.35-2.96-.6-1.82-.05-3.86,1.61-4.85,5.2-3.09,10.42-6.12,15.71-9.05,1.99-1.1,4.42-.18,5.52,1.78,1.08,1.92,.7,4.37-1.21,5.52-5.23,3.15-10.55,6.15-15.85,9.17-.51,.29-1.16,.32-1.43,.39Z"/><path class="cls-1" d="M97.7,33.11c2.07-.05,3.32,.75,4.14,2.17,2.9,4.95,5.79,9.91,8.62,14.9,1.23,2.17,.52,4.71-1.5,5.92-2.03,1.21-4.63,.61-5.91-1.55-2.95-4.99-5.87-10-8.68-15.07-1.66-2.99,.39-6.36,3.33-6.37Z"/><path class="cls-1" d="M166.97,57.04c-3.45-.38-5.68-3.6-4.17-6.41,2.87-5.31,5.93-10.53,9.04-15.7,1.19-1.99,3.73-2.41,5.67-1.27,1.94,1.14,2.81,3.55,1.7,5.55-2.91,5.23-5.88,10.42-9.02,15.51-.64,1.04-2.13,1.56-3.23,2.32Z"/></g></g></svg>