<?xml version="1.0" encoding="UTF-8"?><svg id="Layer_1" xmlns="http://www.w3.org/2000/svg" viewBox="0 0 273.67 273.35"><defs><style>.cls-1,.cls-2{fill:#9bc2be;}.cls-3{fill:#f37979;}.cls-2{font-family:Roboto-Bold, Roboto;font-size:24.03px;font-weight:700;}</style></defs><rect class="cls-3" width="273.67" height="273.35" rx="24.45" ry="24.45"/><g><text class="cls-2" transform="translate(76.58 236.28)"><tspan x="0" y="0">Ch4. Home</tspan></text><g><path class="cls-1" d="m136.73,208.9c-23.74,0-47.49.02-71.23,0-9.96-.01-18.03-6.97-19.92-17.17-.29-1.56-.34-3.19-.34-4.78-.02-46.36-.02-92.72,0-139.08,0-10.89,6-19.08,15.71-21.41,1.53-.37,3.15-.52,4.72-.52,47.37-.03,94.75-.03,142.12-.02,11.31,0,19.85,8.55,20.41,20.34.03.53.03,1.07.03,1.6,0,46.36,0,92.72,0,139.08,0,9.18-3.78,15.94-11.69,20.03-2.84,1.47-5.92,1.94-9.09,1.94-23.57-.01-47.15,0-70.72,0Zm83.42-108.18v-33.08H53.31v33.08c3.79,0,7.47-.02,11.16,0,2.81.02,4.72,1.77,4.69,4.25-.03,2.49-1.93,4.16-4.76,4.19-.45,0-.91,0-1.36,0-3.22,0-6.44,0-9.84,0v1.91c0,25.34,0,50.69,0,76.03,0,8.13,4.99,13.34,12.77,13.35,47.14,0,94.29-.06,141.43.07,6.85.02,12.91-5.16,12.88-13.53-.11-25.28-.04-50.57-.04-75.86v-1.97c-3.93,0-7.62-.01-11.31,0-1.57,0-2.94-.44-3.87-1.81-.88-1.3-1.06-2.74-.36-4.2.79-1.65,2.14-2.42,3.86-2.43,3.8-.02,7.61,0,11.57,0ZM53.47,59.07h166.72c0-4.5.03-8.88-.02-13.27-.01-.87-.26-1.76-.5-2.6-1.58-5.52-6.06-8.84-11.97-8.84-32.94,0-65.87,0-98.81,0-14.65,0-29.3-.02-43.95.02-5.73.02-10.75,4.23-11.37,10.17-.49,4.74-.1,9.58-.1,14.53Z"/><path class="cls-1" d="m132.68,152.85c0-1,0-1.62,0-2.25,0-9.44,0-18.88,0-28.32,0-2.76,1.38-4.62,3.54-4.86,2.61-.29,4.52,1.65,4.53,4.71.02,9.44,0,18.88,0,28.32,0,.65,0,1.3,0,2.25.49-.4.84-.63,1.12-.92,2.5-2.59,4.97-5.22,7.48-7.8,1.98-2.04,4.32-2.2,6.03-.47,1.69,1.71,1.61,4.29-.3,6.31-5.04,5.31-10.1,10.6-15.19,15.87-2.15,2.22-4.26,2.2-6.4-.03-5.08-5.27-10.14-10.56-15.18-15.87-1.86-1.95-1.98-4.45-.39-6.17,1.66-1.8,4.1-1.72,6.03.26,2.43,2.49,4.83,5.03,7.24,7.55.38.4.79.77,1.47,1.43Z"/><path class="cls-1" d="m96.92,109.16c-2.5,0-5,.03-7.5,0-2.58-.04-4.4-1.78-4.45-4.15-.05-2.42,1.84-4.26,4.5-4.28,5-.03,10-.03,15,0,2.65.02,4.36,1.69,4.4,4.15.03,2.53-1.72,4.24-4.45,4.28-2.5.03-5,0-7.5,0Z"/><path class="cls-1" d="m176.6,100.71c2.44,0,4.89-.02,7.33,0,2.68.03,4.56,1.81,4.54,4.24-.02,2.43-1.89,4.18-4.58,4.19-4.94.03-9.89.03-14.83,0-2.75-.02-4.49-1.71-4.48-4.24.01-2.53,1.76-4.16,4.53-4.19,2.5-.03,5,0,7.5,0Z"/><path class="cls-1" d="m136.72,100.71c2.5,0,5-.03,7.5,0,2.63.04,4.38,1.71,4.42,4.13.04,2.51-1.73,4.28-4.43,4.3-5,.03-10,.03-14.99,0-2.69-.02-4.46-1.79-4.42-4.31.04-2.42,1.8-4.09,4.42-4.12,2.5-.03,5,0,7.5,0Z"/><path class="cls-1" d="m65.16,50.89c-2.21.01-4.03-1.84-4.05-4.11-.02-2.25,1.82-4.16,4-4.17,2.2-.01,4.03,1.86,4.05,4.12.02,2.27-1.79,4.15-4,4.17Z"/><path class="cls-1" d="m81.01,42.61c2.26-.01,4,1.8,3.99,4.16,0,2.34-1.78,4.17-4.03,4.14-2.17-.03-3.87-1.81-3.9-4.08-.03-2.36,1.69-4.2,3.94-4.21Z"/><path class="cls-1" d="m96.93,42.61c2.25,0,3.99,1.8,3.99,4.16,0,2.34-1.78,4.16-4.02,4.13-2.18-.03-3.87-1.79-3.9-4.07-.03-2.35,1.7-4.2,3.94-4.21Z"/></g></g></svg>