<?xml version="1.0" encoding="UTF-8"?>
<svg id="Layer_1" data-name="Layer 1" xmlns="http://www.w3.org/2000/svg" viewBox="0 0 274.5 274.5">
  <defs>
    <style>
      .cls-1 {
        font-family: Roboto-Bold, Roboto;
        font-size: 22.77px;
        font-weight: 700;
      }

      .cls-1, .cls-2, .cls-3 {
        fill: #9bc2be;
      }

      .cls-4 {
        letter-spacing: 0em;
      }

      .cls-4, .cls-5, .cls-6, .cls-7 {
        font-family: RobotoSlab-Regular, 'Roboto Slab';
      }

      .cls-5 {
        letter-spacing: -.03em;
      }

      .cls-6 {
        letter-spacing: 0em;
      }

      .cls-2 {
        font-size: 24.03px;
      }

      .cls-8 {
        font-family: SegoeMDL2Assets, 'Segoe MDL2 Assets';
      }

      .cls-9 {
        fill: #7c9194;
        stroke: #173158;
        stroke-miterlimit: 10;
        stroke-width: 2.72px;
      }

      .cls-3 {
        stroke-width: 0px;
      }
    </style>
  </defs>
  <g>
    <text class="cls-2" transform="translate(62.79 235.72)"><tspan class="cls-5" x="0" y="0">A</tspan><tspan class="cls-7" x="16.77" y="0">uditi</tspan><tspan class="cls-4" x="70.38" y="0">n</tspan><tspan class="cls-7" x="85.73" y="0">g</tspan><tspan class="cls-8" x="99.33" y="0"> </tspan><tspan class="cls-7" x="105.92" y="0">a</tspan><tspan class="cls-6" x="119.15" y="0">n</tspan><tspan class="cls-7" x="134.5" y="0">d</tspan><tspan class="cls-8" x="148.92" y="0"> </tspan><tspan class="cls-7" x="-3.12" y="28.84">Digitalization</tspan><tspan class="cls-8" x="152.04" y="28.84"> </tspan></text>
    <g>
      <path class="cls-3" d="m148.83,176.57c-.63,0-.95,0-1.26,0-20.68,0-41.36.03-62.04-.02-7.76-.02-14.12-4.92-16.05-12.31-.43-1.67-.54-3.46-.54-5.2-.03-30.56-.02-61.13-.02-91.69,0-11.96-.01-23.92,0-35.88.01-9.07,5.48-15.57,14.37-17.1.88-.15,1.8-.14,2.7-.14,33.7,0,67.41-.01,101.11,0,9.39,0,16.54,6.99,16.81,16.39.02.64.01,1.28.01,1.91,0,40.45,0,80.9,0,121.35v2.34c-1.4-1.63-2.52-2.92-3.63-4.23-1.44-1.7-2.83-3.46-4.33-5.11-.77-.85-1.05-1.71-1.05-2.85.03-37.31.02-74.63.02-111.94,0-5.98-2.91-8.88-8.91-8.88-33.12,0-66.24,0-99.36,0-2.36,0-4.54.39-6.33,2.06-1.56,1.46-2.3,3.28-2.44,5.37-.04.53-.02,1.06-.02,1.59,0,42.15,0,84.3,0,126.45,0,5.97,2.95,8.94,8.88,8.94,19.19,0,38.38.01,57.57-.03,1.23,0,1.77.37,2.1,1.52.7,2.43,1.54,4.82,2.4,7.47Z"/>
      <path class="cls-3" d="m170.78,128.48c4.33,5.13,8.57,10.17,12.82,15.2,5.41,6.42,10.89,12.78,16.23,19.26,5.95,7.21,7.37,15.37,3.92,24.01-3.46,8.67-10.2,13.53-19.44,14.68-10.58,1.32-21.17-5.51-24.52-15.62-4.54-13.73-9.07-27.47-13.6-41.2q-.71-2.17-3.01-1.83c-20.65,3.07-40.99-7.82-49.79-26.66-13.13-28.12,3.74-60.97,34.22-66.62,25.64-4.76,50.62,12.48,55.07,38.23,2.48,14.34-1.06,27.25-10.26,38.58-.5.62-1.02,1.21-1.65,1.97Zm3.63-32.18c.17-20.94-16.94-38.08-38.17-38.24-20.7-.15-38.13,16.91-38.29,37.48-.17,21.41,16.59,38.78,37.59,38.96,21.48.18,38.7-16.74,38.87-38.2Zm-10.28,38.31c-3.4,1.91-6.62,3.71-9.9,5.55.04.14.09.39.17.64,4.68,14.24,9.32,28.49,14.08,42.7,2.18,6.51,9.81,10.47,16.62,8.86,10.83-2.57,14.97-15.19,7.77-23.72-4.59-5.44-9.18-10.88-13.77-16.32-5-5.92-10-11.84-14.96-17.71Z"/>
      <path class="cls-3" d="m136.25,111.23c6.17,0,12.33,0,18.5,0,1.81,0,3.36.53,4.39,2.1,1.96,3-.09,6.78-3.81,6.99-1.38.08-2.76.02-4.14.02-11.16,0-22.32,0-33.48,0-3.26,0-5.4-2.05-5.17-4.9.2-2.5,2.12-4.19,4.91-4.2,6.27-.03,12.54,0,18.82,0Z"/>
      <path class="cls-3" d="m136.23,72.26c6.22,0,12.43,0,18.65,0,2.97,0,4.92,1.75,4.95,4.41.03,2.76-1.89,4.54-4.98,4.54-12.49.01-24.97.01-37.46,0-2.95,0-4.9-1.83-4.89-4.49,0-2.66,1.98-4.46,4.92-4.46,6.27,0,12.54,0,18.81,0Z"/>
      <path class="cls-3" d="m136.07,100.77c-6.16,0-12.33.01-18.49,0-2.59,0-4.36-1.21-4.91-3.24-.8-2.97,1.26-5.77,4.41-5.78,12.75-.03,25.51-.03,38.26,0,2.5,0,4.4,1.9,4.49,4.26.1,2.56-1.56,4.47-4.15,4.71-.95.09-1.91.05-2.87.05-5.58,0-11.16,0-16.74,0Z"/>
    </g>
  </g>
  <g>
    <text class="cls-2" transform="translate(62.79 235.72)"><tspan class="cls-5" x="0" y="0">A</tspan><tspan class="cls-7" x="16.77" y="0">uditi</tspan><tspan class="cls-4" x="70.38" y="0">n</tspan><tspan class="cls-7" x="85.73" y="0">g</tspan><tspan class="cls-8" x="99.33" y="0"> </tspan><tspan class="cls-7" x="105.92" y="0">a</tspan><tspan class="cls-6" x="119.15" y="0">n</tspan><tspan class="cls-7" x="134.5" y="0">d</tspan><tspan class="cls-8" x="148.92" y="0"> </tspan><tspan class="cls-7" x="-3.12" y="28.84">Digitalization</tspan><tspan class="cls-8" x="152.04" y="28.84"> </tspan></text>
    <g>
      <path class="cls-3" d="m148.83,176.57c-.63,0-.95,0-1.26,0-20.68,0-41.36.03-62.04-.02-7.76-.02-14.12-4.92-16.05-12.31-.43-1.67-.54-3.46-.54-5.2-.03-30.56-.02-61.13-.02-91.69,0-11.96-.01-23.92,0-35.88.01-9.07,5.48-15.57,14.37-17.1.88-.15,1.8-.14,2.7-.14,33.7,0,67.41-.01,101.11,0,9.39,0,16.54,6.99,16.81,16.39.02.64.01,1.28.01,1.91,0,40.45,0,80.9,0,121.35v2.34c-1.4-1.63-2.52-2.92-3.63-4.23-1.44-1.7-2.83-3.46-4.33-5.11-.77-.85-1.05-1.71-1.05-2.85.03-37.31.02-74.63.02-111.94,0-5.98-2.91-8.88-8.91-8.88-33.12,0-66.24,0-99.36,0-2.36,0-4.54.39-6.33,2.06-1.56,1.46-2.3,3.28-2.44,5.37-.04.53-.02,1.06-.02,1.59,0,42.15,0,84.3,0,126.45,0,5.97,2.95,8.94,8.88,8.94,19.19,0,38.38.01,57.57-.03,1.23,0,1.77.37,2.1,1.52.7,2.43,1.54,4.82,2.4,7.47Z"/>
      <path class="cls-3" d="m170.78,128.48c4.33,5.13,8.57,10.17,12.82,15.2,5.41,6.42,10.89,12.78,16.23,19.26,5.95,7.21,7.37,15.37,3.92,24.01-3.46,8.67-10.2,13.53-19.44,14.68-10.58,1.32-21.17-5.51-24.52-15.62-4.54-13.73-9.07-27.47-13.6-41.2q-.71-2.17-3.01-1.83c-20.65,3.07-40.99-7.82-49.79-26.66-13.13-28.12,3.74-60.97,34.22-66.62,25.64-4.76,50.62,12.48,55.07,38.23,2.48,14.34-1.06,27.25-10.26,38.58-.5.62-1.02,1.21-1.65,1.97Zm3.63-32.18c.17-20.94-16.94-38.08-38.17-38.24-20.7-.15-38.13,16.91-38.29,37.48-.17,21.41,16.59,38.78,37.59,38.96,21.48.18,38.7-16.74,38.87-38.2Zm-10.28,38.31c-3.4,1.91-6.62,3.71-9.9,5.55.04.14.09.39.17.64,4.68,14.24,9.32,28.49,14.08,42.7,2.18,6.51,9.81,10.47,16.62,8.86,10.83-2.57,14.97-15.19,7.77-23.72-4.59-5.44-9.18-10.88-13.77-16.32-5-5.92-10-11.84-14.96-17.71Z"/>
      <path class="cls-3" d="m136.25,111.23c6.17,0,12.33,0,18.5,0,1.81,0,3.36.53,4.39,2.1,1.96,3-.09,6.78-3.81,6.99-1.38.08-2.76.02-4.14.02-11.16,0-22.32,0-33.48,0-3.26,0-5.4-2.05-5.17-4.9.2-2.5,2.12-4.19,4.91-4.2,6.27-.03,12.54,0,18.82,0Z"/>
      <path class="cls-3" d="m136.23,72.26c6.22,0,12.43,0,18.65,0,2.97,0,4.92,1.75,4.95,4.41.03,2.76-1.89,4.54-4.98,4.54-12.49.01-24.97.01-37.46,0-2.95,0-4.9-1.83-4.89-4.49,0-2.66,1.98-4.46,4.92-4.46,6.27,0,12.54,0,18.81,0Z"/>
      <path class="cls-3" d="m136.07,100.77c-6.16,0-12.33.01-18.49,0-2.59,0-4.36-1.21-4.91-3.24-.8-2.97,1.26-5.77,4.41-5.78,12.75-.03,25.51-.03,38.26,0,2.5,0,4.4,1.9,4.49,4.26.1,2.56-1.56,4.47-4.15,4.71-.95.09-1.91.05-2.87.05-5.58,0-11.16,0-16.74,0Z"/>
    </g>
  </g>
  <rect class="cls-9" x="1.36" y="1.36" width="271.79" height="271.79" rx="33.97" ry="33.97"/>
  <g>
    <path class="cls-3" d="m158.27,29.27c5.14,0,10.09-.02,15.03.01,1.63,0,3.27,0,4.88.24,5.52.79,9.78,5.53,9.84,11.12.08,8.6.1,17.21-.06,25.81-.08,4.29-1.51,8.3-3.43,12.14-.51,1.02-.81,2.25-.82,3.39-.06,9.2-.02,18.4-.04,27.61-.02,6.11-3.66,10.89-9.31,12.21-1.04.24-2.16.27-3.24.27-24.22.01-48.44.02-72.67,0-7.39,0-12.4-4.98-12.43-12.37-.03-9.2.02-18.4-.05-27.61,0-1.13-.33-2.36-.84-3.38-2.3-4.6-3.61-9.42-3.61-14.58,0-7.57,0-15.14,0-22.71.01-6.9,5.11-12.08,12.03-12.14,5.82-.05,11.64-.01,17.73-.01,0-1.52,0-2.97,0-4.41,0-2.07-.02-4.14,0-6.21.04-2.75,1.63-4.41,4.36-4.41,12.79-.02,25.58-.03,38.37,0,2.66,0,4.22,1.67,4.23,4.33.02,3.48,0,6.96,0,10.7Zm-9.28,58.25c2.95,0,5.62.1,8.27-.02,13.3-.6,22.92-10.69,22.93-23.98,0-7.19,0-14.38,0-21.56,0-3.32-1.33-4.7-4.61-4.7-27.16,0-54.33,0-81.49,0-3.35,0-4.71,1.4-4.71,4.8,0,7.13-.03,14.27.02,21.4.01,1.62.09,3.29.44,4.86,3.56,15.65,16.36,20.86,30.84,18.97,0-1.72,0-3.46,0-5.19,0-3.35,1.43-4.8,4.73-4.8,6.26,0,12.52,0,18.78,0,3.27,0,4.75,1.51,4.78,4.81.01,1.73,0,3.47,0,5.41Zm-28.3,7.87c-9.6.6-18.76-.11-26.79-6.44,0,7.12,0,13.81,0,20.5,0,3.32,1.44,4.75,4.78,4.75,24.05,0,48.11,0,72.16,0,3.46,0,4.85-1.37,4.85-4.82.01-6.21,0-12.41,0-18.62,0-.46-.07-.91-.13-1.64-3.97,2.91-8.11,5.02-12.72,5.66-4.54.62-9.16.69-13.85,1.01,0,1.85.05,3.76-.01,5.66-.09,2.65-1.62,4.19-4.19,4.2-6.69.02-13.39.03-20.08,0-2.4-.01-3.96-1.6-4.01-4-.04-1.95,0-3.91,0-6.26Zm29.68-73.03h-31v6.78h31v-6.78Zm-9.4,63.04h-12.31v12.29h12.31v-12.29Z"/>
    <path class="cls-3" d="m72.79,142.42c2.46-.74,4.57-1.73,6.54-3.33,9.43-7.71,20.23-10.4,32.23-8.32.91.16,1.84.19,2.76.19,8.71.01,17.43.16,26.13-.04,6.28-.15,11.25,1.61,13.95,7.8,6.75-2.82,13.41-5.6,20.06-8.38,11.93-4.98,23.86-9.95,35.78-14.93,3.17-1.32,6.39-1.69,9.7-.59,8.23,2.74,12.13,14.56,6.92,21.16-.95,1.21-2.23,2.27-3.56,3.05-24.05,14.12-48.15,28.16-72.2,42.29-4.5,2.64-9.4,3.16-14.42,3.41-14.19.71-28.37,1.47-42.55,2.21-2.5.13-5.03.04-7.49.43-4.68.74-9.32,1.76-13.98,2.66,0,1.87.02,3.28,0,4.69-.05,2.58-1.59,4.28-4.13,4.3-6.37.06-12.74.06-19.11,0-2.54-.03-4.11-1.73-4.11-4.32-.02-17.65-.02-35.29,0-52.94,0-2.64,1.62-4.28,4.29-4.3,6.26-.05,12.52-.05,18.78,0,2.75.02,3.98,1.44,4.42,4.95Zm-.14,39.71c.71-.17,1.29-.29,1.85-.45,4.18-1.2,8.34-2.43,12.76-2.35,1.68.03,3.37-.11,5.06-.2,14.24-.74,28.47-1.58,42.72-2.18,5.61-.23,10.67-1.43,15.57-4.42,12.01-7.35,24.26-14.29,36.42-21.4,10.7-6.25,21.41-12.5,32.11-18.76,2.52-1.48,3.04-3.51,1.61-6.07-.19-.33-.4-.65-.56-.99-1.77-3.94-4.41-3.69-7.36-2.45-18.78,7.87-37.57,15.71-56.37,23.54-.93.39-1.38.83-1.58,1.91-1.09,5.77-5.74,9.64-11.63,9.68-7.51.05-15.03.02-22.54,0-.64,0-1.32-.09-1.9-.32-1.75-.71-2.65-2.5-2.29-4.4.34-1.8,1.98-3.12,4.04-3.12,6.7-.02,13.4-.15,20.09.04,5.6.16,6.81-1.37,6.58-6.6-.14-3.25-1.42-4.64-4.7-4.64-9.47,0-18.95.01-28.42-.02-1.24,0-2.5-.12-3.72-.35-9.41-1.74-18.02.18-25.46,6.16-2.87,2.31-5.83,4.07-9.3,5.11-.52.15-1,.45-1.53.56-1.16.24-1.47.88-1.47,2.06.05,9.37.03,18.73.03,28.1v1.58Zm-8.02-4.95v-31.62h-11.31v31.62h11.31Zm.02,8.01h-11.33v5.75h11.33v-5.75Z"/>
  </g>
  <text class="cls-1" transform="translate(89.43 232.16)"><tspan x="0" y="0">Business </tspan><tspan x="8.38" y="27.32">Module</tspan></text>
</svg>