<?xml version="1.0" encoding="UTF-8"?><svg id="Layer_1" xmlns="http://www.w3.org/2000/svg" viewBox="0 0 273.67 273.35"><defs><style>.cls-1,.cls-2{fill:#9bc2be;}.cls-3{letter-spacing:-.01em;}.cls-4{fill:#f37979;}.cls-2{font-family:Roboto-Bold, Roboto;font-size:24.03px;font-weight:700;}</style></defs><rect class="cls-4" width="273.67" height="273.35" rx="24.45" ry="24.45"/><g><text class="cls-2" transform="translate(38.6 223.76)"><tspan x="0" y="0">Ch11. Carbon App</tspan><tspan x="43.27" y="28.84">Calcula</tspan><tspan class="cls-3" x="123.49" y="28.84">t</tspan><tspan x="131.26" y="28.84">or </tspan></text><g><path class="cls-1" d="M112.03,128.08c-2.23,2.74-3.95,6.37-5.22,10.25-.16,.5-.26,1.02-.44,1.5-.72,1.9-2.51,2.81-4.41,2.27-1.79-.51-2.82-2.37-2.32-4.35,1.33-5.27,3.73-10.03,7.04-14.32,.81-1.06,.95-1.83,.41-3.12-2.76-6.64-4.05-13.52-2.38-20.68,1.7-7.27,6.14-12.6,12.24-16.65,6.59-4.37,13.93-6.81,21.71-7.96,6.05-.9,11.98-2.29,17.24-5.49,2.52-1.53,4.74-3.64,6.87-5.72,2.08-2.04,5.05-1.88,6.09,.82,4.24,10.97,7.02,22.24,5.34,34.09-2.11,14.96-10.52,25.35-24.11,31.55-8.97,4.09-18.4,5.02-27.94,2.38-3.45-.95-6.61-2.94-10.13-4.56Zm4.94-5.52c2.35,1.15,4.3,2.33,6.42,3.09,4.74,1.68,9.66,1.62,14.53,.79,12.03-2.05,21.26-8.17,26.58-19.37,3.64-7.67,3.61-15.83,2.22-24.02-.58-3.44-1.53-6.82-2.38-10.53-8.28,6.28-17.55,8.42-27.11,9.98-6.7,1.1-12.95,3.6-18.38,7.85-8.38,6.57-9.57,16.42-5.56,25.88,.58-.45,1.14-.89,1.7-1.33,4.92-3.86,10.26-6.98,16.23-8.92,2.81-.91,5.42,1.4,4.52,4.12-.36,1.09-1.63,2.21-2.75,2.66-5.69,2.29-10.93,5.27-16.02,9.8Z"/><path class="cls-1" d="M124.15,34.79c-5.64,.99-10.76,2.69-15.69,4.97-10.54,4.85-19.35,11.88-26.38,21.12-.24,.31-.47,.63-.72,.93-1.4,1.66-3.47,2-5.04,.83-1.56-1.16-2.01-3.42-.59-5.03,3.89-4.41,7.63-9.02,12-12.89,9.98-8.85,21.74-14.36,34.86-16.86,1.16-.22,1.62-.67,1.59-1.92-.09-3.53-.05-7.07-.03-10.6,.03-3.9,2.67-5.46,6.02-3.53,8.84,5.08,17.67,10.17,26.49,15.28,3.41,1.98,3.43,5.02,.05,6.98-8.87,5.15-17.76,10.27-26.66,15.37-3.23,1.85-5.87,.24-5.9-3.54-.03-3.59,0-7.18,0-11.1Zm7.27,5.67c5.76-3.34,11.29-6.53,17.08-9.89-5.88-3.39-11.38-6.57-17.08-9.86v19.75Z"/><path class="cls-1" d="M149.93,170.37c3.47-.99,6.7-1.73,9.8-2.83,13.04-4.62,23.8-12.43,32.23-23.42,.24-.31,.47-.63,.72-.93,1.47-1.78,3.55-2.13,5.17-.86,1.54,1.2,1.92,3.42,.48,5.05-3.84,4.36-7.54,8.92-11.87,12.76-10.03,8.9-21.84,14.45-35.04,16.95-1.24,.23-1.54,.82-1.51,1.99,.07,3.47,.04,6.94,.02,10.41-.02,4.04-2.65,5.61-6.1,3.62-8.84-5.09-17.67-10.19-26.49-15.3-3.28-1.9-3.31-4.98-.06-6.86,8.88-5.15,17.77-10.28,26.66-15.4,3.25-1.87,5.94-.34,5.98,3.4,.04,3.65,0,7.31,0,11.41Zm-24.36,4c5.87,3.38,11.36,6.55,17.03,9.81v-19.62c-5.7,3.29-11.17,6.44-17.03,9.82Z"/><path class="cls-1" d="M212.17,89.59c3.93,0,7.84,0,11.76,0,4.28,.01,5.78,2.6,3.64,6.31-4.99,8.66-9.99,17.31-15,25.96-2.18,3.76-5.07,3.77-7.24,.02-5-8.65-10-17.3-14.99-25.96-2.15-3.72-.68-6.31,3.58-6.33,3.52-.01,7.04,0,11.02,0-.98-3.45-1.71-6.68-2.81-9.77-4.63-13.1-12.47-23.9-23.54-32.34-.31-.24-.63-.47-.93-.72-1.67-1.41-2-3.45-.81-5.03,1.17-1.56,3.42-2,5.04-.58,4.4,3.88,9.01,7.62,12.89,11.99,8.89,10.03,14.4,21.84,16.92,35.02,.08,.44,.27,.86,.46,1.43Zm6.63,7.29h-19.7c3.31,5.73,6.48,11.22,9.85,17.05,3.37-5.83,6.54-11.33,9.85-17.05Z"/><path class="cls-1" d="M68.94,115.36c1.52,4.67,2.68,9.02,4.35,13.17,4.69,11.67,12.17,21.27,22.17,28.91,.31,.24,.63,.47,.93,.72,1.65,1.39,1.98,3.49,.82,5.04-1.16,1.56-3.43,2-5.04,.57-4.4-3.89-9.01-7.63-12.89-12-8.85-9.98-14.35-21.74-16.85-34.86-.22-1.17-.69-1.61-1.93-1.58-3.53,.08-7.07,.05-10.6,.02-3.9-.03-5.45-2.67-3.52-6.03,5.11-8.89,10.24-17.78,15.38-26.66,1.83-3.16,4.93-3.19,6.76-.04,5.19,8.92,10.35,17.87,15.49,26.83,1.8,3.13,.24,5.84-3.36,5.89-3.66,.05-7.31,.01-11.7,.01Zm6.06-7.29c-3.31-5.73-6.49-11.23-9.85-17.06-3.37,5.83-6.55,11.33-9.85,17.06h19.71Z"/></g></g></svg>